{"glyphs":{"0":{"ha":772,"x_min":0,"x_max":0,"o":"m 379 1006 b 649 860 494 1006 590 954 b 718 481 696 783 718 661 b 635 93 718 296 690 169 b 379 -32 574 11 486 -32 b 110 114 264 -32 168 19 b 40 486 63 189 40 311 b 124 879 40 678 67 803 b 379 1006 183 961 274 1006 m 379 849 b 260 756 324 849 281 815 b 235 488 244 715 235 604 b 265 211 235 356 246 253 b 379 135 289 161 328 135 b 499 225 435 135 476 167 b 524 485 514 265 524 374 b 493 769 524 621 513 728 b 379 849 469 821 429 849 "},"1":{"ha":772,"x_min":0,"x_max":0,"o":"m 94 679 l 94 808 b 396 985 264 808 365 868 l 525 985 l 525 0 l 331 0 l 331 679 "},"2":{"ha":772,"x_min":0,"x_max":0,"o":"m 711 0 l 42 0 b 268 383 50 183 101 269 b 521 689 488 539 521 579 b 382 847 521 788 468 847 b 242 674 293 847 242 783 l 242 642 l 54 642 l 54 676 b 378 1006 54 885 174 1006 b 715 693 583 1006 715 883 b 494 360 715 558 665 485 b 293 174 350 256 319 226 l 711 174 "},"3":{"ha":772,"x_min":0,"x_max":0,"o":"m 301 571 l 318 571 b 490 719 433 571 490 619 b 368 849 490 801 446 849 b 249 779 311 849 267 822 b 233 675 239 754 235 728 l 53 675 b 76 836 53 757 58 789 b 372 1006 119 943 229 1006 b 685 738 563 1006 685 901 b 556 528 685 647 646 585 b 717 283 667 474 717 399 b 372 -32 717 92 582 -32 b 40 289 169 -32 42 92 l 229 289 b 376 135 235 188 285 135 b 522 283 461 135 522 196 b 415 431 522 356 481 413 b 301 440 381 440 376 440 "},"4":{"ha":772,"x_min":0,"x_max":0,"o":"m 725 218 l 622 218 l 622 0 l 428 0 l 428 218 l 33 218 l 33 382 l 393 985 l 622 985 l 622 379 l 725 379 m 428 800 l 171 379 l 428 379 "},"5":{"ha":772,"x_min":0,"x_max":0,"o":"m 679 811 l 272 811 l 240 606 b 411 665 297 649 346 665 b 718 325 593 665 718 528 b 363 -32 718 113 574 -32 b 38 257 171 -32 40 85 l 229 257 b 365 135 233 178 281 135 b 524 321 464 135 524 206 b 365 511 524 440 464 511 b 240 436 306 511 261 485 l 65 436 l 153 985 l 679 985 "},"6":{"ha":772,"x_min":0,"x_max":0,"o":"m 524 761 b 403 849 499 824 465 849 b 261 740 335 849 288 813 b 240 582 247 703 243 674 l 239 561 b 435 649 300 625 354 649 b 721 329 604 649 721 518 b 392 -32 721 114 588 -32 b 115 114 275 -32 172 22 b 44 468 65 193 44 299 b 126 853 44 647 68 757 b 408 1006 186 951 286 1006 b 657 893 515 1006 606 964 b 704 761 682 857 694 825 m 386 494 b 236 313 297 494 236 419 b 386 135 236 207 297 135 b 536 315 472 135 536 211 b 386 494 536 425 478 494 "},"7":{"ha":772,"x_min":0,"x_max":0,"o":"m 733 832 b 381 0 500 550 399 311 l 185 0 b 314 482 211 210 246 339 b 531 811 353 568 471 747 l 40 811 l 40 985 l 733 985 "},"8":{"ha":772,"x_min":0,"x_max":0,"o":"m 568 536 b 729 283 682 474 729 400 b 381 -32 729 97 586 -32 b 31 283 174 -32 31 97 b 192 536 31 400 78 474 b 64 738 103 583 64 643 b 381 1006 64 893 197 1006 b 696 739 563 1006 696 893 b 632 578 696 675 672 615 b 568 536 617 564 601 554 m 382 849 b 235 721 294 849 235 796 b 382 590 235 643 294 590 b 528 719 467 590 528 644 b 382 849 528 796 468 849 m 379 458 b 225 294 285 458 225 394 b 379 135 225 197 285 135 b 535 292 474 135 535 197 b 379 458 535 394 475 458 "},"9":{"ha":772,"x_min":0,"x_max":0,"o":"m 240 229 b 360 133 244 171 290 133 b 522 414 469 133 522 224 b 461 353 490 378 479 365 b 333 317 431 331 383 317 b 39 658 158 317 39 456 b 371 1006 39 864 174 1006 b 649 844 489 1006 586 950 b 717 514 694 769 717 658 b 635 119 717 356 686 207 b 354 -33 576 19 481 -33 b 53 229 185 -33 57 78 m 365 847 b 224 661 278 847 224 775 b 368 478 224 547 279 478 b 518 658 458 478 518 550 b 365 847 518 775 460 847 "}," ":{"ha":386,"x_min":0,"x_max":0,"o":""},"!":{"ha":463,"x_min":0,"x_max":0,"o":"m 364 717 l 306 288 l 213 288 l 156 717 l 156 1008 l 364 1008 m 364 0 l 156 0 l 156 203 l 364 203 "},"\"":{"ha":658,"x_min":0,"x_max":0,"o":"m 261 832 l 203 653 l 125 653 l 69 832 l 69 1013 l 261 1013 m 589 832 l 531 653 l 453 653 l 397 832 l 397 1013 l 589 1013 "},"#":{"ha":772,"x_min":0,"x_max":0,"o":"m 56 -44 l 111 239 l 4 239 l 4 376 l 139 376 l 181 589 l 43 589 l 43 726 l 208 726 l 256 968 l 401 968 l 354 726 l 497 726 l 544 968 l 690 968 l 643 726 l 768 726 l 768 589 l 617 589 l 574 376 l 713 376 l 713 239 l 547 239 l 492 -44 l 346 -44 l 401 239 l 258 239 l 203 -44 m 428 376 l 469 589 l 326 589 l 285 376 "},"$":{"ha":772,"x_min":0,"x_max":0,"o":"m 540 692 b 432 844 543 776 503 835 l 432 565 b 732 271 649 506 732 424 b 613 28 732 165 688 76 b 432 -29 567 -1 508 -21 l 432 -175 l 338 -175 l 338 -29 b 150 35 254 -21 203 -3 b 31 275 72 92 31 174 l 31 288 l 213 288 b 338 119 217 190 260 133 l 338 415 b 54 711 150 458 54 557 b 338 985 54 867 158 968 l 338 1060 l 432 1060 l 432 985 b 718 692 607 975 715 865 m 338 844 b 225 717 261 829 225 789 b 338 593 225 656 260 618 m 432 119 b 549 254 510 139 549 185 b 432 392 549 321 510 368 "},"%":{"ha":1235,"x_min":0,"x_max":0,"o":"m 286 974 b 542 718 429 974 542 861 b 286 468 542 581 426 468 b 31 721 146 468 31 582 b 286 974 31 860 146 974 m 286 836 b 168 721 221 836 168 785 b 286 604 168 656 221 604 b 404 719 351 604 404 656 b 286 836 404 785 353 836 m 947 985 l 399 -28 l 292 -28 l 842 985 m 943 489 b 1199 232 1086 489 1199 376 b 943 -18 1199 96 1083 -18 b 688 236 801 -18 688 96 b 943 489 688 375 801 489 m 943 351 b 825 235 878 351 825 299 b 943 118 825 171 878 118 b 1061 233 1007 118 1061 171 b 943 351 1061 300 1010 351 "},"&":{"ha":1003,"x_min":0,"x_max":0,"o":"m 888 518 l 888 503 l 888 496 b 793 214 885 390 849 278 l 964 0 l 740 0 l 676 78 b 406 -32 563 -7 501 -32 b 76 268 208 -32 76 88 b 294 557 76 399 132 472 b 278 578 286 568 281 575 b 239 625 264 594 251 610 b 181 772 200 671 181 721 b 443 1004 181 904 294 1004 b 690 790 592 1004 690 918 b 528 544 690 688 651 629 l 689 344 b 731 504 719 403 731 443 l 731 518 m 321 403 b 261 292 283 378 261 338 b 408 129 261 208 333 129 b 575 206 451 129 510 156 l 386 443 m 440 653 b 524 772 497 685 524 722 b 444 853 524 824 494 853 b 364 786 396 853 364 826 b 440 653 364 751 371 739 "},"’":{"ha":386,"x_min":0,"x_max":0,"o":"m 279 1013 l 279 861 b 92 651 285 740 214 663 l 92 715 b 203 839 169 729 206 769 l 92 839 l 92 1013 "},"(":{"ha":463,"x_min":0,"x_max":0,"o":"m 421 1013 b 226 368 274 729 226 572 b 421 -278 226 163 272 8 l 282 -278 b 56 368 122 -36 56 153 b 282 1013 56 582 122 771 "},")":{"ha":463,"x_min":0,"x_max":0,"o":"m 31 -278 b 225 367 178 6 225 163 b 31 1013 225 572 179 726 l 169 1013 b 396 367 329 771 396 582 b 169 -278 396 153 329 -36 "},"*":{"ha":540,"x_min":0,"x_max":0,"o":"m 32 806 l 63 901 l 214 851 l 214 1013 l 314 1013 l 314 851 l 464 901 l 494 804 l 344 756 l 438 625 l 357 565 l 264 696 l 169 565 l 89 625 l 182 756 "},"+":{"ha":811,"x_min":0,"x_max":0,"o":"m 740 239 l 488 239 l 488 -14 l 322 -14 l 322 239 l 69 239 l 69 404 l 322 404 l 322 657 l 488 657 l 488 404 l 740 404 "},",":{"ha":386,"x_min":0,"x_max":0,"o":"m 297 203 l 297 13 b 89 -242 303 -140 238 -219 l 89 -164 b 208 0 172 -149 211 -94 l 89 0 l 89 203 "},"-":{"ha":463,"x_min":0,"x_max":0,"o":"m 414 288 l 36 288 l 36 475 l 414 475 "},".":{"ha":386,"x_min":0,"x_max":0,"o":"m 297 0 l 89 0 l 89 203 l 297 203 "},"/":{"ha":386,"x_min":0,"x_max":0,"o":"m 382 992 l 96 -19 l 3 -19 l 289 992 "},":":{"ha":463,"x_min":0,"x_max":0,"o":"m 365 0 l 157 0 l 157 203 l 365 203 m 365 519 l 157 519 l 157 722 l 365 722 "},";":{"ha":463,"x_min":0,"x_max":0,"o":"m 365 203 l 365 13 b 157 -242 371 -140 306 -219 l 157 -164 b 276 0 240 -149 279 -94 l 157 0 l 157 203 m 365 519 l 157 519 l 157 722 l 365 722 "},"<":{"ha":811,"x_min":0,"x_max":0,"o":"m 735 507 l 204 322 l 735 140 l 735 -14 l 56 239 l 56 407 l 735 658 "},"=":{"ha":811,"x_min":0,"x_max":0,"o":"m 742 406 l 69 406 l 69 571 l 742 571 m 742 72 l 69 72 l 69 238 l 742 238 "},">":{"ha":811,"x_min":0,"x_max":0,"o":"m 56 138 l 586 322 l 56 504 l 56 658 l 735 406 l 735 238 l 56 -14 "},"?":{"ha":849,"x_min":0,"x_max":0,"o":"m 340 279 b 479 554 336 397 368 460 b 576 710 560 621 576 647 b 432 869 576 801 514 869 b 278 668 336 869 278 793 l 89 668 b 154 910 90 782 108 849 b 426 1033 214 992 307 1033 b 772 714 631 1033 772 903 b 606 444 772 597 735 536 b 513 279 522 386 513 371 m 535 0 l 326 0 l 326 203 l 535 203 "},"@":{"ha":1354,"x_min":0,"x_max":0,"o":"m 1019 706 l 911 317 b 900 258 900 276 900 275 b 968 190 900 217 926 190 b 1121 290 1017 190 1075 229 b 1192 514 1167 354 1192 433 b 1056 800 1192 625 1147 718 b 710 928 958 886 846 928 b 315 753 549 928 415 868 b 172 369 225 649 172 508 b 336 31 172 231 228 115 b 675 -82 429 -42 549 -82 b 963 -26 775 -82 882 -61 l 1001 -128 b 672 -190 904 -171 804 -190 b 247 -58 496 -190 361 -149 b 38 361 117 44 38 201 b 236 835 38 529 113 707 b 715 1035 364 967 528 1035 b 1161 861 892 1035 1043 975 b 1315 493 1267 758 1315 642 b 1201 194 1315 378 1278 282 b 968 78 1135 119 1051 78 b 844 114 922 78 879 90 b 794 182 817 133 806 147 b 586 78 740 117 663 78 b 358 315 460 78 358 183 b 461 593 358 410 397 514 b 714 719 524 672 619 719 b 872 619 792 719 839 689 l 894 706 m 710 621 b 493 339 600 621 493 482 b 617 190 493 254 546 190 b 739 256 657 190 706 217 b 826 479 790 315 826 408 b 710 621 826 567 782 621 "},"A":{"ha":1003,"x_min":0,"x_max":0,"o":"m 317 204 l 249 0 l 36 0 l 396 1013 l 626 1013 l 976 0 l 763 0 l 696 204 m 507 774 l 375 378 l 639 378 "},"B":{"ha":1003,"x_min":0,"x_max":0,"o":"m 114 1013 l 565 1013 b 804 939 674 1013 744 990 b 896 746 861 889 896 817 b 757 538 896 660 857 601 b 925 292 872 471 925 392 b 825 74 925 210 886 125 b 569 0 764 22 686 0 l 114 0 m 322 610 l 549 610 b 696 725 646 610 696 649 b 549 839 696 800 646 839 l 322 839 m 322 174 l 571 174 b 725 304 672 174 725 218 b 571 436 725 392 672 436 l 322 436 "},"C":{"ha":1003,"x_min":0,"x_max":0,"o":"m 749 669 b 532 851 721 793 653 851 b 269 494 368 851 269 718 b 525 143 269 274 364 143 b 749 346 654 143 735 217 l 951 346 b 519 -32 939 114 772 -32 b 61 497 238 -32 61 171 b 525 1029 61 825 239 1029 b 879 869 676 1029 801 972 b 947 669 922 813 940 757 "},"D":{"ha":1003,"x_min":0,"x_max":0,"o":"m 107 1013 l 503 1013 b 824 896 658 1013 754 978 b 946 507 903 800 946 664 b 824 118 946 349 903 213 b 503 0 754 36 657 0 l 107 0 m 503 174 b 738 506 660 174 738 283 b 503 839 738 729 660 839 l 315 839 l 315 174 "},"E":{"ha":926,"x_min":0,"x_max":0,"o":"m 318 174 l 867 174 l 867 0 l 110 0 l 110 1013 l 842 1013 l 842 839 l 318 839 l 318 610 l 803 610 l 803 436 l 318 436 "},"F":{"ha":849,"x_min":0,"x_max":0,"o":"m 311 0 l 103 0 l 103 1013 l 814 1013 l 814 839 l 311 839 l 311 610 l 754 610 l 754 436 l 311 436 "},"G":{"ha":1081,"x_min":0,"x_max":0,"o":"m 988 -3 l 863 -3 l 838 131 b 532 -32 760 17 668 -32 b 58 499 258 -32 58 192 b 549 1029 58 814 257 1029 b 988 689 793 1029 963 899 l 792 689 b 729 790 774 742 758 765 b 550 851 683 831 622 851 b 267 501 372 851 267 719 b 556 146 267 293 386 146 b 763 243 635 146 713 182 b 813 371 793 279 807 314 l 582 371 l 582 544 l 988 544 "},"H":{"ha":1003,"x_min":0,"x_max":0,"o":"m 303 460 l 303 0 l 94 0 l 94 1013 l 303 1013 l 303 633 l 703 633 l 703 1013 l 913 1013 l 913 0 l 704 0 l 704 460 "},"I":{"ha":386,"x_min":0,"x_max":0,"o":"m 296 0 l 88 0 l 88 1013 l 296 1013 "},"J":{"ha":772,"x_min":0,"x_max":0,"o":"m 675 1013 l 675 264 b 350 -32 675 75 557 -32 b 118 49 254 -32 176 -4 b 33 275 58 104 33 169 l 33 375 l 242 375 l 242 278 b 354 146 242 185 275 146 b 467 264 426 146 467 188 l 467 1013 "},"K":{"ha":1003,"x_min":0,"x_max":0,"o":"m 311 0 l 103 0 l 103 1013 l 311 1013 l 311 568 l 707 1013 l 953 1013 l 549 576 l 996 0 l 747 0 l 415 447 l 311 339 "},"L":{"ha":849,"x_min":0,"x_max":0,"o":"m 319 174 l 804 174 l 804 0 l 111 0 l 111 1013 l 319 1013 "},"M":{"ha":1157,"x_min":0,"x_max":0,"o":"m 300 0 l 92 0 l 92 1013 l 403 1013 l 586 207 l 764 1013 l 1078 1013 l 1078 0 l 869 0 l 869 789 l 690 0 l 482 0 l 300 789 "},"N":{"ha":1003,"x_min":0,"x_max":0,"o":"m 303 700 l 303 0 l 94 0 l 94 1013 l 308 1013 l 710 324 l 710 1013 l 918 1013 l 918 0 l 710 0 "},"O":{"ha":1081,"x_min":0,"x_max":0,"o":"m 542 1029 b 889 889 689 1029 800 985 b 1031 492 979 793 1031 650 b 889 108 1031 349 976 201 b 543 -32 801 14 688 -32 b 197 108 399 -32 285 14 b 56 499 107 204 56 347 b 197 889 56 650 107 792 b 542 1029 283 982 400 1029 m 543 851 b 264 499 374 851 264 713 b 543 146 264 285 374 146 b 822 493 710 146 822 285 b 543 851 822 713 714 851 "},"P":{"ha":926,"x_min":0,"x_max":0,"o":"m 314 0 l 106 0 l 106 1013 l 553 1013 b 879 699 764 1013 879 901 b 574 361 879 493 760 361 l 314 361 m 508 535 b 671 688 619 535 671 583 b 508 839 671 790 619 839 l 314 839 l 314 535 "},"Q":{"ha":1081,"x_min":0,"x_max":0,"o":"m 1035 38 l 929 -75 l 810 38 b 547 -32 729 -11 653 -32 b 201 108 403 -32 289 14 b 60 499 113 204 60 347 b 201 889 60 650 111 793 b 547 1029 289 983 403 1029 b 893 889 692 1029 806 983 b 1035 501 982 793 1035 650 b 924 143 1035 365 992 226 m 781 278 b 826 497 811 339 826 414 b 547 851 826 713 717 851 b 268 499 378 851 268 713 b 546 146 268 286 379 146 b 668 172 590 146 635 156 l 561 274 l 667 386 "},"R":{"ha":1003,"x_min":0,"x_max":0,"o":"m 319 0 l 111 0 l 111 1013 l 654 1013 b 850 943 740 1013 804 990 b 926 739 899 893 926 819 b 756 489 926 615 869 533 b 896 121 885 433 890 419 b 940 38 896 76 908 56 l 940 0 l 717 0 b 686 174 692 49 686 78 b 688 240 686 189 686 214 l 688 282 b 558 401 688 365 649 401 l 319 401 m 571 575 b 681 601 631 575 657 582 b 718 710 706 622 718 661 b 681 813 718 757 706 792 b 571 839 654 833 631 839 l 319 839 l 319 575 "},"S":{"ha":926,"x_min":0,"x_max":0,"o":"m 649 704 b 436 863 642 807 568 863 b 261 738 328 863 261 814 b 453 606 261 664 304 635 l 611 575 b 879 296 799 539 879 456 b 464 -32 879 89 725 -32 b 44 303 206 -32 57 86 l 247 303 b 475 135 254 194 333 135 b 679 271 601 135 679 186 b 489 418 679 353 628 392 l 347 446 b 63 718 142 485 63 561 b 446 1029 63 915 203 1029 b 843 704 701 1029 842 914 "},"T":{"ha":849,"x_min":0,"x_max":0,"o":"m 535 0 l 326 0 l 326 839 l 19 839 l 19 1013 l 831 1013 l 831 839 l 535 839 "},"U":{"ha":1003,"x_min":0,"x_max":0,"o":"m 908 1013 l 908 326 b 810 71 908 213 878 132 b 507 -32 736 4 629 -32 b 204 71 385 -32 278 4 b 106 326 136 132 106 213 l 106 1013 l 314 1013 l 314 326 b 507 146 314 204 376 146 b 700 326 638 146 700 204 l 700 1013 "},"V":{"ha":926,"x_min":0,"x_max":0,"o":"m 375 0 l 33 1013 l 243 1013 l 468 250 l 689 1013 l 899 1013 l 551 0 "},"W":{"ha":1311,"x_min":0,"x_max":0,"o":"m 826 0 l 657 790 l 492 0 l 304 0 l 18 1013 l 239 1013 l 396 254 l 553 1013 l 758 1013 l 922 253 l 1074 1013 l 1294 1013 l 1014 0 "},"X":{"ha":926,"x_min":0,"x_max":0,"o":"m 907 0 l 660 0 l 465 351 l 272 0 l 31 0 l 350 510 l 42 1013 l 289 1013 l 467 679 l 653 1013 l 894 1013 l 582 517 "},"Y":{"ha":926,"x_min":0,"x_max":0,"o":"m 582 0 l 374 0 l 374 375 l 38 1013 l 269 1013 l 476 565 l 669 1013 l 903 1013 l 582 375 "},"Z":{"ha":849,"x_min":0,"x_max":0,"o":"m 803 839 l 286 174 l 803 174 l 803 0 l 42 0 l 42 174 l 560 839 l 42 839 l 42 1013 l 803 1013 "},"[":{"ha":463,"x_min":0,"x_max":0,"o":"m 428 871 l 272 871 l 272 -136 l 428 -136 l 428 -278 l 92 -278 l 92 1013 l 428 1013 "},"\\":{"ha":386,"x_min":0,"x_max":0,"o":"m 401 -19 l 308 -19 l -17 992 l 76 992 "},"]":{"ha":463,"x_min":0,"x_max":0,"o":"m 25 -136 l 181 -136 l 181 871 l 25 871 l 25 1013 l 361 1013 l 361 -278 l 25 -278 "},"^":{"ha":811,"x_min":0,"x_max":0,"o":"m 568 375 l 400 792 l 240 375 l 85 375 l 314 965 l 488 965 l 725 375 "},"_":{"ha":772,"x_min":0,"x_max":0,"o":"m 803 -262 l -31 -262 l -31 -167 l 803 -167 "},"‘":{"ha":386,"x_min":0,"x_max":0,"o":"m 99 651 l 99 803 b 286 1013 93 924 164 1003 l 286 949 b 175 825 208 935 172 894 l 286 825 l 286 651 "},"a":{"ha":772,"x_min":0,"x_max":0,"o":"m 728 0 l 517 0 b 494 75 499 22 494 36 b 267 -32 425 3 350 -32 b 39 193 129 -32 39 58 b 260 429 39 328 111 404 l 338 443 b 460 472 433 458 433 458 b 493 531 481 485 493 506 b 381 606 493 581 456 606 b 243 503 285 606 253 581 l 56 503 b 376 763 68 676 174 763 b 683 532 579 763 683 685 l 683 115 b 728 24 683 78 694 56 m 493 354 b 411 331 471 343 463 340 l 344 318 b 233 215 264 301 233 274 b 339 125 233 160 274 125 b 493 301 438 125 493 189 "},"b":{"ha":849,"x_min":0,"x_max":0,"o":"m 276 1013 l 276 653 b 483 763 324 728 389 763 b 718 642 575 763 667 715 b 799 365 768 569 799 467 b 483 -32 799 139 663 -32 b 276 76 389 -32 324 3 l 276 0 l 82 0 l 82 1013 m 440 600 b 276 368 343 600 276 506 b 440 131 276 224 342 131 b 604 364 538 131 604 226 b 440 600 604 503 536 600 "},"c":{"ha":772,"x_min":0,"x_max":0,"o":"m 539 469 b 400 606 517 568 479 606 b 279 542 344 606 301 583 b 242 360 256 497 242 432 b 399 125 242 213 300 125 b 539 260 476 125 515 163 l 725 260 b 399 -32 707 81 581 -32 b 47 360 176 -32 47 113 b 401 763 47 615 176 763 b 725 469 590 763 711 653 "},"d":{"ha":849,"x_min":0,"x_max":0,"o":"m 563 76 b 356 -32 514 1 450 -32 b 121 88 264 -32 172 14 b 40 364 71 160 40 263 b 356 763 40 590 176 763 b 563 653 450 763 514 728 l 563 1013 l 757 1013 l 757 0 l 563 0 m 399 600 b 235 364 301 600 235 504 b 399 131 235 226 301 131 b 563 361 496 131 563 225 b 399 600 563 506 497 600 "},"e":{"ha":772,"x_min":0,"x_max":0,"o":"m 225 314 b 253 182 228 243 235 210 b 381 117 281 140 325 117 b 529 211 451 117 506 151 l 721 211 b 374 -32 678 63 542 -32 b 31 356 161 -32 31 115 b 378 763 31 607 163 763 b 700 544 529 763 650 681 b 729 347 718 492 729 422 b 728 314 729 338 729 331 m 526 443 b 375 614 517 554 464 614 b 228 443 289 614 240 558 "},"f":{"ha":463,"x_min":0,"x_max":0,"o":"m 435 606 l 319 606 l 319 0 l 125 0 l 125 606 l 19 606 l 19 735 l 125 735 l 125 825 b 317 1013 125 951 188 1013 b 428 1008 346 1013 386 1011 l 428 863 b 372 867 408 865 390 867 b 319 808 336 867 319 847 l 319 735 l 435 735 "},"g":{"ha":849,"x_min":0,"x_max":0,"o":"m 740 750 l 740 -25 b 393 -303 740 -199 610 -303 b 146 -231 288 -303 206 -279 b 72 -90 94 -189 74 -149 l 272 -90 b 400 -178 288 -147 331 -178 b 556 -25 492 -178 556 -115 l 556 76 b 358 -32 488 -6 439 -32 b 57 357 179 -32 57 126 b 171 675 57 489 96 597 b 363 763 222 729 296 763 b 556 635 442 763 501 722 l 556 750 m 399 600 b 251 360 311 600 251 501 b 396 131 251 224 311 131 b 558 360 493 131 558 224 b 399 600 558 499 490 600 "},"h":{"ha":849,"x_min":0,"x_max":0,"o":"m 288 1013 l 288 642 b 507 763 342 725 411 763 b 675 706 569 763 632 742 b 751 503 726 663 751 596 l 751 0 l 557 0 l 557 458 b 535 551 557 506 553 526 b 438 597 513 582 481 597 b 288 450 350 597 288 536 l 288 0 l 93 0 l 93 1013 "},"i":{"ha":386,"x_min":0,"x_max":0,"o":"m 288 0 l 93 0 l 93 750 l 288 750 m 288 839 l 93 839 l 93 1013 l 288 1013 "},"j":{"ha":386,"x_min":0,"x_max":0,"o":"m 292 -131 b 121 -303 292 -253 242 -303 b 6 -296 90 -303 43 -300 l 6 -140 b 40 -146 18 -144 28 -146 b 97 -87 82 -146 97 -131 l 97 750 l 292 750 m 292 839 l 97 839 l 97 1013 l 292 1013 "},"k":{"ha":772,"x_min":0,"x_max":0,"o":"m 522 750 l 743 750 l 488 467 l 761 0 l 533 0 l 354 331 l 276 246 l 276 0 l 82 0 l 82 1013 l 276 1013 l 276 458 "},"l":{"ha":386,"x_min":0,"x_max":0,"o":"m 288 0 l 93 0 l 93 1013 l 288 1013 "},"m":{"ha":1235,"x_min":0,"x_max":0,"o":"m 276 750 l 276 657 b 482 763 340 735 396 763 b 686 651 575 763 650 722 b 906 763 744 729 810 763 b 1144 531 1056 763 1144 676 l 1144 0 l 950 0 l 950 500 b 844 597 950 560 910 597 b 711 450 761 597 711 542 l 711 0 l 517 0 l 517 500 b 411 597 517 560 476 597 b 278 450 328 597 278 543 l 278 0 l 83 0 l 83 750 "},"n":{"ha":849,"x_min":0,"x_max":0,"o":"m 282 750 l 282 642 b 507 763 338 726 406 763 b 758 503 668 763 758 669 l 758 0 l 564 0 l 564 463 b 439 597 564 551 522 597 b 282 450 343 597 282 539 l 282 0 l 88 0 l 88 750 "},"o":{"ha":849,"x_min":0,"x_max":0,"o":"m 418 763 b 790 360 653 763 790 614 b 419 -32 790 118 649 -32 b 49 365 189 -32 49 118 b 418 763 49 611 189 763 m 419 606 b 243 365 314 606 243 510 b 419 125 243 221 314 125 b 596 363 524 125 596 222 b 419 606 596 510 526 606 "},"p":{"ha":849,"x_min":0,"x_max":0,"o":"m 275 639 b 483 763 322 722 389 763 b 717 644 574 763 667 715 b 797 364 767 575 797 469 b 483 -33 797 136 664 -33 b 275 89 389 -33 322 6 l 275 -303 l 81 -303 l 81 750 l 275 750 m 439 600 b 275 364 340 600 275 506 b 439 129 275 224 340 129 b 603 361 536 129 603 224 b 439 600 603 506 538 600 "},"q":{"ha":849,"x_min":0,"x_max":0,"o":"m 756 750 l 756 -303 l 561 -303 l 561 89 b 351 -33 515 7 446 -33 b 119 85 263 -33 169 14 b 39 364 69 153 39 258 b 353 763 39 593 172 763 b 561 639 446 763 515 721 l 561 750 m 397 600 b 233 364 300 600 233 504 b 397 129 233 224 300 129 b 561 360 494 129 561 224 b 397 600 561 506 497 600 "},"r":{"ha":540,"x_min":0,"x_max":0,"o":"m 282 750 l 282 603 b 490 763 325 704 401 763 b 514 761 499 763 503 763 l 514 564 b 453 569 488 568 474 569 b 282 399 339 569 282 513 l 282 0 l 88 0 l 88 750 "},"s":{"ha":772,"x_min":0,"x_max":0,"o":"m 514 508 b 374 610 513 576 467 610 b 261 540 306 610 261 582 b 329 482 261 510 275 499 l 575 411 b 722 222 674 382 722 319 b 633 35 722 149 689 79 b 394 -32 578 -10 499 -32 b 40 218 167 -32 46 53 l 231 218 b 268 147 239 178 247 163 b 383 121 293 129 332 121 b 528 194 474 121 528 149 b 463 256 528 225 511 240 l 231 328 b 108 390 158 351 135 364 b 67 513 82 419 67 463 b 375 763 67 667 185 763 b 701 508 576 763 699 667 "},"t":{"ha":463,"x_min":0,"x_max":0,"o":"m 418 606 l 310 606 l 310 197 b 374 115 310 131 322 115 b 418 119 389 115 399 117 l 418 -17 b 306 -32 382 -28 350 -32 b 115 144 178 -32 115 26 l 115 606 l 19 606 l 19 735 l 115 735 l 115 936 l 310 936 l 310 735 l 418 735 "},"u":{"ha":849,"x_min":0,"x_max":0,"o":"m 557 0 l 557 89 b 332 -32 501 4 433 -32 b 81 228 171 -32 81 61 l 81 750 l 275 750 l 275 268 b 400 133 275 178 317 133 b 557 281 496 133 557 192 l 557 750 l 751 750 l 751 0 "},"v":{"ha":772,"x_min":0,"x_max":0,"o":"m 282 0 l 19 750 l 225 750 l 388 201 l 539 750 l 744 750 l 486 0 "},"w":{"ha":1081,"x_min":0,"x_max":0,"o":"m 650 0 l 538 529 l 418 0 l 218 0 l 7 750 l 208 750 l 328 225 l 442 750 l 636 750 l 749 225 l 863 750 l 1064 750 l 851 0 "},"x":{"ha":772,"x_min":0,"x_max":0,"o":"m 743 0 l 510 0 l 383 233 l 256 0 l 22 0 l 272 378 l 28 750 l 261 750 l 383 524 l 504 750 l 738 750 l 493 378 "},"y":{"ha":772,"x_min":0,"x_max":0,"o":"m 747 750 l 439 -137 b 329 -281 407 -228 383 -258 b 189 -304 294 -294 239 -304 b 119 -299 165 -304 149 -303 l 119 -153 b 171 -161 143 -158 156 -161 b 292 -31 243 -161 292 -108 l 13 750 l 226 750 l 392 204 l 547 750 "},"z":{"ha":694,"x_min":0,"x_max":0,"o":"m 638 593 l 269 157 l 650 157 l 650 0 l 29 0 l 29 157 l 400 593 l 54 593 l 54 750 l 638 750 "},"{":{"ha":540,"x_min":0,"x_max":0,"o":"m 440 875 l 389 875 b 326 796 346 875 325 850 l 326 525 b 192 374 326 425 290 385 b 326 221 290 361 326 321 l 326 -50 b 389 -140 325 -114 342 -140 l 440 -140 l 440 -278 l 335 -278 b 164 -83 236 -279 161 -194 l 164 208 b 51 310 165 288 139 311 l 51 438 l 57 438 l 74 438 b 164 525 136 438 165 467 l 164 818 b 335 1013 163 929 236 1014 l 440 1013 "},"|":{"ha":389,"x_min":0,"x_max":0,"o":"m 250 -278 l 139 -278 l 139 1013 l 250 1013 "},"}":{"ha":540,"x_min":0,"x_max":0,"o":"m 100 -140 l 151 -140 b 214 -61 194 -140 215 -115 l 214 210 b 349 361 214 310 250 350 b 214 514 250 374 214 414 l 214 785 b 151 875 215 849 199 875 l 100 875 l 100 1013 l 206 1013 b 376 818 304 1014 379 929 l 376 526 b 489 425 375 447 401 424 l 489 297 l 483 297 l 467 297 b 376 210 404 297 375 268 l 376 -83 b 206 -278 378 -194 304 -279 l 100 -278 "},"~":{"ha":811,"x_min":0,"x_max":0,"o":"m 721 571 b 544 368 713 435 656 368 b 429 404 499 368 465 379 l 350 463 b 265 496 318 486 294 496 b 199 458 232 496 210 483 b 192 406 194 447 193 443 l 83 406 b 260 607 90 540 150 607 b 375 572 306 607 342 596 l 454 514 b 539 479 490 486 510 479 b 606 517 572 479 594 492 b 613 571 610 528 611 533 "},"¡":{"ha":463,"x_min":0,"x_max":0,"o":"m 92 33 l 150 463 l 243 463 l 300 33 l 300 -258 l 92 -258 m 92 750 l 300 750 l 300 547 l 92 547 "},"¢":{"ha":772,"x_min":0,"x_max":0,"o":"m 421 126 b 539 260 485 136 518 175 l 725 260 b 421 -31 710 93 586 -25 l 421 -172 l 360 -171 l 360 -29 b 51 360 167 -17 51 129 b 360 761 51 600 160 740 l 360 881 l 421 881 l 421 763 b 725 469 592 760 714 642 l 539 469 b 421 604 521 556 486 594 m 360 601 b 246 361 286 583 246 499 b 360 131 246 232 286 151 "},"£":{"ha":772,"x_min":0,"x_max":0,"o":"m 521 439 l 351 439 b 372 357 368 403 372 385 b 211 119 372 276 329 213 b 367 171 299 163 326 171 b 456 156 392 171 401 169 b 543 142 492 146 519 142 b 689 182 589 142 633 154 l 746 31 b 544 -32 668 -15 613 -32 b 407 -10 507 -32 475 -26 b 271 13 339 7 308 13 b 119 -29 218 13 181 3 l 43 111 b 196 321 158 189 196 240 b 167 439 196 356 189 383 l 43 439 l 43 515 l 126 515 b 53 717 64 625 53 654 b 156 925 53 796 92 874 b 383 993 214 969 290 993 b 686 840 528 993 636 939 b 725 672 707 800 718 754 l 542 672 l 540 688 b 492 801 532 751 521 776 b 385 839 464 826 428 839 b 249 714 306 839 249 786 b 286 606 249 685 253 674 b 328 515 313 553 319 535 l 521 515 "},"⁄":{"ha":386,"x_min":0,"x_max":0,"o":"m 544 993 l -43 -28 l -164 -28 l 424 993 "},"¥":{"ha":772,"x_min":0,"x_max":0,"o":"m 690 406 l 493 406 l 493 332 l 690 332 l 690 250 l 493 250 l 493 0 l 299 0 l 299 250 l 97 250 l 97 332 l 299 332 l 299 406 l 97 406 l 97 488 l 289 488 l 7 978 l 200 978 l 393 625 l 579 978 l 767 978 l 500 488 l 690 488 "},"ƒ":{"ha":772,"x_min":0,"x_max":0,"o":"m 694 532 l 504 532 l 422 1 b 328 -239 404 -117 375 -192 b 154 -306 288 -281 224 -306 b 29 -275 110 -306 75 -297 l 63 -115 b 142 -144 96 -136 119 -144 b 233 10 192 -144 215 -106 l 315 532 l 144 532 l 144 667 l 338 667 l 351 749 b 610 1033 385 946 464 1033 b 743 1010 654 1033 683 1028 l 715 850 b 639 872 676 868 663 872 b 533 724 585 872 550 824 l 524 667 l 694 667 "},"§":{"ha":772,"x_min":0,"x_max":0,"o":"m 481 756 b 372 863 471 829 438 863 b 283 793 318 863 283 835 b 408 674 283 753 310 728 l 585 576 b 719 364 678 525 719 458 b 589 172 719 271 682 215 b 686 -14 654 126 686 65 b 383 -279 686 -172 564 -279 b 90 0 190 -279 92 -185 l 272 0 l 272 -14 b 299 -94 275 -58 281 -78 b 385 -125 318 -114 349 -125 b 490 -40 447 -125 490 -90 b 465 22 490 -15 481 7 b 393 68 450 36 450 36 l 156 207 b 46 390 85 249 46 314 b 174 594 46 474 74 518 b 126 646 139 629 135 635 b 89 765 103 676 89 722 b 379 1004 89 904 211 1004 b 621 899 488 1004 578 965 b 657 756 644 861 654 824 m 269 531 b 210 440 228 506 210 481 b 285 343 210 397 226 375 l 489 232 b 553 322 536 265 553 290 b 468 425 553 367 533 390 "},"¤":{"ha":772,"x_min":0,"x_max":0,"o":"m 640 835 l 736 739 l 632 635 b 669 492 661 578 669 544 b 629 342 669 438 657 390 l 736 236 l 640 142 l 536 246 b 397 204 471 211 449 204 b 243 247 342 204 281 221 l 133 139 l 39 235 l 147 342 b 106 489 117 397 106 435 b 146 635 106 542 119 593 l 36 744 l 132 839 l 239 732 b 390 775 282 758 339 775 b 539 733 443 775 499 760 m 389 639 b 239 489 306 639 239 574 b 388 340 239 407 306 340 b 536 490 469 340 536 407 b 389 639 536 571 469 639 "},"'":{"ha":331,"x_min":0,"x_max":0,"o":"m 261 832 l 203 653 l 125 653 l 69 832 l 69 1013 l 261 1013 "},"“":{"ha":694,"x_min":0,"x_max":0,"o":"m 104 651 l 104 803 b 292 1013 99 924 169 1003 l 292 949 b 181 825 214 935 178 894 l 292 825 l 292 651 m 419 651 l 419 803 b 607 1013 414 924 485 1003 l 607 949 b 496 825 529 935 493 894 l 607 825 l 607 651 "},"«":{"ha":772,"x_min":0,"x_max":0,"o":"m 122 461 l 354 668 l 354 506 l 214 382 l 354 258 l 354 100 l 122 303 m 418 461 l 650 668 l 650 506 l 510 382 l 650 258 l 650 100 l 418 303 "},"‹":{"ha":463,"x_min":0,"x_max":0,"o":"m 115 461 l 347 668 l 347 506 l 207 382 l 347 258 l 347 100 l 115 303 "},"›":{"ha":463,"x_min":0,"x_max":0,"o":"m 343 306 l 111 100 l 111 263 l 251 386 l 111 510 l 111 668 l 343 465 "},"ﬁ":{"ha":849,"x_min":0,"x_max":0,"o":"m 435 606 l 319 606 l 319 0 l 125 0 l 125 606 l 19 606 l 19 735 l 125 735 l 125 825 b 317 1013 125 951 188 1013 b 428 1008 346 1013 386 1011 l 428 863 b 372 867 408 865 390 867 b 319 808 336 867 319 847 l 319 735 l 435 735 m 750 0 l 556 0 l 556 750 l 750 750 m 750 839 l 556 839 l 556 1013 l 750 1013 "},"ﬂ":{"ha":849,"x_min":0,"x_max":0,"o":"m 435 606 l 319 606 l 319 0 l 125 0 l 125 606 l 19 606 l 19 735 l 125 735 l 125 825 b 317 1013 125 951 188 1013 b 428 1008 346 1013 386 1011 l 428 863 b 372 867 408 865 390 867 b 319 808 336 867 319 847 l 319 735 l 435 735 m 750 0 l 556 0 l 556 1013 l 750 1013 "},"–":{"ha":772,"x_min":0,"x_max":0,"o":"m 774 288 l -12 288 l -12 432 l 774 432 "},"†":{"ha":772,"x_min":0,"x_max":0,"o":"m 726 513 l 478 513 l 478 -269 l 292 -269 l 292 513 l 43 513 l 43 674 l 292 674 l 292 985 l 478 985 l 478 674 l 726 674 "},"‡":{"ha":772,"x_min":0,"x_max":0,"o":"m 722 513 l 474 513 l 474 203 l 722 203 l 722 42 l 474 42 l 474 -269 l 288 -269 l 288 42 l 39 42 l 39 203 l 288 203 l 288 513 l 39 513 l 39 674 l 288 674 l 288 985 l 474 985 l 474 674 l 722 674 "},"·":{"ha":386,"x_min":0,"x_max":0,"o":"m 261 406 l 261 235 l 89 235 l 89 406 "},"¶":{"ha":772,"x_min":0,"x_max":0,"o":"m 735 913 l 675 913 l 675 -265 l 539 -265 l 539 913 l 451 913 l 451 -265 l 315 -265 l 315 371 b 28 688 146 379 28 508 b 99 903 28 764 53 842 b 314 1013 151 976 224 1013 l 735 1013 "},"•":{"ha":486,"x_min":0,"x_max":0,"o":"m 246 590 b 417 417 339 590 417 513 b 243 243 417 321 339 243 b 69 417 147 243 69 321 b 246 590 69 514 147 590 "},"‚":{"ha":386,"x_min":0,"x_max":0,"o":"m 279 174 l 279 22 b 92 -187 285 -99 214 -176 l 92 -124 b 203 0 169 -110 206 -69 l 92 0 l 92 174 "},"„":{"ha":694,"x_min":0,"x_max":0,"o":"m 288 174 l 288 22 b 100 -187 293 -99 222 -176 l 100 -124 b 211 0 178 -110 214 -69 l 100 0 l 100 174 m 600 174 l 600 22 b 413 -187 606 -99 535 -176 l 413 -124 b 524 0 490 -110 526 -69 l 413 0 l 413 174 "},"”":{"ha":694,"x_min":0,"x_max":0,"o":"m 289 1013 l 289 861 b 101 651 294 740 224 663 l 101 715 b 213 839 179 729 215 769 l 101 839 l 101 1013 m 611 1013 l 611 861 b 424 651 617 740 546 663 l 424 715 b 535 839 501 729 538 769 l 424 839 l 424 1013 "},"»":{"ha":772,"x_min":0,"x_max":0,"o":"m 354 306 l 122 100 l 122 263 l 263 386 l 122 510 l 122 668 l 354 465 m 642 306 l 410 100 l 410 263 l 550 386 l 410 510 l 410 668 l 642 465 "},"…":{"ha":1389,"x_min":0,"x_max":0,"o":"m 336 0 l 128 0 l 128 203 l 336 203 m 799 0 l 590 0 l 590 203 l 799 203 m 1261 0 l 1053 0 l 1053 203 l 1261 203 "},"‰":{"ha":1389,"x_min":0,"x_max":0,"o":"m 222 1026 b 431 818 339 1026 431 935 b 224 615 431 707 336 615 b 15 821 108 615 15 707 b 222 1026 15 935 108 1026 m 222 915 b 125 819 168 915 125 872 b 222 722 125 765 169 722 b 321 818 276 722 321 765 b 222 915 321 872 278 915 m 782 1025 l 197 -29 l 106 -29 l 689 1025 m 654 381 b 863 172 771 381 863 289 b 656 -31 863 61 768 -31 b 447 175 540 -31 447 61 b 654 381 447 288 540 381 m 654 269 b 557 174 601 269 557 226 b 656 76 557 119 601 76 b 753 172 708 76 753 119 b 654 269 753 226 710 269 m 1167 381 b 1375 172 1283 381 1375 289 b 1168 -31 1375 61 1281 -31 b 960 175 1053 -31 960 61 b 1167 381 960 289 1053 381 m 1167 269 b 1069 174 1113 269 1069 226 b 1168 76 1069 119 1114 76 b 1265 172 1221 76 1265 119 b 1167 269 1265 226 1222 269 "},"¿":{"ha":849,"x_min":0,"x_max":0,"o":"m 504 471 b 365 196 508 353 476 290 b 267 40 283 129 267 103 b 413 -119 267 -51 329 -119 b 567 82 508 -119 567 -43 l 756 82 b 690 -160 754 -32 736 -99 b 418 -283 631 -242 538 -283 b 71 36 213 -283 71 -153 b 239 306 71 153 108 214 b 332 471 322 364 332 381 m 310 750 l 518 750 l 518 547 l 310 547 "},"`":{"ha":463,"x_min":0,"x_max":0,"o":"m 199 1051 l 296 843 l 199 843 l 24 1051 "},"´":{"ha":463,"x_min":0,"x_max":0,"o":"m 265 843 l 168 843 l 265 1051 l 440 1051 "},"ˆ":{"ha":463,"x_min":0,"x_max":0,"o":"m 310 1051 l 453 843 l 344 843 l 231 982 l 117 843 l 11 843 l 161 1051 "},"˜":{"ha":463,"x_min":0,"x_max":0,"o":"m 479 1040 b 347 864 474 922 429 864 b 271 881 326 864 300 869 l 172 917 b 131 925 157 922 143 925 b 75 863 97 925 82 907 l -12 863 b 118 1035 -7 971 42 1035 b 196 1017 144 1035 146 1035 l 294 982 b 342 974 304 978 332 974 b 392 1040 371 974 388 996 "},"¯":{"ha":463,"x_min":0,"x_max":0,"o":"m 438 889 l 22 889 l 22 999 l 438 999 "},"˘":{"ha":463,"x_min":0,"x_max":0,"o":"m 415 1024 b 232 840 415 919 336 840 b 49 1025 126 840 49 919 l 49 1039 l 126 1039 b 233 947 135 976 169 947 b 338 1039 294 947 325 975 l 415 1039 "},"˙":{"ha":463,"x_min":0,"x_max":0,"o":"m 308 863 l 156 863 l 156 1032 l 308 1032 "},"¨":{"ha":463,"x_min":0,"x_max":0,"o":"m 178 863 l 25 863 l 25 1032 l 178 1032 m 436 863 l 283 863 l 283 1032 l 436 1032 "},"˚":{"ha":463,"x_min":0,"x_max":0,"o":"m 233 1069 b 357 943 303 1069 357 1015 b 232 819 357 875 300 819 b 107 944 163 819 107 875 b 233 1069 107 1015 163 1069 m 233 1003 b 174 944 200 1003 174 978 b 233 886 174 913 200 886 b 290 944 264 886 290 913 b 233 1003 290 978 265 1003 "},"¸":{"ha":463,"x_min":0,"x_max":0,"o":"m 285 0 l 244 -87 b 303 -78 265 -81 282 -78 b 408 -176 368 -78 408 -115 b 231 -306 408 -260 346 -306 b 38 -267 168 -306 128 -297 l 64 -194 b 208 -236 139 -228 169 -236 b 288 -179 253 -236 288 -211 b 218 -131 288 -150 260 -131 b 150 -147 190 -131 178 -133 l 225 0 "},"˝":{"ha":463,"x_min":0,"x_max":0,"o":"m 36 847 l -61 847 l 36 1051 l 211 1051 m 297 847 l 200 847 l 297 1051 l 472 1051 "},"˛":{"ha":463,"x_min":0,"x_max":0,"o":"m 339 0 b 188 -185 221 -72 188 -114 b 293 -254 188 -232 219 -254 b 372 -246 321 -254 347 -251 l 372 -311 b 263 -325 335 -321 301 -325 b 63 -193 139 -325 63 -274 b 235 0 63 -111 128 -39 "},"ˇ":{"ha":463,"x_min":0,"x_max":0,"o":"m 156 843 l 13 1051 l 121 1051 l 235 917 l 349 1051 l 454 1051 l 304 843 "},"—":{"ha":1389,"x_min":0,"x_max":0,"o":"m 1393 288 l -10 288 l -10 432 l 1393 432 "},"Æ":{"ha":1389,"x_min":0,"x_max":0,"o":"m 288 211 l 214 0 l 1 0 l 367 1013 l 1314 1013 l 1314 839 l 806 839 l 806 610 l 1276 610 l 1276 436 l 806 436 l 806 174 l 1342 174 l 1342 0 l 597 0 l 597 211 m 597 839 l 504 839 l 346 385 l 597 385 "},"ª":{"ha":514,"x_min":0,"x_max":0,"o":"m 446 364 l 51 364 l 51 472 l 446 472 m 457 556 l 329 556 b 315 600 318 569 315 578 b 179 536 275 558 229 536 b 42 672 96 536 42 590 b 175 815 42 754 85 800 l 221 824 b 294 842 279 833 279 833 b 315 875 308 849 315 860 b 247 918 315 903 292 918 b 165 857 192 918 171 903 l 56 857 b 244 1013 58 960 121 1013 b 429 874 367 1013 429 965 l 429 625 b 457 569 429 601 436 589 m 315 768 b 265 754 301 761 296 760 l 225 746 b 158 685 176 736 158 719 b 222 631 158 651 182 631 b 315 736 281 631 315 669 "},"Ł":{"ha":849,"x_min":0,"x_max":0,"o":"m 549 743 l 549 621 l 319 464 l 319 174 l 829 174 l 829 0 l 111 0 l 111 357 l 0 279 l 0 403 l 111 481 l 111 1013 l 319 1013 l 319 588 "},"Ø":{"ha":1081,"x_min":0,"x_max":0,"o":"m 114 -54 l 43 10 l 163 142 b 49 499 86 244 49 363 b 192 889 49 650 100 793 b 539 1029 279 983 393 1029 b 861 913 671 1029 768 994 l 976 1040 l 1049 978 l 925 840 b 1026 496 988 756 1026 625 b 885 108 1026 347 974 203 b 539 -32 796 14 682 -32 b 229 72 413 -32 310 3 m 356 213 b 538 146 399 171 465 146 b 818 501 708 146 818 285 b 788 690 818 568 807 636 m 733 771 b 539 851 682 825 617 851 b 257 494 367 851 257 713 b 297 290 257 418 271 350 "},"Œ":{"ha":1389,"x_min":0,"x_max":0,"o":"m 867 174 l 1347 174 l 1347 0 l 667 0 l 667 82 b 451 -32 599 -4 546 -32 b 39 499 211 -32 39 189 b 457 1029 39 813 210 1029 b 667 940 546 1029 600 1007 l 667 1013 l 1321 1013 l 1321 839 l 867 839 l 867 610 l 1282 610 l 1282 436 l 867 436 m 658 750 b 494 851 618 821 569 851 b 247 499 346 851 247 711 b 494 146 247 286 346 146 b 658 247 569 146 618 176 "},"º":{"ha":507,"x_min":0,"x_max":0,"o":"m 464 364 l 46 364 l 46 472 l 464 472 m 254 1013 b 476 771 394 1013 476 924 b 254 536 476 626 392 536 b 32 774 117 536 32 626 b 254 1013 32 922 115 1013 m 254 918 b 149 775 190 918 149 861 b 254 631 149 689 190 631 b 360 772 317 631 360 689 b 254 918 360 861 318 918 "},"æ":{"ha":1235,"x_min":0,"x_max":0,"o":"m 1181 211 b 833 -32 1138 63 1003 -32 b 556 113 711 -32 614 18 b 271 -33 469 10 383 -33 b 38 196 128 -33 38 56 b 258 433 38 332 108 408 l 336 447 b 458 476 432 463 432 463 b 492 532 479 488 492 510 b 374 606 492 582 453 606 b 242 503 286 606 251 578 l 60 503 b 376 763 63 675 169 763 b 619 693 485 763 567 739 b 835 763 676 739 750 763 b 1161 544 990 763 1110 682 b 1190 347 1179 494 1190 422 b 1189 314 1190 340 1190 331 l 686 314 b 714 185 686 250 693 217 b 844 117 742 142 790 117 b 989 211 911 117 972 156 m 492 353 b 410 326 468 339 451 333 l 343 317 b 232 215 269 307 232 272 b 338 124 232 158 272 124 b 492 300 438 124 492 186 m 988 443 b 836 614 978 556 926 614 b 688 443 747 614 696 556 "},"ı":{"ha":386,"x_min":0,"x_max":0,"o":"m 288 0 l 93 0 l 93 750 l 288 750 "},"ł":{"ha":386,"x_min":0,"x_max":0,"o":"m 350 669 l 350 560 l 272 504 l 272 0 l 78 0 l 78 408 l 0 353 l 0 463 l 78 518 l 78 1013 l 272 1013 l 272 614 "},"ø":{"ha":849,"x_min":0,"x_max":0,"o":"m 75 -53 l 15 3 l 119 110 b 50 365 72 178 50 261 b 424 763 50 613 190 763 b 676 676 525 763 606 735 l 771 774 l 831 717 l 731 615 b 796 365 775 546 796 465 b 425 -32 796 119 654 -32 b 175 49 325 -32 231 -1 m 306 183 b 425 125 339 144 379 125 b 601 361 528 125 601 222 b 585 467 601 399 596 433 m 544 542 b 421 607 507 588 469 607 b 244 369 317 607 244 510 b 264 256 244 326 251 288 "},"œ":{"ha":1311,"x_min":0,"x_max":0,"o":"m 1269 211 b 922 -32 1226 64 1090 -32 b 674 72 821 -32 735 4 b 403 -32 603 3 514 -32 b 32 365 172 -32 32 118 b 403 763 32 613 172 763 b 674 657 515 763 606 728 b 924 763 733 726 818 763 b 1249 544 1078 763 1199 681 b 1278 347 1267 492 1278 422 b 1276 314 1278 338 1278 331 l 774 314 b 803 183 775 250 783 215 b 932 117 828 142 876 117 b 1078 211 1000 117 1060 156 m 403 606 b 226 365 297 606 226 510 b 403 125 226 221 297 125 b 579 363 507 125 579 222 b 403 606 579 510 510 606 m 1075 443 b 1043 551 1069 497 1061 525 b 925 614 1017 590 971 614 b 800 539 872 614 824 585 b 776 443 788 514 781 488 "},"ß":{"ha":849,"x_min":0,"x_max":0,"o":"m 396 617 l 408 617 b 544 740 493 618 544 665 b 408 856 544 813 493 856 b 288 746 332 856 288 815 l 288 0 l 93 0 l 93 719 b 178 943 93 828 118 896 b 421 1013 232 986 325 1013 b 739 760 608 1013 739 908 b 618 571 739 667 697 601 b 728 514 667 561 692 547 b 799 328 779 467 799 414 b 496 -24 799 117 678 -24 b 396 -15 465 -24 442 -21 l 396 140 b 414 142 404 142 411 142 l 442 142 b 604 313 538 144 604 215 b 414 485 604 421 533 485 l 396 485 "},"¹":{"ha":463,"x_min":0,"x_max":0,"o":"m 43 796 l 43 881 b 235 985 151 881 215 915 l 324 985 l 324 394 l 192 394 l 192 796 "},"¬":{"ha":811,"x_min":0,"x_max":0,"o":"m 756 521 l 756 119 l 649 119 l 649 414 l 56 414 l 56 521 "},"µ":{"ha":849,"x_min":0,"x_max":0,"o":"m 81 -306 l 81 750 l 275 750 l 275 286 b 300 179 275 232 281 207 b 392 133 319 150 353 133 b 532 281 474 133 532 194 l 532 750 l 726 750 l 726 208 b 768 107 726 128 735 107 b 796 113 776 107 782 108 l 796 -8 b 699 -32 764 -25 738 -32 b 567 43 633 -32 600 -12 b 406 -32 511 -12 469 -32 b 267 21 347 -32 306 -17 l 267 -306 "},"™":{"ha":1389,"x_min":0,"x_max":0,"o":"m 421 379 l 289 379 l 289 904 l 99 904 l 99 1013 l 606 1013 l 606 904 l 421 904 m 918 379 l 800 864 l 800 379 l 674 379 l 674 1013 l 864 1013 l 983 526 l 1100 1013 l 1290 1013 l 1290 379 l 1164 379 l 1164 864 l 1049 379 "},"Ð":{"ha":1003,"x_min":0,"x_max":0,"o":"m 0 471 l 0 582 l 107 582 l 107 1013 l 503 1013 b 824 896 663 1013 756 978 b 946 507 900 800 946 657 b 824 118 946 357 900 213 b 503 0 757 35 661 0 l 107 0 l 107 471 m 315 174 l 503 174 b 682 249 593 174 646 196 b 746 506 725 310 746 394 b 682 764 746 618 725 703 b 503 839 646 817 593 839 l 315 839 l 315 582 l 524 582 l 524 471 l 315 471 "},"½":{"ha":1158,"x_min":0,"x_max":0,"o":"m 32 796 l 32 881 b 224 985 140 881 204 915 l 313 985 l 313 394 l 181 394 l 181 796 m 913 993 l 325 -28 l 204 -28 l 792 993 m 1149 0 l 718 0 b 863 235 722 113 754 165 b 1019 411 1000 328 1019 349 b 935 500 1019 467 989 500 b 851 401 882 500 851 464 b 854 379 851 399 853 389 l 726 379 b 725 404 725 390 725 400 b 942 603 725 532 803 603 b 1151 417 1076 603 1151 536 b 1010 214 1151 333 1121 290 b 928 154 969 185 936 161 b 889 113 917 144 908 136 l 1149 113 "},"±":{"ha":811,"x_min":0,"x_max":0,"o":"m 732 -22 l 78 -22 l 78 143 l 732 143 m 732 435 l 488 435 l 488 190 l 322 190 l 322 435 l 78 435 l 78 600 l 322 600 l 322 844 l 488 844 l 488 600 l 732 600 "},"Þ":{"ha":926,"x_min":0,"x_max":0,"o":"m 314 0 l 106 0 l 106 1013 l 314 1013 l 314 846 l 553 846 b 793 768 667 846 738 822 b 879 531 851 711 879 633 b 574 194 879 324 761 194 l 314 194 m 508 368 b 671 521 619 368 671 417 b 508 672 671 624 619 672 l 314 672 l 314 368 "},"¼":{"ha":1158,"x_min":0,"x_max":0,"o":"m 32 796 l 32 881 b 224 985 140 881 204 915 l 313 985 l 313 394 l 181 394 l 181 796 m 921 993 l 333 -28 l 213 -28 l 800 993 m 1119 129 l 1056 129 l 1056 0 l 924 0 l 924 129 l 675 129 l 675 232 l 904 590 l 1056 590 l 1056 233 l 1119 233 m 924 461 l 776 233 l 924 233 "},"÷":{"ha":811,"x_min":0,"x_max":0,"o":"m 742 239 l 69 239 l 69 404 l 742 404 m 492 658 l 492 488 l 319 488 l 319 658 m 492 156 l 492 -15 l 319 -15 l 319 156 "},"¦":{"ha":389,"x_min":0,"x_max":0,"o":"m 250 472 l 139 472 l 139 1013 l 250 1013 m 250 -278 l 139 -278 l 139 263 l 250 263 "},"°":{"ha":556,"x_min":0,"x_max":0,"o":"m 278 953 b 488 743 393 953 488 858 b 275 532 488 625 393 532 b 67 743 161 532 67 628 b 278 953 67 858 161 953 m 278 865 b 154 742 210 865 154 810 b 275 619 154 675 210 619 b 400 743 344 619 400 674 b 278 865 400 811 344 865 "},"þ":{"ha":849,"x_min":0,"x_max":0,"o":"m 275 639 b 483 763 322 722 389 763 b 797 364 664 763 797 593 b 483 -32 797 136 664 -32 b 275 89 389 -32 322 7 l 275 -303 l 81 -303 l 81 1013 l 275 1013 m 439 600 b 275 364 340 600 275 506 b 439 131 275 225 340 131 b 603 361 536 131 603 225 b 439 600 603 506 538 600 "},"¾":{"ha":1158,"x_min":0,"x_max":0,"o":"m 190 740 l 204 740 b 310 821 274 740 310 768 b 236 896 310 867 281 896 b 157 793 179 896 158 869 l 33 793 b 74 929 38 863 47 897 b 240 997 108 974 168 997 b 442 835 363 997 442 933 b 369 711 442 783 417 740 b 461 568 431 681 461 633 b 239 376 461 451 374 376 b 25 575 104 376 26 449 l 153 575 b 243 483 156 513 185 483 b 329 567 293 483 329 518 b 265 649 329 607 304 639 b 190 654 253 651 228 654 m 965 993 l 378 -28 l 257 -28 l 844 993 m 1129 129 l 1065 129 l 1065 0 l 933 0 l 933 129 l 685 129 l 685 232 l 914 590 l 1065 590 l 1065 233 l 1129 233 m 933 461 l 786 233 l 933 233 "},"²":{"ha":463,"x_min":0,"x_max":0,"o":"m 440 394 l 10 394 b 154 629 14 507 46 560 b 311 806 290 721 311 743 b 226 894 311 861 279 894 b 143 796 174 894 143 858 b 146 774 143 793 144 783 l 18 774 b 17 799 17 785 17 794 b 233 997 17 926 94 997 b 443 811 368 997 443 931 b 301 608 443 728 413 685 b 219 549 260 578 228 556 b 181 507 208 539 200 531 l 440 507 "},"®":{"ha":1024,"x_min":0,"x_max":0,"o":"m 400 194 l 267 194 l 267 810 l 596 810 b 764 642 701 810 764 747 b 668 492 764 571 735 525 b 746 271 739 458 742 449 b 772 224 746 244 753 235 l 772 194 l 631 194 b 610 307 613 226 610 243 b 611 343 610 315 610 331 l 611 367 b 526 435 611 414 585 435 l 400 435 m 542 547 b 632 622 610 547 632 565 b 542 697 632 679 610 697 l 400 697 l 400 547 m 513 1032 b 1043 501 806 1032 1043 794 b 506 -31 1043 204 806 -31 b -19 501 219 -31 -19 211 b 513 1032 -19 793 219 1032 m 511 932 b 89 501 278 932 89 739 b 507 69 89 265 279 69 b 935 501 746 69 935 260 b 511 932 935 739 744 932 "},"−":{"ha":811,"x_min":0,"x_max":0,"o":"m 756 239 l 56 239 l 56 404 l 756 404 "},"ð":{"ha":849,"x_min":0,"x_max":0,"o":"m 483 917 b 790 374 694 775 790 604 b 706 89 790 251 763 160 b 419 -32 640 11 539 -32 b 49 368 188 -32 49 118 b 206 690 49 521 100 628 b 381 742 260 724 321 742 b 499 715 417 742 444 736 b 367 849 461 775 419 818 l 260 785 l 201 836 l 299 897 b 174 964 261 919 242 931 l 267 1029 b 346 994 301 1017 325 1006 l 388 971 b 408 961 389 969 397 965 l 529 1033 l 600 986 m 419 596 b 244 361 313 596 244 503 b 419 125 244 217 313 125 b 594 357 525 125 594 218 b 419 596 594 504 526 596 "},"×":{"ha":811,"x_min":0,"x_max":0,"o":"m 701 500 l 522 321 l 700 142 l 583 25 l 406 204 l 228 26 l 111 143 l 289 321 l 110 499 l 226 617 l 406 438 l 585 617 "},"³":{"ha":463,"x_min":0,"x_max":0,"o":"m 174 740 l 188 740 b 293 821 257 740 293 768 b 219 896 293 867 264 896 b 140 793 163 896 142 869 l 17 793 b 57 929 21 863 31 897 b 224 997 92 974 151 997 b 425 835 346 997 425 933 b 353 711 425 783 400 740 b 444 568 414 681 444 633 b 222 376 444 451 357 376 b 8 575 88 376 10 449 l 136 575 b 226 483 139 513 168 483 b 313 567 276 483 313 518 b 249 649 313 607 288 639 b 174 654 236 651 211 654 "},"©":{"ha":1024,"x_min":0,"x_max":0,"o":"m 642 599 b 513 707 626 674 586 707 b 354 499 414 707 354 629 b 508 293 354 368 411 293 b 642 413 588 293 635 335 l 769 413 b 506 178 763 267 661 178 b 226 500 333 178 226 301 b 508 822 226 699 335 822 b 725 725 601 822 678 788 b 767 599 751 689 763 656 m 513 1032 b 1043 501 806 1032 1043 794 b 506 -31 1043 204 806 -31 b -19 501 219 -31 -19 211 b 513 1032 -19 793 219 1032 m 511 932 b 89 501 278 932 89 739 b 507 69 89 265 279 69 b 935 501 746 69 935 260 b 511 932 935 739 744 932 "},"Á":{"ha":1003,"x_min":0,"x_max":0,"o":"m 317 204 l 249 0 l 36 0 l 396 1013 l 626 1013 l 976 0 l 763 0 l 696 204 m 507 774 l 375 378 l 639 378 m 533 1092 l 436 1092 l 533 1300 l 708 1300 "},"Â":{"ha":1003,"x_min":0,"x_max":0,"o":"m 317 204 l 249 0 l 36 0 l 396 1013 l 626 1013 l 976 0 l 763 0 l 696 204 m 507 774 l 375 378 l 639 378 m 583 1300 l 726 1092 l 619 1092 l 506 1231 l 392 1092 l 285 1092 l 435 1300 "},"Ä":{"ha":1003,"x_min":0,"x_max":0,"o":"m 317 204 l 249 0 l 36 0 l 396 1013 l 626 1013 l 976 0 l 763 0 l 696 204 m 507 774 l 375 378 l 639 378 m 453 1111 l 300 1111 l 300 1281 l 453 1281 m 711 1111 l 558 1111 l 558 1281 l 711 1281 "},"À":{"ha":1003,"x_min":0,"x_max":0,"o":"m 317 204 l 249 0 l 36 0 l 396 1013 l 626 1013 l 976 0 l 763 0 l 696 204 m 507 774 l 375 378 l 639 378 m 482 1300 l 579 1092 l 482 1092 l 307 1300 "},"Å":{"ha":1003,"x_min":0,"x_max":0,"o":"m 317 204 l 249 0 l 36 0 l 396 1013 l 626 1013 l 976 0 l 763 0 l 696 204 m 507 774 l 375 378 l 639 378 m 508 1318 b 632 1192 578 1318 632 1264 b 507 1068 632 1124 575 1068 b 382 1193 438 1068 382 1124 b 508 1318 382 1264 438 1318 m 508 1251 b 449 1193 475 1251 449 1226 b 508 1135 449 1161 475 1135 b 565 1193 539 1135 565 1161 b 508 1251 565 1226 540 1251 "},"Ã":{"ha":1003,"x_min":0,"x_max":0,"o":"m 317 204 l 249 0 l 36 0 l 396 1013 l 626 1013 l 976 0 l 763 0 l 696 204 m 507 774 l 375 378 l 639 378 m 760 1289 b 628 1113 753 1171 710 1113 b 551 1129 606 1113 581 1118 l 453 1165 b 410 1174 436 1171 424 1174 b 354 1111 378 1174 361 1156 l 268 1111 b 399 1283 272 1219 321 1283 b 475 1265 424 1283 431 1282 l 575 1231 b 622 1222 585 1226 613 1222 b 672 1289 650 1222 667 1244 "},"Ç":{"ha":1003,"x_min":0,"x_max":0,"o":"m 500 -87 b 558 -78 519 -81 536 -78 b 664 -176 624 -78 664 -115 b 486 -306 664 -260 601 -306 b 293 -267 424 -306 383 -297 l 319 -194 b 464 -236 394 -228 425 -236 b 543 -179 508 -236 543 -211 b 474 -131 543 -150 515 -131 b 406 -147 446 -131 432 -135 l 465 -32 b 215 78 336 -10 282 15 b 61 497 114 175 61 318 b 525 1029 61 825 239 1029 b 879 869 676 1029 801 972 b 947 669 922 813 940 757 l 749 669 b 532 851 721 793 653 851 b 269 494 368 851 269 718 b 525 143 269 274 364 143 b 749 346 654 143 735 217 l 951 346 b 526 -32 940 117 779 -26 "},"É":{"ha":926,"x_min":0,"x_max":0,"o":"m 318 174 l 867 174 l 867 0 l 110 0 l 110 1013 l 842 1013 l 842 839 l 318 839 l 318 610 l 803 610 l 803 436 l 318 436 m 492 1092 l 394 1092 l 492 1300 l 667 1300 "},"Ê":{"ha":926,"x_min":0,"x_max":0,"o":"m 318 174 l 867 174 l 867 0 l 110 0 l 110 1013 l 842 1013 l 842 839 l 318 839 l 318 610 l 803 610 l 803 436 l 318 436 m 557 1300 l 700 1092 l 592 1092 l 478 1231 l 364 1092 l 258 1092 l 407 1300 "},"Ë":{"ha":926,"x_min":0,"x_max":0,"o":"m 318 174 l 867 174 l 867 0 l 110 0 l 110 1013 l 842 1013 l 842 839 l 318 839 l 318 610 l 803 610 l 803 436 l 318 436 m 426 1111 l 274 1111 l 274 1281 l 426 1281 m 685 1111 l 532 1111 l 532 1281 l 685 1281 "},"È":{"ha":926,"x_min":0,"x_max":0,"o":"m 318 174 l 867 174 l 867 0 l 110 0 l 110 1013 l 842 1013 l 842 839 l 318 839 l 318 610 l 803 610 l 803 436 l 318 436 m 464 1300 l 561 1092 l 464 1092 l 289 1300 "},"Í":{"ha":386,"x_min":0,"x_max":0,"o":"m 296 0 l 88 0 l 88 1013 l 296 1013 m 228 1092 l 131 1092 l 228 1300 l 403 1300 "},"Î":{"ha":386,"x_min":0,"x_max":0,"o":"m 296 0 l 88 0 l 88 1013 l 296 1013 m 272 1300 l 415 1092 l 307 1092 l 193 1231 l 79 1092 l -26 1092 l 124 1300 "},"Ï":{"ha":386,"x_min":0,"x_max":0,"o":"m 296 0 l 88 0 l 88 1013 l 296 1013 m 140 1111 l -12 1111 l -12 1281 l 140 1281 m 399 1111 l 246 1111 l 246 1281 l 399 1281 "},"Ì":{"ha":386,"x_min":0,"x_max":0,"o":"m 296 0 l 88 0 l 88 1013 l 296 1013 m 161 1300 l 258 1092 l 161 1092 l -14 1300 "},"Ñ":{"ha":1003,"x_min":0,"x_max":0,"o":"m 303 700 l 303 0 l 94 0 l 94 1013 l 308 1013 l 710 324 l 710 1013 l 918 1013 l 918 0 l 710 0 m 761 1289 b 629 1113 756 1171 711 1113 b 554 1129 608 1113 582 1118 l 454 1165 b 413 1174 439 1171 426 1174 b 357 1111 379 1174 364 1156 l 269 1111 b 401 1283 275 1219 324 1283 b 478 1265 426 1283 432 1282 l 578 1231 b 624 1222 588 1226 614 1222 b 675 1289 653 1222 669 1244 "},"Ó":{"ha":1081,"x_min":0,"x_max":0,"o":"m 542 1029 b 889 889 689 1029 800 985 b 1031 492 979 793 1031 650 b 889 108 1031 349 976 201 b 543 -32 801 14 688 -32 b 197 108 399 -32 285 14 b 56 499 107 204 56 347 b 197 889 56 650 107 792 b 542 1029 283 982 400 1029 m 543 851 b 264 499 374 851 264 713 b 543 146 264 285 374 146 b 822 493 710 146 822 285 b 543 851 822 713 714 851 m 561 1092 l 464 1092 l 561 1300 l 736 1300 "},"Ô":{"ha":1081,"x_min":0,"x_max":0,"o":"m 542 1029 b 889 889 689 1029 800 985 b 1031 492 979 793 1031 650 b 889 108 1031 349 976 201 b 543 -32 801 14 688 -32 b 197 108 399 -32 285 14 b 56 499 107 204 56 347 b 197 889 56 650 107 792 b 542 1029 283 982 400 1029 m 543 851 b 264 499 374 851 264 713 b 543 146 264 285 374 146 b 822 493 710 146 822 285 b 543 851 822 713 714 851 m 621 1300 l 764 1092 l 656 1092 l 542 1231 l 428 1092 l 322 1092 l 472 1300 "},"Ö":{"ha":1081,"x_min":0,"x_max":0,"o":"m 542 1029 b 889 889 689 1029 800 985 b 1031 492 979 793 1031 650 b 889 108 1031 349 976 201 b 543 -32 801 14 688 -32 b 197 108 399 -32 285 14 b 56 499 107 204 56 347 b 197 889 56 650 107 792 b 542 1029 283 982 400 1029 m 543 851 b 264 499 374 851 264 713 b 543 146 264 285 374 146 b 822 493 710 146 822 285 b 543 851 822 713 714 851 m 490 1111 l 338 1111 l 338 1281 l 490 1281 m 749 1111 l 596 1111 l 596 1281 l 749 1281 "},"Ò":{"ha":1081,"x_min":0,"x_max":0,"o":"m 542 1029 b 889 889 689 1029 800 985 b 1031 492 979 793 1031 650 b 889 108 1031 349 976 201 b 543 -32 801 14 688 -32 b 197 108 399 -32 285 14 b 56 499 107 204 56 347 b 197 889 56 650 107 792 b 542 1029 283 982 400 1029 m 543 851 b 264 499 374 851 264 713 b 543 146 264 285 374 146 b 822 493 710 146 822 285 b 543 851 822 713 714 851 m 528 1300 l 625 1092 l 528 1092 l 353 1300 "},"Õ":{"ha":1081,"x_min":0,"x_max":0,"o":"m 542 1029 b 889 889 689 1029 800 985 b 1031 492 979 793 1031 650 b 889 108 1031 349 976 201 b 543 -32 801 14 688 -32 b 197 108 399 -32 285 14 b 56 499 107 204 56 347 b 197 889 56 650 107 792 b 542 1029 283 982 400 1029 m 543 851 b 264 499 374 851 264 713 b 543 146 264 285 374 146 b 822 493 710 146 822 285 b 543 851 822 713 714 851 m 799 1289 b 667 1113 792 1171 749 1113 b 590 1129 646 1113 619 1118 l 492 1165 b 450 1174 475 1171 463 1174 b 393 1111 417 1174 400 1156 l 307 1111 b 438 1283 311 1219 360 1283 b 515 1265 463 1283 469 1282 l 614 1231 b 661 1222 624 1226 651 1222 b 711 1289 690 1222 706 1244 "},"Š":{"ha":926,"x_min":0,"x_max":0,"o":"m 649 704 b 436 863 642 807 568 863 b 261 738 328 863 261 814 b 453 606 261 664 304 635 l 611 575 b 879 296 799 539 879 456 b 464 -32 879 89 725 -32 b 44 303 206 -32 57 86 l 247 303 b 475 135 254 194 333 135 b 679 271 601 135 679 186 b 489 418 679 353 628 392 l 347 446 b 63 718 142 485 63 561 b 446 1029 63 915 203 1029 b 843 704 701 1029 842 914 m 379 1092 l 236 1300 l 344 1300 l 458 1165 l 572 1300 l 678 1300 l 529 1092 "},"Ú":{"ha":1003,"x_min":0,"x_max":0,"o":"m 908 1013 l 908 326 b 810 71 908 213 878 132 b 507 -32 736 4 629 -32 b 204 71 385 -32 278 4 b 106 326 136 132 106 213 l 106 1013 l 314 1013 l 314 326 b 507 146 314 204 376 146 b 700 326 638 146 700 204 l 700 1013 m 525 1092 l 428 1092 l 525 1300 l 700 1300 "},"Û":{"ha":1003,"x_min":0,"x_max":0,"o":"m 908 1013 l 908 326 b 810 71 908 213 878 132 b 507 -32 736 4 629 -32 b 204 71 385 -32 278 4 b 106 326 136 132 106 213 l 106 1013 l 314 1013 l 314 326 b 507 146 314 204 376 146 b 700 326 638 146 700 204 l 700 1013 m 585 1300 l 728 1092 l 619 1092 l 506 1231 l 392 1092 l 286 1092 l 436 1300 "},"Ü":{"ha":1003,"x_min":0,"x_max":0,"o":"m 908 1013 l 908 326 b 810 71 908 213 878 132 b 507 -32 736 4 629 -32 b 204 71 385 -32 278 4 b 106 326 136 132 106 213 l 106 1013 l 314 1013 l 314 326 b 507 146 314 204 376 146 b 700 326 638 146 700 204 l 700 1013 m 454 1111 l 301 1111 l 301 1281 l 454 1281 m 713 1111 l 560 1111 l 560 1281 l 713 1281 "},"Ù":{"ha":1003,"x_min":0,"x_max":0,"o":"m 908 1013 l 908 326 b 810 71 908 213 878 132 b 507 -32 736 4 629 -32 b 204 71 385 -32 278 4 b 106 326 136 132 106 213 l 106 1013 l 314 1013 l 314 326 b 507 146 314 204 376 146 b 700 326 638 146 700 204 l 700 1013 m 492 1300 l 589 1092 l 492 1092 l 317 1300 "},"Ý":{"ha":926,"x_min":0,"x_max":0,"o":"m 582 0 l 374 0 l 374 375 l 38 1013 l 269 1013 l 476 565 l 669 1013 l 903 1013 l 582 375 m 492 1092 l 394 1092 l 492 1300 l 667 1300 "},"Ÿ":{"ha":926,"x_min":0,"x_max":0,"o":"m 582 0 l 374 0 l 374 375 l 38 1013 l 269 1013 l 476 565 l 669 1013 l 903 1013 l 582 375 m 422 1111 l 269 1111 l 269 1281 l 422 1281 m 681 1111 l 528 1111 l 528 1281 l 681 1281 "},"Ž":{"ha":849,"x_min":0,"x_max":0,"o":"m 803 839 l 286 174 l 803 174 l 803 0 l 42 0 l 42 174 l 560 839 l 42 839 l 42 1013 l 803 1013 m 349 1092 l 206 1300 l 314 1300 l 428 1165 l 542 1300 l 647 1300 l 499 1092 "},"á":{"ha":772,"x_min":0,"x_max":0,"o":"m 728 0 l 517 0 b 494 75 499 22 494 36 b 267 -32 425 3 350 -32 b 39 193 129 -32 39 58 b 260 429 39 328 111 404 l 338 443 b 460 472 433 458 433 458 b 493 531 481 485 493 506 b 381 606 493 581 456 606 b 243 503 285 606 253 581 l 56 503 b 376 763 68 676 174 763 b 683 532 579 763 683 685 l 683 115 b 728 24 683 78 694 56 m 493 354 b 411 331 471 343 463 340 l 344 318 b 233 215 264 301 233 274 b 339 125 233 160 274 125 b 493 301 438 125 493 189 m 396 843 l 299 843 l 396 1051 l 571 1051 "},"â":{"ha":772,"x_min":0,"x_max":0,"o":"m 728 0 l 517 0 b 494 75 499 22 494 36 b 267 -32 425 3 350 -32 b 39 193 129 -32 39 58 b 260 429 39 328 111 404 l 338 443 b 460 472 433 458 433 458 b 493 531 481 485 493 506 b 381 606 493 581 456 606 b 243 503 285 606 253 581 l 56 503 b 376 763 68 676 174 763 b 683 532 579 763 683 685 l 683 115 b 728 24 683 78 694 56 m 493 354 b 411 331 471 343 463 340 l 344 318 b 233 215 264 301 233 274 b 339 125 233 160 274 125 b 493 301 438 125 493 189 m 456 1051 l 599 843 l 490 843 l 378 982 l 263 843 l 157 843 l 307 1051 "},"ä":{"ha":772,"x_min":0,"x_max":0,"o":"m 728 0 l 517 0 b 494 75 499 22 494 36 b 267 -32 425 3 350 -32 b 39 193 129 -32 39 58 b 260 429 39 328 111 404 l 338 443 b 460 472 433 458 433 458 b 493 531 481 485 493 506 b 381 606 493 581 456 606 b 243 503 285 606 253 581 l 56 503 b 376 763 68 676 174 763 b 683 532 579 763 683 685 l 683 115 b 728 24 683 78 694 56 m 493 354 b 411 331 471 343 463 340 l 344 318 b 233 215 264 301 233 274 b 339 125 233 160 274 125 b 493 301 438 125 493 189 m 325 863 l 172 863 l 172 1032 l 325 1032 m 583 863 l 431 863 l 431 1032 l 583 1032 "},"à":{"ha":772,"x_min":0,"x_max":0,"o":"m 728 0 l 517 0 b 494 75 499 22 494 36 b 267 -32 425 3 350 -32 b 39 193 129 -32 39 58 b 260 429 39 328 111 404 l 338 443 b 460 472 433 458 433 458 b 493 531 481 485 493 506 b 381 606 493 581 456 606 b 243 503 285 606 253 581 l 56 503 b 376 763 68 676 174 763 b 683 532 579 763 683 685 l 683 115 b 728 24 683 78 694 56 m 493 354 b 411 331 471 343 463 340 l 344 318 b 233 215 264 301 233 274 b 339 125 233 160 274 125 b 493 301 438 125 493 189 m 358 1051 l 456 843 l 358 843 l 183 1051 "},"å":{"ha":772,"x_min":0,"x_max":0,"o":"m 728 0 l 517 0 b 494 75 499 22 494 36 b 267 -32 425 3 350 -32 b 39 193 129 -32 39 58 b 260 429 39 328 111 404 l 338 443 b 460 472 433 458 433 458 b 493 531 481 485 493 506 b 381 606 493 581 456 606 b 243 503 285 606 253 581 l 56 503 b 376 763 68 676 174 763 b 683 532 579 763 683 685 l 683 115 b 728 24 683 78 694 56 m 493 354 b 411 331 471 343 463 340 l 344 318 b 233 215 264 301 233 274 b 339 125 233 160 274 125 b 493 301 438 125 493 189 m 379 1069 b 503 943 449 1069 503 1015 b 378 819 503 875 446 819 b 253 944 308 819 253 875 b 379 1069 253 1015 308 1069 m 379 1003 b 319 944 346 1003 319 978 b 379 886 319 913 346 886 b 436 944 410 886 436 913 b 379 1003 436 978 411 1003 "},"ã":{"ha":772,"x_min":0,"x_max":0,"o":"m 728 0 l 517 0 b 494 75 499 22 494 36 b 267 -32 425 3 350 -32 b 39 193 129 -32 39 58 b 260 429 39 328 111 404 l 338 443 b 460 472 433 458 433 458 b 493 531 481 485 493 506 b 381 606 493 581 456 606 b 243 503 285 606 253 581 l 56 503 b 376 763 68 676 174 763 b 683 532 579 763 683 685 l 683 115 b 728 24 683 78 694 56 m 493 354 b 411 331 471 343 463 340 l 344 318 b 233 215 264 301 233 274 b 339 125 233 160 274 125 b 493 301 438 125 493 189 m 624 1040 b 492 864 618 922 574 864 b 417 881 471 864 444 869 l 317 917 b 275 925 301 922 288 925 b 219 863 242 925 226 907 l 132 863 b 264 1035 138 971 186 1035 b 340 1017 289 1035 290 1035 l 440 982 b 486 974 449 978 476 974 b 538 1040 515 974 532 996 "},"ç":{"ha":772,"x_min":0,"x_max":0,"o":"m 381 -87 b 438 -78 399 -81 417 -78 b 544 -176 504 -78 544 -115 b 365 -306 544 -260 481 -306 b 174 -267 303 -306 260 -297 l 200 -194 b 344 -236 269 -226 306 -236 b 424 -179 389 -236 424 -211 b 353 -131 424 -150 396 -131 b 285 -147 326 -131 311 -135 l 344 -29 b 47 360 153 -4 47 132 b 401 763 47 615 176 763 b 725 469 590 763 711 653 l 539 469 b 400 606 517 568 479 606 b 279 542 344 606 301 583 b 242 361 256 497 242 432 b 294 169 242 282 261 210 b 401 125 317 142 358 125 b 539 260 476 125 515 163 l 725 260 b 404 -32 710 86 578 -33 "},"é":{"ha":772,"x_min":0,"x_max":0,"o":"m 225 314 b 253 182 228 243 235 210 b 381 117 281 140 325 117 b 529 211 451 117 506 151 l 721 211 b 374 -32 678 63 542 -32 b 31 356 161 -32 31 115 b 378 763 31 607 163 763 b 700 544 529 763 650 681 b 729 347 718 492 729 422 b 728 314 729 338 729 331 m 526 443 b 375 614 517 554 464 614 b 228 443 289 614 240 558 m 407 843 l 310 843 l 407 1051 l 582 1051 "},"ê":{"ha":772,"x_min":0,"x_max":0,"o":"m 225 314 b 253 182 228 243 235 210 b 381 117 281 140 325 117 b 529 211 451 117 506 151 l 721 211 b 374 -32 678 63 542 -32 b 31 356 161 -32 31 115 b 378 763 31 607 163 763 b 700 544 529 763 650 681 b 729 347 718 492 729 422 b 728 314 729 338 729 331 m 526 443 b 375 614 517 554 464 614 b 228 443 289 614 240 558 m 467 1051 l 610 843 l 501 843 l 389 982 l 274 843 l 168 843 l 318 1051 "},"ë":{"ha":772,"x_min":0,"x_max":0,"o":"m 225 314 b 253 182 228 243 235 210 b 381 117 281 140 325 117 b 529 211 451 117 506 151 l 721 211 b 374 -32 678 63 542 -32 b 31 356 161 -32 31 115 b 378 763 31 607 163 763 b 700 544 529 763 650 681 b 729 347 718 492 729 422 b 728 314 729 338 729 331 m 526 443 b 375 614 517 554 464 614 b 228 443 289 614 240 558 m 336 863 l 183 863 l 183 1032 l 336 1032 m 594 863 l 442 863 l 442 1032 l 594 1032 "},"è":{"ha":772,"x_min":0,"x_max":0,"o":"m 225 314 b 253 182 228 243 235 210 b 381 117 281 140 325 117 b 529 211 451 117 506 151 l 721 211 b 374 -32 678 63 542 -32 b 31 356 161 -32 31 115 b 378 763 31 607 163 763 b 700 544 529 763 650 681 b 729 347 718 492 729 422 b 728 314 729 338 729 331 m 526 443 b 375 614 517 554 464 614 b 228 443 289 614 240 558 m 361 1051 l 457 843 l 361 843 l 185 1051 "},"í":{"ha":386,"x_min":0,"x_max":0,"o":"m 288 0 l 93 0 l 93 750 l 288 750 m 228 843 l 131 843 l 228 1051 l 403 1051 "},"î":{"ha":386,"x_min":0,"x_max":0,"o":"m 288 0 l 93 0 l 93 750 l 288 750 m 272 1051 l 415 843 l 307 843 l 193 982 l 79 843 l -26 843 l 124 1051 "},"ï":{"ha":386,"x_min":0,"x_max":0,"o":"m 288 0 l 93 0 l 93 750 l 288 750 m 140 863 l -12 863 l -12 1032 l 140 1032 m 399 863 l 246 863 l 246 1032 l 399 1032 "},"ì":{"ha":386,"x_min":0,"x_max":0,"o":"m 288 0 l 93 0 l 93 750 l 288 750 m 161 1051 l 258 843 l 161 843 l -14 1051 "},"ñ":{"ha":849,"x_min":0,"x_max":0,"o":"m 282 750 l 282 642 b 507 763 338 726 406 763 b 758 503 668 763 758 669 l 758 0 l 564 0 l 564 463 b 439 597 564 551 522 597 b 282 450 343 597 282 539 l 282 0 l 88 0 l 88 750 m 664 1040 b 532 864 658 922 614 864 b 457 881 511 864 485 869 l 357 917 b 315 925 342 922 328 925 b 260 863 282 925 267 907 l 172 863 b 304 1035 178 971 226 1035 b 381 1017 329 1035 331 1035 l 481 982 b 526 974 489 978 517 974 b 578 1040 556 974 572 996 "},"ó":{"ha":849,"x_min":0,"x_max":0,"o":"m 418 763 b 790 360 653 763 790 614 b 419 -32 790 118 649 -32 b 49 365 189 -32 49 118 b 418 763 49 611 189 763 m 419 606 b 243 365 314 606 243 510 b 419 125 243 221 314 125 b 596 363 524 125 596 222 b 419 606 596 510 526 606 m 438 843 l 340 843 l 438 1051 l 613 1051 "},"ô":{"ha":849,"x_min":0,"x_max":0,"o":"m 418 763 b 790 360 653 763 790 614 b 419 -32 790 118 649 -32 b 49 365 189 -32 49 118 b 418 763 49 611 189 763 m 419 606 b 243 365 314 606 243 510 b 419 125 243 221 314 125 b 596 363 524 125 596 222 b 419 606 596 510 526 606 m 497 1051 l 640 843 l 532 843 l 418 982 l 304 843 l 199 843 l 349 1051 "},"ö":{"ha":849,"x_min":0,"x_max":0,"o":"m 418 763 b 790 360 653 763 790 614 b 419 -32 790 118 649 -32 b 49 365 189 -32 49 118 b 418 763 49 611 189 763 m 419 606 b 243 365 314 606 243 510 b 419 125 243 221 314 125 b 596 363 524 125 596 222 b 419 606 596 510 526 606 m 367 863 l 214 863 l 214 1032 l 367 1032 m 625 863 l 472 863 l 472 1032 l 625 1032 "},"ò":{"ha":849,"x_min":0,"x_max":0,"o":"m 418 763 b 790 360 653 763 790 614 b 419 -32 790 118 649 -32 b 49 365 189 -32 49 118 b 418 763 49 611 189 763 m 419 606 b 243 365 314 606 243 510 b 419 125 243 221 314 125 b 596 363 524 125 596 222 b 419 606 596 510 526 606 m 404 1051 l 501 843 l 404 843 l 229 1051 "},"õ":{"ha":849,"x_min":0,"x_max":0,"o":"m 418 763 b 790 360 653 763 790 614 b 419 -32 790 118 649 -32 b 49 365 189 -32 49 118 b 418 763 49 611 189 763 m 419 606 b 243 365 314 606 243 510 b 419 125 243 221 314 125 b 596 363 524 125 596 222 b 419 606 596 510 526 606 m 669 1040 b 538 864 664 922 621 864 b 463 881 517 864 490 869 l 364 917 b 321 925 347 922 335 925 b 265 863 289 925 272 907 l 178 863 b 310 1035 183 971 232 1035 b 386 1017 335 1035 336 1035 l 486 982 b 533 974 496 978 522 974 b 583 1040 561 974 578 996 "},"š":{"ha":772,"x_min":0,"x_max":0,"o":"m 514 508 b 374 610 513 576 467 610 b 261 540 306 610 261 582 b 329 482 261 510 275 499 l 575 411 b 722 222 674 382 722 319 b 633 35 722 149 689 79 b 394 -32 578 -10 499 -32 b 40 218 167 -32 46 53 l 231 218 b 268 147 239 178 247 163 b 383 121 293 129 332 121 b 528 194 474 121 528 149 b 463 256 528 225 511 240 l 231 328 b 108 390 158 351 135 364 b 67 513 82 419 67 463 b 375 763 67 667 185 763 b 701 508 576 763 699 667 m 313 843 l 169 1051 l 278 1051 l 392 917 l 506 1051 l 611 1051 l 463 843 "},"ú":{"ha":849,"x_min":0,"x_max":0,"o":"m 557 0 l 557 89 b 332 -32 501 4 433 -32 b 81 228 171 -32 81 61 l 81 750 l 275 750 l 275 268 b 400 133 275 178 317 133 b 557 281 496 133 557 192 l 557 750 l 751 750 l 751 0 m 433 843 l 336 843 l 433 1051 l 608 1051 "},"û":{"ha":849,"x_min":0,"x_max":0,"o":"m 557 0 l 557 89 b 332 -32 501 4 433 -32 b 81 228 171 -32 81 61 l 81 750 l 275 750 l 275 268 b 400 133 275 178 317 133 b 557 281 496 133 557 192 l 557 750 l 751 750 l 751 0 m 493 1051 l 636 843 l 529 843 l 415 982 l 301 843 l 194 843 l 344 1051 "},"ü":{"ha":849,"x_min":0,"x_max":0,"o":"m 557 0 l 557 89 b 332 -32 501 4 433 -32 b 81 228 171 -32 81 61 l 81 750 l 275 750 l 275 268 b 400 133 275 178 317 133 b 557 281 496 133 557 192 l 557 750 l 751 750 l 751 0 m 363 863 l 210 863 l 210 1032 l 363 1032 m 621 863 l 468 863 l 468 1032 l 621 1032 "},"ù":{"ha":849,"x_min":0,"x_max":0,"o":"m 557 0 l 557 89 b 332 -32 501 4 433 -32 b 81 228 171 -32 81 61 l 81 750 l 275 750 l 275 268 b 400 133 275 178 317 133 b 557 281 496 133 557 192 l 557 750 l 751 750 l 751 0 m 401 1051 l 499 843 l 401 843 l 226 1051 "},"ý":{"ha":772,"x_min":0,"x_max":0,"o":"m 747 750 l 439 -137 b 329 -281 407 -228 383 -258 b 189 -304 294 -294 239 -304 b 119 -299 165 -304 149 -303 l 119 -153 b 171 -161 143 -158 156 -161 b 292 -31 243 -161 292 -108 l 13 750 l 226 750 l 392 204 l 547 750 m 397 843 l 300 843 l 397 1051 l 572 1051 "},"ÿ":{"ha":772,"x_min":0,"x_max":0,"o":"m 747 750 l 439 -137 b 329 -281 407 -228 383 -258 b 189 -304 294 -294 239 -304 b 119 -299 165 -304 149 -303 l 119 -153 b 171 -161 143 -158 156 -161 b 292 -31 243 -161 292 -108 l 13 750 l 226 750 l 392 204 l 547 750 m 326 863 l 174 863 l 174 1032 l 326 1032 m 585 863 l 432 863 l 432 1032 l 585 1032 "},"ž":{"ha":694,"x_min":0,"x_max":0,"o":"m 638 593 l 269 157 l 650 157 l 650 0 l 29 0 l 29 157 l 400 593 l 54 593 l 54 750 l 638 750 m 271 843 l 128 1051 l 236 1051 l 350 917 l 464 1051 l 569 1051 l 421 843 "},"ⁿ":{"ha":550,"x_min":0,"x_max":0,"o":"m 194 814 l 194 758 b 333 825 231 806 272 825 b 476 757 394 825 450 799 b 499 646 493 732 499 701 l 499 371 l 363 371 l 363 636 b 290 718 363 693 340 718 b 194 596 224 718 194 681 l 194 371 l 58 371 l 58 814 "},"ﬀ":{"ha":925,"x_min":0,"x_max":0,"o":"m 435 606 l 319 606 l 319 0 l 125 0 l 125 606 l 19 606 l 19 735 l 125 735 l 125 825 b 317 1013 125 951 188 1013 b 428 1008 346 1013 386 1011 l 428 863 b 372 867 408 865 390 867 b 319 808 336 867 319 847 l 319 735 l 435 735 m 897 606 l 782 606 l 782 0 l 588 0 l 588 606 l 482 606 l 482 735 l 588 735 l 588 825 b 779 1013 588 951 650 1013 b 890 1008 808 1013 849 1011 l 890 863 b 835 867 871 865 853 867 b 782 808 799 867 782 847 l 782 735 l 897 735 "},"ﬃ":{"ha":1310,"x_min":0,"x_max":0,"o":"m 435 606 l 319 606 l 319 0 l 125 0 l 125 606 l 19 606 l 19 735 l 125 735 l 125 825 b 317 1013 125 951 188 1013 b 428 1008 346 1013 386 1011 l 428 863 b 372 867 408 865 390 867 b 319 808 336 867 319 847 l 319 735 l 435 735 m 897 606 l 782 606 l 782 0 l 588 0 l 588 606 l 482 606 l 482 735 l 588 735 l 588 825 b 779 1013 588 951 650 1013 b 890 1008 808 1013 849 1011 l 890 863 b 835 867 871 865 853 867 b 782 808 799 867 782 847 l 782 735 l 897 735 m 1213 0 l 1018 0 l 1018 750 l 1213 750 m 1213 839 l 1018 839 l 1018 1013 l 1213 1013 "},"ﬄ":{"ha":1310,"x_min":0,"x_max":0,"o":"m 435 606 l 319 606 l 319 0 l 125 0 l 125 606 l 19 606 l 19 735 l 125 735 l 125 825 b 317 1013 125 951 188 1013 b 428 1008 346 1013 386 1011 l 428 863 b 372 867 408 865 390 867 b 319 808 336 867 319 847 l 319 735 l 435 735 m 897 606 l 782 606 l 782 0 l 588 0 l 588 606 l 482 606 l 482 735 l 588 735 l 588 825 b 779 1013 588 951 650 1013 b 890 1008 808 1013 849 1011 l 890 863 b 835 867 871 865 853 867 b 782 808 799 867 782 847 l 782 735 l 897 735 m 1213 0 l 1018 0 l 1018 1013 l 1213 1013 "},"⅛":{"ha":1158,"x_min":0,"x_max":0,"o":"m 904 993 l 317 -28 l 196 -28 l 783 993 m 25 796 l 25 881 b 217 985 133 881 197 915 l 306 985 l 306 394 l 174 394 l 174 796 m 1032 322 b 1129 171 1100 285 1129 240 b 919 -19 1129 58 1043 -19 b 710 171 796 -19 710 58 b 807 322 710 240 739 285 b 729 443 753 350 729 386 b 919 603 729 535 810 603 b 1110 443 1029 603 1110 535 b 1032 322 1110 385 1088 351 m 921 508 b 832 432 868 508 832 478 b 921 354 832 386 868 354 b 1008 432 972 354 1008 386 b 921 508 1008 478 972 508 m 919 275 b 826 176 863 275 826 236 b 919 81 826 118 863 81 b 1013 175 976 81 1013 118 b 919 275 1013 238 976 275 "},"⅜":{"ha":1158,"x_min":0,"x_max":0,"o":"m 950 993 l 363 -28 l 242 -28 l 829 993 m 1042 322 b 1139 171 1110 285 1139 240 b 929 -19 1139 58 1053 -19 b 719 171 806 -19 719 58 b 817 322 719 240 749 285 b 739 443 763 350 739 386 b 929 603 739 535 819 603 b 1119 443 1039 603 1119 535 b 1042 322 1119 385 1097 351 m 929 508 b 842 432 878 508 842 478 b 929 354 842 386 878 354 b 1018 432 982 354 1018 386 b 929 508 1018 478 982 508 m 929 275 b 836 176 872 275 836 236 b 929 81 836 118 872 81 b 1022 175 986 81 1022 118 b 929 275 1022 238 986 275 m 197 740 l 211 740 b 317 821 281 740 317 768 b 243 896 317 867 288 896 b 164 793 186 896 165 869 l 40 793 b 81 929 44 863 54 897 b 247 997 115 974 175 997 b 449 835 369 997 449 933 b 376 711 449 783 424 740 b 468 568 438 681 468 633 b 246 376 468 451 381 376 b 32 575 111 376 33 449 l 160 575 b 250 483 163 513 192 483 b 336 567 300 483 336 518 b 272 649 336 607 311 639 b 197 654 260 651 235 654 "},"⅝":{"ha":1158,"x_min":0,"x_max":0,"o":"m 932 993 l 344 -28 l 224 -28 l 811 993 m 1042 322 b 1139 171 1110 285 1139 240 b 929 -19 1139 58 1053 -19 b 719 171 806 -19 719 58 b 817 322 719 240 749 285 b 740 443 763 350 740 386 b 931 603 740 535 821 603 b 1119 443 1039 603 1119 535 b 1042 322 1119 385 1097 351 m 931 508 b 843 432 879 508 843 476 b 929 354 843 388 879 354 b 1018 432 982 354 1018 386 b 931 508 1018 476 982 508 m 929 275 b 836 176 872 275 836 236 b 929 81 836 118 872 81 b 1022 175 986 81 1022 118 b 929 275 1022 238 986 275 m 413 904 l 168 904 l 150 781 b 251 817 183 807 213 817 b 436 613 361 817 436 733 b 222 397 436 485 350 397 b 28 571 107 397 26 469 l 142 571 b 225 497 144 522 174 497 b 319 610 283 497 319 540 b 224 725 319 682 285 725 b 150 679 189 725 163 708 l 44 679 l 97 1008 l 413 1008 "},"⅞":{"ha":1158,"x_min":0,"x_max":0,"o":"m 892 993 l 304 -28 l 183 -28 l 771 993 m 1019 322 b 1117 171 1088 285 1117 240 b 907 -19 1117 58 1031 -19 b 697 171 783 -19 697 58 b 794 322 697 240 726 285 b 717 443 740 350 717 386 b 907 603 717 535 797 603 b 1097 443 1017 603 1097 535 b 1019 322 1097 385 1075 351 m 908 508 b 819 432 856 508 819 478 b 907 354 819 386 856 354 b 996 432 960 354 996 386 b 908 508 996 478 960 508 m 907 275 b 814 176 850 275 814 236 b 907 81 814 118 850 81 b 1000 175 964 81 1000 118 b 907 275 1000 238 964 275 m 489 917 b 278 417 350 747 289 604 l 160 417 b 367 904 185 619 239 747 l 74 904 l 74 1008 l 489 1008 "},"⁰":{"ha":463,"x_min":0,"x_max":0,"o":"m 226 997 b 400 908 301 997 363 967 b 444 682 431 863 444 792 b 390 451 444 571 428 497 b 226 375 351 401 294 375 b 53 463 153 375 92 407 b 8 686 24 508 8 581 b 63 921 8 800 25 875 b 226 997 100 971 158 997 m 226 894 b 140 686 163 894 140 842 b 226 482 140 533 163 482 b 313 685 290 482 313 533 b 226 894 313 842 290 894 "},"⁴":{"ha":463,"x_min":0,"x_max":0,"o":"m 449 524 l 385 524 l 385 394 l 253 394 l 253 524 l 4 524 l 4 626 l 233 985 l 385 985 l 385 628 l 449 628 m 253 856 l 106 628 l 253 628 "},"⁵":{"ha":463,"x_min":0,"x_max":0,"o":"m 422 874 l 165 874 l 147 767 b 250 797 190 792 211 797 b 447 592 367 797 447 714 b 218 376 447 464 354 376 b 10 556 93 376 7 450 l 139 556 b 221 483 140 508 168 483 b 315 589 279 483 315 524 b 219 697 315 657 281 697 b 144 653 183 697 157 682 l 25 653 l 82 985 l 422 985 "},"⁶":{"ha":463,"x_min":0,"x_max":0,"o":"m 315 843 b 242 894 299 882 281 894 b 157 835 201 894 174 875 b 144 746 149 815 146 794 b 260 786 179 774 215 786 b 447 593 372 786 447 708 b 235 375 447 464 361 375 b 57 463 160 375 93 407 b 11 674 25 511 11 576 b 246 997 11 885 92 997 b 406 929 314 997 374 972 b 438 843 422 907 431 885 m 232 686 b 142 582 178 686 142 644 b 231 482 142 524 178 482 b 321 585 283 482 321 525 b 232 686 321 647 286 686 "},"⁷":{"ha":463,"x_min":0,"x_max":0,"o":"m 454 889 b 232 394 306 721 243 582 l 99 394 b 311 874 125 597 176 714 l 8 874 l 8 985 l 454 985 "},"⁸":{"ha":463,"x_min":0,"x_max":0,"o":"m 356 715 b 451 567 425 676 451 635 b 228 375 451 453 361 375 b 3 567 93 375 3 453 b 99 715 3 635 31 678 b 24 836 43 756 24 786 b 228 997 24 929 111 997 b 431 836 343 997 431 929 b 356 715 431 788 413 757 m 228 894 b 140 824 176 894 140 865 b 229 751 140 781 176 751 b 315 824 279 751 315 782 b 228 894 315 865 281 894 m 226 664 b 135 572 171 664 135 628 b 226 482 135 517 171 482 b 319 571 283 482 319 517 b 226 664 319 628 285 664 "},"⁹":{"ha":463,"x_min":0,"x_max":0,"o":"m 144 539 b 215 482 146 503 172 482 b 313 626 278 482 313 533 b 200 582 279 594 247 582 b 8 788 86 582 8 665 b 222 997 8 913 96 997 b 401 900 299 997 361 964 b 444 703 431 854 444 789 b 213 375 444 488 364 375 b 17 539 100 375 18 443 m 219 894 b 135 789 167 894 135 854 b 219 686 135 725 167 686 b 310 788 274 686 310 726 b 219 894 310 854 275 894 "},"Ĳ":{"ha":1090,"x_min":0,"x_max":0,"o":"m 297 0 l 89 0 l 89 1013 l 297 1013 m 1007 1013 l 1007 264 b 682 -32 1007 75 889 -32 b 450 49 586 -32 508 -4 b 365 275 390 104 365 169 l 365 375 l 574 375 l 574 278 b 686 146 574 185 607 146 b 799 264 758 146 799 188 l 799 1013 "},"Ă":{"ha":1003,"x_min":0,"x_max":0,"o":"m 317 204 l 249 0 l 36 0 l 396 1013 l 626 1013 l 976 0 l 763 0 l 696 204 m 507 774 l 375 378 l 639 378 m 685 1288 b 686 1272 686 1281 686 1275 b 503 1089 686 1168 607 1089 b 319 1288 392 1089 322 1164 l 396 1288 b 503 1196 406 1225 440 1196 b 608 1288 565 1196 596 1222 "},"Ą":{"ha":1003,"x_min":0,"x_max":0,"o":"m 317 204 l 249 0 l 36 0 l 396 1013 l 626 1013 l 976 0 b 819 -179 881 -42 819 -111 b 924 -253 819 -231 851 -253 b 1004 -246 951 -253 978 -250 l 1004 -311 b 900 -324 967 -319 938 -324 b 694 -192 768 -324 694 -276 b 867 0 694 -110 758 -39 l 763 0 l 696 204 m 507 774 l 375 378 l 639 378 "},"Ć":{"ha":1003,"x_min":0,"x_max":0,"o":"m 749 669 b 532 851 721 793 653 851 b 269 494 368 851 269 718 b 525 143 269 274 364 143 b 749 346 654 143 735 217 l 951 346 b 519 -32 939 114 772 -32 b 61 497 238 -32 61 171 b 525 1029 61 825 239 1029 b 879 869 676 1029 801 972 b 947 669 922 813 940 757 m 533 1092 l 436 1092 l 533 1300 l 708 1300 "},"Č":{"ha":1003,"x_min":0,"x_max":0,"o":"m 749 669 b 532 851 721 793 653 851 b 269 494 368 851 269 718 b 525 143 269 274 364 143 b 749 346 654 143 735 217 l 951 346 b 519 -32 939 114 772 -32 b 61 497 238 -32 61 171 b 525 1029 61 825 239 1029 b 879 869 676 1029 801 972 b 947 669 922 813 940 757 m 444 1092 l 301 1300 l 410 1300 l 522 1165 l 638 1300 l 743 1300 l 593 1092 "},"Ċ":{"ha":1003,"x_min":0,"x_max":0,"o":"m 749 669 b 532 851 721 793 653 851 b 269 494 368 851 269 718 b 525 143 269 274 364 143 b 749 346 654 143 735 217 l 951 346 b 519 -32 939 114 772 -32 b 61 497 238 -32 61 171 b 525 1029 61 825 239 1029 b 879 869 676 1029 801 972 b 947 669 922 813 940 757 m 583 1111 l 431 1111 l 431 1281 l 583 1281 "},"Ď":{"ha":1003,"x_min":0,"x_max":0,"o":"m 107 1013 l 503 1013 b 824 896 658 1013 754 978 b 946 507 903 800 946 664 b 824 118 946 349 903 213 b 503 0 754 36 657 0 l 107 0 m 503 174 b 738 506 660 174 738 283 b 503 839 738 729 660 839 l 315 839 l 315 174 m 393 1092 l 250 1300 l 358 1300 l 472 1165 l 586 1300 l 692 1300 l 543 1092 "},"Đ":{"ha":1003,"x_min":0,"x_max":0,"o":"m 0 471 l 0 582 l 107 582 l 107 1013 l 503 1013 b 824 896 663 1013 756 978 b 946 507 900 800 946 657 b 824 118 946 357 900 213 b 503 0 757 35 661 0 l 107 0 l 107 471 m 315 174 l 503 174 b 682 249 593 174 646 196 b 746 506 725 310 746 394 b 682 764 746 618 725 703 b 503 839 646 817 593 839 l 315 839 l 315 582 l 524 582 l 524 471 l 315 471 "},"Ě":{"ha":926,"x_min":0,"x_max":0,"o":"m 318 174 l 867 174 l 867 0 l 110 0 l 110 1013 l 842 1013 l 842 839 l 318 839 l 318 610 l 803 610 l 803 436 l 318 436 m 401 1092 l 258 1300 l 367 1300 l 481 1165 l 594 1300 l 700 1300 l 550 1092 "},"Ė":{"ha":926,"x_min":0,"x_max":0,"o":"m 318 174 l 867 174 l 867 0 l 110 0 l 110 1013 l 842 1013 l 842 839 l 318 839 l 318 610 l 803 610 l 803 436 l 318 436 m 556 1111 l 403 1111 l 403 1281 l 556 1281 "},"Ę":{"ha":926,"x_min":0,"x_max":0,"o":"m 318 174 l 867 174 l 867 0 b 717 -179 768 -54 717 -114 b 821 -253 717 -229 750 -253 b 900 -246 849 -253 875 -250 l 900 -311 b 797 -324 863 -321 836 -324 b 590 -192 665 -324 590 -275 b 764 0 590 -114 644 -54 l 110 0 l 110 1013 l 842 1013 l 842 839 l 318 839 l 318 610 l 803 610 l 803 436 l 318 436 "},"Ğ":{"ha":1081,"x_min":0,"x_max":0,"o":"m 988 -3 l 863 -3 l 838 131 b 532 -32 760 17 668 -32 b 58 499 258 -32 58 192 b 549 1029 58 814 257 1029 b 988 689 793 1029 963 899 l 792 689 b 729 790 774 742 758 765 b 550 851 683 831 622 851 b 267 501 372 851 267 719 b 556 146 267 293 386 146 b 763 243 635 146 713 182 b 813 371 793 279 807 314 l 582 371 l 582 544 l 988 544 m 736 1272 b 553 1089 736 1168 657 1089 b 369 1274 447 1089 369 1168 l 369 1288 l 447 1288 b 553 1196 456 1225 490 1196 b 658 1288 615 1196 646 1222 l 736 1288 "},"Ġ":{"ha":1081,"x_min":0,"x_max":0,"o":"m 988 -3 l 863 -3 l 838 131 b 532 -32 760 17 668 -32 b 58 499 258 -32 58 192 b 549 1029 58 814 257 1029 b 988 689 793 1029 963 899 l 792 689 b 729 790 774 742 758 765 b 550 851 683 831 622 851 b 267 501 372 851 267 719 b 556 146 267 293 386 146 b 763 243 635 146 713 182 b 813 371 793 279 807 314 l 582 371 l 582 544 l 988 544 m 600 1111 l 447 1111 l 447 1281 l 600 1281 "},"İ":{"ha":386,"x_min":0,"x_max":0,"o":"m 296 0 l 88 0 l 88 1013 l 296 1013 m 268 1111 l 115 1111 l 115 1281 l 268 1281 "},"Ĺ":{"ha":849,"x_min":0,"x_max":0,"o":"m 319 174 l 804 174 l 804 0 l 111 0 l 111 1013 l 319 1013 m 239 1092 l 142 1092 l 239 1300 l 414 1300 "},"Ľ":{"ha":849,"x_min":0,"x_max":0,"o":"m 319 174 l 804 174 l 804 0 l 111 0 l 111 1013 l 319 1013 m 628 1013 l 628 869 b 458 669 632 761 556 672 l 458 733 b 551 857 522 746 553 788 l 458 857 l 458 1013 "},"Ń":{"ha":1003,"x_min":0,"x_max":0,"o":"m 303 700 l 303 0 l 94 0 l 94 1013 l 308 1013 l 710 324 l 710 1013 l 918 1013 l 918 0 l 710 0 m 519 1092 l 422 1092 l 519 1300 l 694 1300 "},"Ň":{"ha":1003,"x_min":0,"x_max":0,"o":"m 303 700 l 303 0 l 94 0 l 94 1013 l 308 1013 l 710 324 l 710 1013 l 918 1013 l 918 0 l 710 0 m 431 1092 l 288 1300 l 396 1300 l 508 1165 l 624 1300 l 729 1300 l 579 1092 "},"Ő":{"ha":1081,"x_min":0,"x_max":0,"o":"m 542 1029 b 889 889 689 1029 800 985 b 1031 492 979 793 1031 650 b 889 108 1031 349 976 201 b 543 -32 801 14 688 -32 b 197 108 399 -32 285 14 b 56 499 107 204 56 347 b 197 889 56 650 107 792 b 542 1029 283 982 400 1029 m 543 851 b 264 499 374 851 264 713 b 543 146 264 285 374 146 b 822 493 710 146 822 285 b 543 851 822 713 714 851 m 465 1096 l 368 1096 l 465 1300 l 640 1300 m 726 1096 l 629 1096 l 726 1300 l 901 1300 "},"Ŕ":{"ha":1003,"x_min":0,"x_max":0,"o":"m 319 0 l 111 0 l 111 1013 l 654 1013 b 850 943 740 1013 804 990 b 926 739 899 893 926 819 b 756 489 926 615 869 533 b 896 121 885 433 890 419 b 940 38 896 76 908 56 l 940 0 l 717 0 b 686 174 692 49 686 78 b 688 240 686 189 686 214 l 688 282 b 558 401 688 365 649 401 l 319 401 m 571 575 b 681 601 631 575 657 582 b 718 710 706 622 718 661 b 681 813 718 757 706 792 b 571 839 654 833 631 839 l 319 839 l 319 575 m 510 1092 l 414 1092 l 510 1300 l 686 1300 "},"Ř":{"ha":1003,"x_min":0,"x_max":0,"o":"m 319 0 l 111 0 l 111 1013 l 654 1013 b 850 943 740 1013 804 990 b 926 739 899 893 926 819 b 756 489 926 615 869 533 b 896 121 885 433 890 419 b 940 38 896 76 908 56 l 940 0 l 717 0 b 686 174 692 49 686 78 b 688 240 686 189 686 214 l 688 282 b 558 401 688 365 649 401 l 319 401 m 571 575 b 681 601 631 575 657 582 b 718 710 706 622 718 661 b 681 813 718 757 706 792 b 571 839 654 833 631 839 l 319 839 l 319 575 m 421 1092 l 278 1300 l 386 1300 l 500 1165 l 614 1300 l 719 1300 l 571 1092 "},"Ś":{"ha":926,"x_min":0,"x_max":0,"o":"m 649 704 b 436 863 642 807 568 863 b 261 738 328 863 261 814 b 453 606 261 664 304 635 l 611 575 b 879 296 799 539 879 456 b 464 -32 879 89 725 -32 b 44 303 206 -32 57 86 l 247 303 b 475 135 254 194 333 135 b 679 271 601 135 679 186 b 489 418 679 353 628 392 l 347 446 b 63 718 142 485 63 561 b 446 1029 63 915 203 1029 b 843 704 701 1029 842 914 m 472 1092 l 375 1092 l 472 1300 l 647 1300 "},"Ş":{"ha":926,"x_min":0,"x_max":0,"o":"m 449 -86 b 506 -78 469 -81 485 -78 b 613 -176 572 -78 613 -114 b 435 -306 613 -260 549 -306 b 242 -267 372 -306 326 -296 l 268 -194 b 413 -236 339 -226 374 -236 b 492 -179 457 -236 492 -211 b 422 -131 492 -150 464 -131 b 354 -147 394 -131 381 -133 l 413 -32 b 44 303 175 -7 58 100 l 247 303 b 475 135 254 194 333 135 b 679 271 601 135 679 186 b 489 418 679 353 628 392 l 347 446 b 63 718 142 485 63 561 b 446 1029 63 915 203 1029 b 843 704 701 1029 842 914 l 649 704 b 436 863 642 807 568 863 b 261 738 328 863 261 814 b 453 606 261 664 304 635 l 611 575 b 879 297 799 539 879 456 b 472 -32 879 90 743 -19 "},"Ť":{"ha":849,"x_min":0,"x_max":0,"o":"m 535 0 l 326 0 l 326 839 l 19 839 l 19 1013 l 831 1013 l 831 839 l 535 839 m 353 1092 l 210 1300 l 318 1300 l 432 1165 l 546 1300 l 651 1300 l 503 1092 "},"Ů":{"ha":1003,"x_min":0,"x_max":0,"o":"m 908 1013 l 908 326 b 810 71 908 213 878 132 b 507 -32 736 4 629 -32 b 204 71 385 -32 278 4 b 106 326 136 132 106 213 l 106 1013 l 314 1013 l 314 326 b 507 146 314 204 376 146 b 700 326 638 146 700 204 l 700 1013 m 508 1318 b 632 1192 578 1318 632 1264 b 507 1068 632 1124 575 1068 b 382 1193 438 1068 382 1124 b 508 1318 382 1264 438 1318 m 508 1251 b 449 1193 475 1251 449 1226 b 508 1135 449 1161 475 1135 b 565 1193 539 1135 565 1161 b 508 1251 565 1226 540 1251 "},"Ű":{"ha":1003,"x_min":0,"x_max":0,"o":"m 908 1013 l 908 326 b 810 71 908 213 878 132 b 507 -32 736 4 629 -32 b 204 71 385 -32 278 4 b 106 326 136 132 106 213 l 106 1013 l 314 1013 l 314 326 b 507 146 314 204 376 146 b 700 326 638 146 700 204 l 700 1013 m 426 1096 l 329 1096 l 426 1300 l 601 1300 m 688 1096 l 590 1096 l 688 1300 l 863 1300 "},"Ź":{"ha":849,"x_min":0,"x_max":0,"o":"m 803 839 l 286 174 l 803 174 l 803 0 l 42 0 l 42 174 l 560 839 l 42 839 l 42 1013 l 803 1013 m 438 1092 l 340 1092 l 438 1300 l 613 1300 "},"Ż":{"ha":849,"x_min":0,"x_max":0,"o":"m 803 839 l 286 174 l 803 174 l 803 0 l 42 0 l 42 174 l 560 839 l 42 839 l 42 1013 l 803 1013 m 503 1111 l 350 1111 l 350 1281 l 503 1281 "},"Ā":{"ha":1003,"x_min":0,"x_max":0,"o":"m 317 204 l 249 0 l 36 0 l 396 1013 l 626 1013 l 976 0 l 763 0 l 696 204 m 507 774 l 375 378 l 639 378 m 714 1138 l 299 1138 l 299 1247 l 714 1247 "},"Ţ":{"ha":849,"x_min":0,"x_max":0,"o":"m 535 0 l 326 0 l 326 839 l 19 839 l 19 1013 l 831 1013 l 831 839 l 535 839 m 519 -83 l 519 -226 b 350 -426 524 -335 447 -424 l 350 -362 b 443 -239 414 -350 444 -308 l 350 -239 l 350 -83 "},"Ț":{"ha":849,"x_min":0,"x_max":0,"o":"m 535 0 l 326 0 l 326 839 l 19 839 l 19 1013 l 831 1013 l 831 839 l 535 839 m 519 -83 l 519 -226 b 350 -426 524 -335 447 -424 l 350 -362 b 443 -239 414 -350 444 -308 l 350 -239 l 350 -83 "},"Ĉ":{"ha":1003,"x_min":0,"x_max":0,"o":"m 749 669 b 532 851 721 793 653 851 b 269 494 368 851 269 718 b 525 143 269 274 364 143 b 749 346 654 143 735 217 l 951 346 b 519 -32 939 114 772 -32 b 61 497 238 -32 61 171 b 525 1029 61 825 239 1029 b 879 869 676 1029 801 972 b 947 669 922 813 940 757 m 593 1300 l 736 1092 l 628 1092 l 514 1231 l 400 1092 l 294 1092 l 443 1300 "},"Ŵ":{"ha":1311,"x_min":0,"x_max":0,"o":"m 826 0 l 657 790 l 492 0 l 304 0 l 18 1013 l 239 1013 l 396 254 l 553 1013 l 758 1013 l 922 253 l 1074 1013 l 1294 1013 l 1014 0 m 735 1300 l 878 1092 l 769 1092 l 656 1231 l 542 1092 l 436 1092 l 585 1300 "},"Ẅ":{"ha":1311,"x_min":0,"x_max":0,"o":"m 826 0 l 657 790 l 492 0 l 304 0 l 18 1013 l 239 1013 l 396 254 l 553 1013 l 758 1013 l 922 253 l 1074 1013 l 1294 1013 l 1014 0 m 603 1111 l 450 1111 l 450 1281 l 603 1281 m 861 1111 l 708 1111 l 708 1281 l 861 1281 "},"Ŷ":{"ha":926,"x_min":0,"x_max":0,"o":"m 582 0 l 374 0 l 374 375 l 38 1013 l 269 1013 l 476 565 l 669 1013 l 903 1013 l 582 375 m 542 1300 l 685 1092 l 576 1092 l 463 1231 l 349 1092 l 243 1092 l 393 1300 "},"Ħ":{"ha":1003,"x_min":0,"x_max":0,"o":"m 303 460 l 303 0 l 94 0 l 94 746 l 1 746 l 1 857 l 94 857 l 94 1013 l 303 1013 l 303 857 l 704 857 l 704 1013 l 913 1013 l 913 857 l 1006 857 l 1006 746 l 913 746 l 913 0 l 704 0 l 704 460 m 704 746 l 303 746 l 303 633 l 704 633 "},"Ē":{"ha":926,"x_min":0,"x_max":0,"o":"m 318 174 l 867 174 l 867 0 l 110 0 l 110 1013 l 842 1013 l 842 839 l 318 839 l 318 610 l 803 610 l 803 436 l 318 436 m 686 1138 l 271 1138 l 271 1247 l 686 1247 "},"Ĝ":{"ha":1081,"x_min":0,"x_max":0,"o":"m 988 -3 l 863 -3 l 838 131 b 532 -32 760 17 668 -32 b 58 499 258 -32 58 192 b 549 1029 58 814 257 1029 b 988 689 793 1029 963 899 l 792 689 b 729 790 774 742 758 765 b 550 851 683 831 622 851 b 267 501 372 851 267 719 b 556 146 267 293 386 146 b 763 243 635 146 713 182 b 813 371 793 279 807 314 l 582 371 l 582 544 l 988 544 m 619 1300 l 763 1092 l 654 1092 l 540 1231 l 426 1092 l 321 1092 l 469 1300 "},"Ĥ":{"ha":1003,"x_min":0,"x_max":0,"o":"m 303 460 l 303 0 l 94 0 l 94 1013 l 303 1013 l 303 633 l 703 633 l 703 1013 l 913 1013 l 913 0 l 704 0 l 704 460 m 581 1300 l 724 1092 l 615 1092 l 501 1231 l 388 1092 l 282 1092 l 431 1300 "},"Ī":{"ha":386,"x_min":0,"x_max":0,"o":"m 296 0 l 88 0 l 88 1013 l 296 1013 m 381 1138 l 3 1138 l 3 1247 l 381 1247 "},"Į":{"ha":386,"x_min":0,"x_max":0,"o":"m 296 0 b 172 -182 217 -57 172 -122 b 260 -253 172 -224 208 -253 b 329 -246 278 -253 307 -250 l 329 -311 b 232 -324 293 -319 264 -324 b 47 -189 118 -324 47 -272 b 204 0 47 -117 97 -57 l 88 0 l 88 1013 l 296 1013 "},"Ĵ":{"ha":772,"x_min":0,"x_max":0,"o":"m 675 1013 l 675 264 b 350 -32 675 75 557 -32 b 118 49 254 -32 176 -4 b 33 275 58 104 33 169 l 33 375 l 242 375 l 242 278 b 354 146 242 185 275 146 b 467 264 426 146 467 188 l 467 1013 m 649 1300 l 792 1092 l 683 1092 l 569 1231 l 456 1092 l 350 1092 l 499 1300 "},"Ķ":{"ha":1003,"x_min":0,"x_max":0,"o":"m 311 0 l 103 0 l 103 1013 l 311 1013 l 311 568 l 707 1013 l 953 1013 l 549 576 l 996 0 l 747 0 l 415 447 l 311 339 m 607 -83 l 607 -226 b 438 -426 611 -335 535 -424 l 438 -362 b 531 -239 501 -350 532 -308 l 438 -239 l 438 -83 "},"Ļ":{"ha":849,"x_min":0,"x_max":0,"o":"m 319 174 l 804 174 l 804 0 l 111 0 l 111 1013 l 319 1013 m 543 -83 l 543 -226 b 374 -426 547 -335 471 -424 l 374 -362 b 467 -239 438 -350 468 -308 l 374 -239 l 374 -83 "},"Ņ":{"ha":1003,"x_min":0,"x_max":0,"o":"m 303 700 l 303 0 l 94 0 l 94 1013 l 308 1013 l 710 324 l 710 1013 l 918 1013 l 918 0 l 710 0 m 586 -83 l 586 -226 b 417 -426 590 -335 514 -424 l 417 -362 b 510 -239 481 -350 511 -308 l 417 -239 l 417 -83 "},"Ō":{"ha":1081,"x_min":0,"x_max":0,"o":"m 542 1029 b 889 889 689 1029 800 985 b 1031 492 979 793 1031 650 b 889 108 1031 349 976 201 b 543 -32 801 14 688 -32 b 197 108 399 -32 285 14 b 56 499 107 204 56 347 b 197 889 56 650 107 792 b 542 1029 283 982 400 1029 m 543 851 b 264 499 374 851 264 713 b 543 146 264 285 374 146 b 822 493 710 146 822 285 b 543 851 822 713 714 851 m 751 1138 l 336 1138 l 336 1247 l 751 1247 "},"Ŗ":{"ha":1003,"x_min":0,"x_max":0,"o":"m 319 0 l 111 0 l 111 1013 l 654 1013 b 850 943 740 1013 804 990 b 926 739 899 893 926 819 b 756 489 926 615 869 533 b 896 121 885 433 890 419 b 940 38 896 76 908 56 l 940 0 l 717 0 b 686 174 692 49 686 78 b 688 240 686 189 686 214 l 688 282 b 558 401 688 365 649 401 l 319 401 m 571 575 b 681 601 631 575 657 582 b 718 710 706 622 718 661 b 681 813 718 757 706 792 b 571 839 654 833 631 839 l 319 839 l 319 575 m 611 -83 l 611 -226 b 442 -426 615 -335 539 -424 l 442 -362 b 535 -239 506 -350 536 -308 l 442 -239 l 442 -83 "},"Ŝ":{"ha":926,"x_min":0,"x_max":0,"o":"m 649 704 b 436 863 642 807 568 863 b 261 738 328 863 261 814 b 453 606 261 664 304 635 l 611 575 b 879 296 799 539 879 456 b 464 -32 879 89 725 -32 b 44 303 206 -32 57 86 l 247 303 b 475 135 254 194 333 135 b 679 271 601 135 679 186 b 489 418 679 353 628 392 l 347 446 b 63 718 142 485 63 561 b 446 1029 63 915 203 1029 b 843 704 701 1029 842 914 m 519 1300 l 663 1092 l 554 1092 l 440 1231 l 326 1092 l 221 1092 l 371 1300 "},"Ģ":{"ha":1081,"x_min":0,"x_max":0,"o":"m 988 -3 l 863 -3 l 838 131 b 532 -32 760 17 668 -32 b 58 499 258 -32 58 192 b 549 1029 58 814 257 1029 b 988 689 793 1029 963 899 l 792 689 b 729 790 774 742 758 765 b 550 851 683 831 622 851 b 267 501 372 851 267 719 b 556 146 267 293 386 146 b 763 243 635 146 713 182 b 813 371 793 279 807 314 l 582 371 l 582 544 l 988 544 m 631 -83 l 631 -226 b 461 -426 635 -335 558 -424 l 461 -362 b 554 -239 525 -350 556 -308 l 461 -239 l 461 -83 "},"Ū":{"ha":1003,"x_min":0,"x_max":0,"o":"m 908 1013 l 908 326 b 810 71 908 213 878 132 b 507 -32 736 4 629 -32 b 204 71 385 -32 278 4 b 106 326 136 132 106 213 l 106 1013 l 314 1013 l 314 326 b 507 146 314 204 376 146 b 700 326 638 146 700 204 l 700 1013 m 715 1138 l 300 1138 l 300 1247 l 715 1247 "},"Ų":{"ha":1003,"x_min":0,"x_max":0,"o":"m 829 -311 b 718 -325 792 -321 758 -325 b 613 -308 681 -325 646 -319 b 518 -192 549 -287 518 -249 b 663 -10 518 -125 556 -76 b 511 -32 597 -28 565 -32 b 204 71 385 -32 278 4 b 106 326 136 132 106 213 l 106 1013 l 314 1013 l 314 326 b 507 146 314 204 376 146 b 700 326 638 146 700 204 l 700 1013 l 908 1013 l 908 326 b 732 -18 903 179 882 136 b 642 -183 668 -86 642 -135 b 749 -254 642 -231 676 -254 b 829 -246 778 -254 803 -251 "},"Ĕ":{"ha":926,"x_min":0,"x_max":0,"o":"m 318 174 l 867 174 l 867 0 l 110 0 l 110 1013 l 842 1013 l 842 839 l 318 839 l 318 610 l 803 610 l 803 436 l 318 436 m 661 1272 b 478 1089 661 1168 582 1089 b 294 1274 372 1089 294 1168 l 294 1288 l 372 1288 b 479 1196 381 1225 415 1196 b 583 1288 540 1196 571 1222 l 661 1288 "},"Ĭ":{"ha":386,"x_min":0,"x_max":0,"o":"m 296 0 l 88 0 l 88 1013 l 296 1013 m 376 1272 b 193 1089 376 1168 297 1089 b 10 1274 88 1089 10 1168 l 10 1288 l 88 1288 b 194 1196 96 1225 131 1196 b 299 1288 256 1196 286 1222 l 376 1288 "},"ĳ":{"ha":772,"x_min":0,"x_max":0,"o":"m 311 0 l 117 0 l 117 750 l 311 750 m 311 839 l 117 839 l 117 1013 l 311 1013 m 665 -131 b 494 -303 665 -253 615 -303 b 379 -296 464 -303 417 -300 l 379 -140 b 414 -146 392 -144 401 -146 b 471 -87 456 -146 471 -131 l 471 750 l 665 750 m 665 839 l 471 839 l 471 1013 l 665 1013 "},"ſ":{"ha":386,"x_min":0,"x_max":0,"o":"m 88 0 l 88 606 l -19 606 l -19 735 l 88 735 l 88 825 b 276 1013 88 951 150 1013 b 389 1008 307 1013 346 1011 l 389 863 b 335 867 369 865 351 867 b 282 808 299 867 282 847 l 282 0 "},"ă":{"ha":772,"x_min":0,"x_max":0,"o":"m 728 0 l 517 0 b 494 75 499 22 494 36 b 267 -32 425 3 350 -32 b 39 193 129 -32 39 58 b 260 429 39 328 111 404 l 338 443 b 460 472 433 458 433 458 b 493 531 481 485 493 506 b 381 606 493 581 456 606 b 243 503 285 606 253 581 l 56 503 b 376 763 68 676 174 763 b 683 532 579 763 683 685 l 683 115 b 728 24 683 78 694 56 m 493 354 b 411 331 471 343 463 340 l 344 318 b 233 215 264 301 233 274 b 339 125 233 160 274 125 b 493 301 438 125 493 189 m 565 1024 b 382 840 565 919 486 840 b 199 1025 276 840 199 919 l 199 1039 l 276 1039 b 383 947 285 976 319 947 b 488 1039 444 947 476 975 l 565 1039 "},"ą":{"ha":772,"x_min":0,"x_max":0,"o":"m 728 0 b 576 -179 629 -51 576 -114 b 682 -253 576 -229 610 -253 b 761 -246 708 -253 735 -250 l 761 -311 b 657 -324 724 -321 696 -324 b 451 -193 526 -324 451 -275 b 624 0 451 -111 517 -37 l 517 0 b 494 75 499 22 494 36 b 267 -32 425 3 350 -32 b 39 193 129 -32 39 58 b 260 429 39 328 111 404 l 338 443 b 460 472 433 458 433 458 b 493 531 481 485 493 506 b 381 606 493 581 456 606 b 243 503 285 606 253 581 l 56 503 b 376 763 68 676 174 763 b 683 532 579 763 683 685 l 683 115 b 728 24 683 78 694 56 m 493 354 b 411 331 471 343 463 340 l 344 318 b 233 215 264 301 233 274 b 339 125 233 160 274 125 b 493 301 438 125 493 189 "},"ć":{"ha":772,"x_min":0,"x_max":0,"o":"m 539 469 b 400 606 517 568 479 606 b 279 542 344 606 301 583 b 242 360 256 497 242 432 b 399 125 242 213 300 125 b 539 260 476 125 515 163 l 725 260 b 399 -32 707 81 581 -32 b 47 360 176 -32 47 113 b 401 763 47 615 176 763 b 725 469 590 763 711 653 m 418 843 l 321 843 l 418 1051 l 593 1051 "},"č":{"ha":772,"x_min":0,"x_max":0,"o":"m 539 469 b 400 606 517 568 479 606 b 279 542 344 606 301 583 b 242 360 256 497 242 432 b 399 125 242 213 300 125 b 539 260 476 125 515 163 l 725 260 b 399 -32 707 81 581 -32 b 47 360 176 -32 47 113 b 401 763 47 615 176 763 b 725 469 590 763 711 653 m 325 843 l 182 1051 l 289 1051 l 403 917 l 517 1051 l 624 1051 l 474 843 "},"ċ":{"ha":772,"x_min":0,"x_max":0,"o":"m 539 469 b 400 606 517 568 479 606 b 279 542 344 606 301 583 b 242 360 256 497 242 432 b 399 125 242 213 300 125 b 539 260 476 125 515 163 l 725 260 b 399 -32 707 81 581 -32 b 47 360 176 -32 47 113 b 401 763 47 615 176 763 b 725 469 590 763 711 653 m 476 863 l 324 863 l 324 1032 l 476 1032 "},"ď":{"ha":1032,"x_min":0,"x_max":0,"o":"m 565 76 b 358 -32 517 1 453 -32 b 124 88 267 -32 175 14 b 43 364 74 160 43 263 b 358 763 43 590 179 763 b 565 653 453 763 517 728 l 565 1013 l 760 1013 l 760 0 l 565 0 m 401 600 b 238 364 304 600 238 504 b 401 131 238 226 304 131 b 565 361 499 131 565 225 b 401 600 565 506 500 600 m 1003 1013 l 1003 869 b 833 669 1007 761 931 672 l 833 733 b 926 857 897 746 928 788 l 833 857 l 833 1013 "},"đ":{"ha":849,"x_min":0,"x_max":0,"o":"m 378 828 l 378 921 l 563 921 l 563 1013 l 757 1013 l 757 921 l 840 921 l 840 828 l 757 828 l 757 0 l 563 0 l 563 76 b 356 -32 514 1 450 -32 b 40 364 176 -32 40 139 b 356 763 40 590 176 763 b 563 653 450 763 514 728 l 563 828 m 399 600 b 235 364 301 600 235 503 b 399 131 235 226 301 131 b 563 361 496 131 563 225 b 399 600 563 506 497 600 "},"ě":{"ha":772,"x_min":0,"x_max":0,"o":"m 225 314 b 253 182 228 243 235 210 b 381 117 281 140 325 117 b 529 211 451 117 506 151 l 721 211 b 374 -32 678 63 542 -32 b 31 356 161 -32 31 115 b 378 763 31 607 163 763 b 700 544 529 763 650 681 b 729 347 718 492 729 422 b 728 314 729 338 729 331 m 526 443 b 375 614 517 554 464 614 b 228 443 289 614 240 558 m 311 843 l 168 1051 l 275 1051 l 389 917 l 503 1051 l 610 1051 l 460 843 "},"ė":{"ha":772,"x_min":0,"x_max":0,"o":"m 225 314 b 253 182 228 243 235 210 b 381 117 281 140 325 117 b 529 211 451 117 506 151 l 721 211 b 374 -32 678 63 542 -32 b 31 356 161 -32 31 115 b 378 763 31 607 163 763 b 700 544 529 763 650 681 b 729 347 718 492 729 422 b 728 314 729 338 729 331 m 526 443 b 375 614 517 554 464 614 b 228 443 289 614 240 558 m 465 863 l 313 863 l 313 1032 l 465 1032 "},"ę":{"ha":772,"x_min":0,"x_max":0,"o":"m 664 -311 b 554 -325 626 -321 593 -325 b 354 -190 431 -325 354 -274 b 486 -15 354 -128 388 -83 b 372 -33 436 -29 411 -33 b 29 356 160 -33 29 115 b 376 763 29 607 161 763 b 700 544 529 763 650 681 b 729 347 718 493 729 422 b 728 314 729 340 729 331 l 225 314 b 253 181 228 243 235 210 b 381 115 279 139 325 115 b 528 211 451 115 504 150 l 719 211 b 603 29 700 140 683 115 b 479 -182 507 -74 479 -121 b 585 -254 479 -232 513 -254 b 664 -246 613 -254 638 -251 m 526 443 b 375 614 517 554 464 614 b 226 443 288 614 239 558 "},"ğ":{"ha":849,"x_min":0,"x_max":0,"o":"m 606 1024 b 422 840 606 919 526 840 b 239 1025 317 840 239 919 l 239 1039 l 317 1039 b 424 947 325 976 360 947 b 528 1039 485 947 517 975 l 606 1039 m 740 750 l 740 -25 b 393 -303 740 -199 610 -303 b 146 -231 288 -303 206 -279 b 72 -90 94 -189 74 -149 l 272 -90 b 400 -178 288 -147 331 -178 b 556 -25 492 -178 556 -115 l 556 76 b 358 -32 488 -6 439 -32 b 57 357 179 -32 57 126 b 171 675 57 489 96 597 b 363 763 222 729 296 763 b 556 635 442 763 501 722 l 556 750 m 399 600 b 251 360 311 600 251 501 b 396 131 251 224 311 131 b 558 360 493 131 558 224 b 399 600 558 499 490 600 "},"ġ":{"ha":849,"x_min":0,"x_max":0,"o":"m 488 863 l 335 863 l 335 1032 l 488 1032 m 740 750 l 740 -25 b 393 -303 740 -199 610 -303 b 146 -231 288 -303 206 -279 b 72 -90 94 -189 74 -149 l 272 -90 b 400 -178 288 -147 331 -178 b 556 -25 492 -178 556 -115 l 556 76 b 358 -32 488 -6 439 -32 b 57 357 179 -32 57 126 b 171 675 57 489 96 597 b 363 763 222 729 296 763 b 556 635 442 763 501 722 l 556 750 m 399 600 b 251 360 311 600 251 501 b 396 131 251 224 311 131 b 558 360 493 131 558 224 b 399 600 558 499 490 600 "},"ĺ":{"ha":386,"x_min":0,"x_max":0,"o":"m 288 0 l 93 0 l 93 1013 l 288 1013 m 211 1092 l 114 1092 l 211 1300 l 386 1300 "},"ľ":{"ha":556,"x_min":0,"x_max":0,"o":"m 288 0 l 93 0 l 93 1013 l 288 1013 m 531 1013 l 531 869 b 361 669 535 761 458 672 l 361 733 b 454 857 425 746 456 788 l 361 857 l 361 1013 "},"ń":{"ha":849,"x_min":0,"x_max":0,"o":"m 282 750 l 282 642 b 507 763 338 726 406 763 b 758 503 668 763 758 669 l 758 0 l 564 0 l 564 463 b 439 597 564 551 522 597 b 282 450 343 597 282 539 l 282 0 l 88 0 l 88 750 m 435 843 l 338 843 l 435 1051 l 610 1051 "},"ň":{"ha":849,"x_min":0,"x_max":0,"o":"m 282 750 l 282 642 b 507 763 338 726 406 763 b 758 503 668 763 758 669 l 758 0 l 564 0 l 564 463 b 439 597 564 551 522 597 b 282 450 343 597 282 539 l 282 0 l 88 0 l 88 750 m 339 843 l 196 1051 l 304 1051 l 418 917 l 532 1051 l 638 1051 l 489 843 "},"ő":{"ha":849,"x_min":0,"x_max":0,"o":"m 418 763 b 790 360 653 763 790 614 b 419 -32 790 118 649 -32 b 49 365 189 -32 49 118 b 418 763 49 611 189 763 m 419 606 b 243 365 314 606 243 510 b 419 125 243 221 314 125 b 596 363 524 125 596 222 b 419 606 596 510 526 606 m 340 847 l 243 847 l 340 1051 l 515 1051 m 601 847 l 504 847 l 601 1051 l 776 1051 "},"ŕ":{"ha":540,"x_min":0,"x_max":0,"o":"m 282 750 l 282 603 b 490 763 325 704 401 763 b 514 761 499 763 503 763 l 514 564 b 453 569 488 568 474 569 b 282 399 339 569 282 513 l 282 0 l 88 0 l 88 750 m 308 843 l 211 843 l 308 1051 l 483 1051 "},"ś":{"ha":772,"x_min":0,"x_max":0,"o":"m 514 508 b 374 610 513 576 467 610 b 261 540 306 610 261 582 b 329 482 261 510 275 499 l 575 411 b 722 222 674 382 722 319 b 633 35 722 149 689 79 b 394 -32 578 -10 499 -32 b 40 218 167 -32 46 53 l 231 218 b 268 147 239 178 247 163 b 383 121 293 129 332 121 b 528 194 474 121 528 149 b 463 256 528 225 511 240 l 231 328 b 108 390 158 351 135 364 b 67 513 82 419 67 463 b 375 763 67 667 185 763 b 701 508 576 763 699 667 m 406 843 l 310 843 l 406 1051 l 582 1051 "},"ŝ":{"ha":772,"x_min":0,"x_max":0,"o":"m 514 508 b 374 610 513 576 467 610 b 261 540 306 610 261 582 b 329 482 261 510 275 499 l 575 411 b 722 222 674 382 722 319 b 633 35 722 149 689 79 b 394 -32 578 -10 499 -32 b 40 218 167 -32 46 53 l 231 218 b 268 147 239 178 247 163 b 383 121 293 129 332 121 b 528 194 474 121 528 149 b 463 256 528 225 511 240 l 231 328 b 108 390 158 351 135 364 b 67 513 82 419 67 463 b 375 763 67 667 185 763 b 701 508 576 763 699 667 m 468 1051 l 611 843 l 503 843 l 390 982 l 276 843 l 169 843 l 319 1051 "},"ș":{"ha":772,"x_min":0,"x_max":0,"o":"m 514 508 b 374 610 513 576 467 610 b 261 540 306 610 261 582 b 329 482 261 510 275 499 l 575 411 b 722 222 674 382 722 319 b 633 35 722 149 689 79 b 394 -32 578 -10 499 -32 b 40 218 167 -32 46 53 l 231 218 b 268 147 239 178 247 163 b 383 121 293 129 332 121 b 528 194 474 121 528 149 b 463 256 528 225 511 240 l 231 328 b 108 390 158 351 135 364 b 67 513 82 419 67 463 b 375 763 67 667 185 763 b 701 508 576 763 699 667 m 485 -83 l 485 -226 b 315 -426 489 -335 413 -424 l 315 -362 b 408 -239 379 -350 410 -308 l 315 -239 l 315 -83 "},"ť":{"ha":540,"x_min":0,"x_max":0,"o":"m 418 606 l 310 606 l 310 197 b 374 115 310 131 322 115 b 418 119 389 115 399 117 l 418 -17 b 306 -32 382 -28 350 -32 b 115 144 178 -32 115 26 l 115 606 l 19 606 l 19 735 l 115 735 l 115 936 l 310 936 l 310 735 l 418 735 m 553 1151 l 553 1008 b 383 808 557 900 481 811 l 383 872 b 476 996 447 885 478 926 l 383 996 l 383 1151 "},"ů":{"ha":849,"x_min":0,"x_max":0,"o":"m 557 0 l 557 89 b 332 -32 501 4 433 -32 b 81 228 171 -32 81 61 l 81 750 l 275 750 l 275 268 b 400 133 275 178 317 133 b 557 281 496 133 557 192 l 557 750 l 751 750 l 751 0 m 418 1069 b 542 943 488 1069 542 1015 b 417 819 542 875 485 819 b 292 944 347 819 292 875 b 418 1069 292 1015 347 1069 m 418 1003 b 358 944 385 1003 358 978 b 418 886 358 913 385 886 b 475 944 449 886 475 913 b 418 1003 475 978 450 1003 "},"ű":{"ha":849,"x_min":0,"x_max":0,"o":"m 557 0 l 557 89 b 332 -32 501 4 433 -32 b 81 228 171 -32 81 61 l 81 750 l 275 750 l 275 268 b 400 133 275 178 317 133 b 557 281 496 133 557 192 l 557 750 l 751 750 l 751 0 m 340 847 l 243 847 l 340 1051 l 515 1051 m 601 847 l 504 847 l 601 1051 l 776 1051 "},"ź":{"ha":694,"x_min":0,"x_max":0,"o":"m 638 593 l 269 157 l 650 157 l 650 0 l 29 0 l 29 157 l 400 593 l 54 593 l 54 750 l 638 750 m 363 843 l 265 843 l 363 1051 l 538 1051 "},"ż":{"ha":694,"x_min":0,"x_max":0,"o":"m 638 593 l 269 157 l 650 157 l 650 0 l 29 0 l 29 157 l 400 593 l 54 593 l 54 750 l 638 750 m 425 863 l 272 863 l 272 1032 l 425 1032 "},"ħ":{"ha":849,"x_min":0,"x_max":0,"o":"m 536 933 l 536 822 l 288 822 l 288 642 b 506 763 342 724 411 763 b 675 706 569 763 632 742 b 751 503 726 663 751 596 l 751 0 l 557 0 l 557 458 b 533 551 557 506 551 525 b 438 597 511 582 479 597 b 288 450 350 597 288 536 l 288 0 l 93 0 l 93 822 l 7 822 l 7 933 l 93 933 l 93 1013 l 288 1013 l 288 933 "},"ţ":{"ha":463,"x_min":0,"x_max":0,"o":"m 418 606 l 310 606 l 310 197 b 374 115 310 131 322 115 b 418 119 389 115 399 117 l 418 -17 b 306 -32 382 -28 350 -32 b 115 144 178 -32 115 26 l 115 606 l 19 606 l 19 735 l 115 735 l 115 936 l 310 936 l 310 735 l 418 735 m 346 -83 l 346 -226 b 176 -426 350 -335 274 -424 l 176 -362 b 269 -239 240 -350 271 -308 l 176 -239 l 176 -83 "},"ț":{"ha":463,"x_min":0,"x_max":0,"o":"m 418 606 l 310 606 l 310 197 b 374 115 310 131 322 115 b 418 119 389 115 399 117 l 418 -17 b 306 -32 382 -28 350 -32 b 115 144 178 -32 115 26 l 115 606 l 19 606 l 19 735 l 115 735 l 115 936 l 310 936 l 310 735 l 418 735 m 346 -83 l 346 -226 b 176 -426 350 -335 274 -424 l 176 -362 b 269 -239 240 -350 271 -308 l 176 -239 l 176 -83 "},"ŵ":{"ha":1081,"x_min":0,"x_max":0,"o":"m 650 0 l 538 529 l 418 0 l 218 0 l 7 750 l 208 750 l 328 225 l 442 750 l 636 750 l 749 225 l 863 750 l 1064 750 l 851 0 m 617 1035 l 760 826 l 653 826 l 539 965 l 425 826 l 318 826 l 468 1035 "},"ẅ":{"ha":1081,"x_min":0,"x_max":0,"o":"m 650 0 l 538 529 l 418 0 l 218 0 l 7 750 l 208 750 l 328 225 l 442 750 l 636 750 l 749 225 l 863 750 l 1064 750 l 851 0 m 476 863 l 324 863 l 324 1032 l 476 1032 m 735 863 l 582 863 l 582 1032 l 735 1032 "},"ā":{"ha":772,"x_min":0,"x_max":0,"o":"m 728 0 l 517 0 b 494 75 499 22 494 36 b 267 -32 425 3 350 -32 b 39 193 129 -32 39 58 b 260 429 39 328 111 404 l 338 443 b 460 472 433 458 433 458 b 493 531 481 485 493 506 b 381 606 493 581 456 606 b 243 503 285 606 253 581 l 56 503 b 376 763 68 676 174 763 b 683 532 579 763 683 685 l 683 115 b 728 24 683 78 694 56 m 493 354 b 411 331 471 343 463 340 l 344 318 b 233 215 264 301 233 274 b 339 125 233 160 274 125 b 493 301 438 125 493 189 m 586 889 l 171 889 l 171 999 l 586 999 "},"ŷ":{"ha":772,"x_min":0,"x_max":0,"o":"m 747 750 l 439 -137 b 329 -281 407 -228 383 -258 b 189 -304 294 -294 239 -304 b 119 -299 165 -304 149 -303 l 119 -153 b 171 -161 143 -158 156 -161 b 292 -31 243 -161 292 -108 l 13 750 l 226 750 l 392 204 l 547 750 m 464 1051 l 607 843 l 499 843 l 385 982 l 271 843 l 165 843 l 314 1051 "},"ĉ":{"ha":772,"x_min":0,"x_max":0,"o":"m 539 469 b 400 606 517 568 479 606 b 279 542 344 606 301 583 b 242 360 256 497 242 432 b 399 125 242 213 300 125 b 539 260 476 125 515 163 l 725 260 b 399 -32 707 81 581 -32 b 47 360 176 -32 47 113 b 401 763 47 615 176 763 b 725 469 590 763 711 653 m 465 1051 l 608 843 l 500 843 l 386 982 l 272 843 l 167 843 l 315 1051 "},"ē":{"ha":772,"x_min":0,"x_max":0,"o":"m 225 314 b 253 182 228 243 235 210 b 381 117 281 140 325 117 b 529 211 451 117 506 151 l 721 211 b 374 -32 678 63 542 -32 b 31 356 161 -32 31 115 b 378 763 31 607 163 763 b 700 544 529 763 650 681 b 729 347 718 492 729 422 b 728 314 729 338 729 331 m 526 443 b 375 614 517 554 464 614 b 228 443 289 614 240 558 m 597 889 l 182 889 l 182 999 l 597 999 "},"ĝ":{"ha":849,"x_min":0,"x_max":0,"o":"m 740 750 l 740 -25 b 393 -303 740 -199 610 -303 b 146 -231 288 -303 206 -279 b 72 -90 94 -189 74 -149 l 272 -90 b 400 -178 288 -147 331 -178 b 556 -25 492 -178 556 -115 l 556 76 b 358 -32 488 -6 439 -32 b 57 357 179 -32 57 126 b 171 675 57 489 96 597 b 363 763 222 729 296 763 b 556 635 442 763 501 722 l 556 750 m 399 600 b 251 360 311 600 251 501 b 396 131 251 224 311 131 b 558 360 493 131 558 224 b 399 600 558 499 490 600 m 438 1051 l 581 843 l 472 843 l 358 982 l 244 843 l 139 843 l 289 1051 "},"ĭ":{"ha":386,"x_min":0,"x_max":0,"o":"m 288 0 l 93 0 l 93 750 l 288 750 m 371 1013 b 188 829 371 908 292 829 b 4 1014 82 829 4 908 l 4 1028 l 82 1028 b 189 936 90 965 125 936 b 293 1028 250 936 281 964 l 371 1028 "},"ī":{"ha":386,"x_min":0,"x_max":0,"o":"m 289 0 l 94 0 l 94 750 l 289 750 m 371 889 l 11 889 l 11 999 l 371 999 "},"ĵ":{"ha":386,"x_min":0,"x_max":0,"o":"m 292 -131 b 121 -303 292 -253 242 -303 b 6 -296 90 -303 43 -300 l 6 -140 b 40 -146 18 -144 28 -146 b 97 -87 82 -146 97 -131 l 97 750 l 292 750 m 269 1051 l 413 843 l 304 843 l 190 982 l 76 843 l -29 843 l 121 1051 "},"ķ":{"ha":772,"x_min":0,"x_max":0,"o":"m 522 750 l 743 750 l 488 467 l 761 0 l 533 0 l 354 331 l 276 246 l 276 0 l 82 0 l 82 1013 l 276 1013 l 276 458 m 488 -83 l 488 -226 b 318 -426 492 -335 415 -424 l 318 -362 b 411 -239 382 -350 413 -308 l 318 -239 l 318 -83 "},"ļ":{"ha":386,"x_min":0,"x_max":0,"o":"m 288 0 l 93 0 l 93 1013 l 288 1013 m 278 -83 l 278 -226 b 108 -426 282 -335 206 -424 l 108 -362 b 201 -239 172 -350 203 -308 l 108 -239 l 108 -83 "},"ņ":{"ha":849,"x_min":0,"x_max":0,"o":"m 282 750 l 282 642 b 507 763 338 726 406 763 b 758 503 668 763 758 669 l 758 0 l 564 0 l 564 463 b 439 597 564 551 522 597 b 282 450 343 597 282 539 l 282 0 l 88 0 l 88 750 m 508 -83 l 508 -226 b 339 -426 513 -335 436 -424 l 339 -362 b 432 -239 403 -350 433 -308 l 339 -239 l 339 -83 "},"ō":{"ha":849,"x_min":0,"x_max":0,"o":"m 418 763 b 790 360 653 763 790 614 b 419 -32 790 118 649 -32 b 49 365 189 -32 49 118 b 418 763 49 611 189 763 m 419 606 b 243 365 314 606 243 510 b 419 125 243 221 314 125 b 596 363 524 125 596 222 b 419 606 596 510 526 606 m 628 889 l 213 889 l 213 999 l 628 999 "},"ŗ":{"ha":540,"x_min":0,"x_max":0,"o":"m 282 750 l 282 603 b 490 763 325 704 401 763 b 514 761 499 763 503 763 l 514 564 b 453 569 488 568 474 569 b 282 399 339 569 282 513 l 282 0 l 88 0 l 88 750 m 272 -83 l 272 -226 b 103 -426 276 -335 200 -424 l 103 -362 b 196 -239 167 -350 197 -308 l 103 -239 l 103 -83 "},"ŭ":{"ha":849,"x_min":0,"x_max":0,"o":"m 557 0 l 557 89 b 332 -32 501 4 433 -32 b 81 228 171 -32 81 61 l 81 750 l 275 750 l 275 268 b 400 133 275 178 317 133 b 557 281 496 133 557 192 l 557 750 l 751 750 l 751 0 m 585 1039 b 401 840 585 918 513 840 b 218 1025 296 840 218 919 b 219 1039 218 1026 218 1033 l 296 1039 b 403 947 306 976 340 947 b 508 1039 465 947 496 975 "},"ū":{"ha":849,"x_min":0,"x_max":0,"o":"m 557 0 l 557 89 b 332 -32 501 4 433 -32 b 81 228 171 -32 81 61 l 81 750 l 275 750 l 275 268 b 400 133 275 178 317 133 b 557 281 496 133 557 192 l 557 750 l 751 750 l 751 0 m 624 889 l 208 889 l 208 999 l 624 999 "},"ų":{"ha":849,"x_min":0,"x_max":0,"o":"m 557 0 l 557 89 b 332 -32 501 4 433 -32 b 81 228 171 -32 81 61 l 81 750 l 275 750 l 275 268 b 400 133 275 178 317 133 b 557 281 496 133 557 192 l 557 750 l 751 750 l 751 0 b 597 -179 650 -51 597 -114 b 703 -253 597 -229 631 -253 b 783 -246 731 -253 757 -250 l 783 -311 b 679 -324 744 -321 718 -324 b 472 -192 547 -324 472 -275 b 582 -29 472 -132 514 -68 b 646 0 601 -17 613 -12 "},"ř":{"ha":540,"x_min":0,"x_max":0,"o":"m 282 750 l 282 603 b 490 763 325 704 401 763 b 514 761 499 763 503 763 l 514 564 b 453 569 488 568 474 569 b 282 399 339 569 282 513 l 282 0 l 88 0 l 88 750 m 218 843 l 75 1051 l 183 1051 l 297 917 l 411 1051 l 517 1051 l 367 843 "},"ş":{"ha":772,"x_min":0,"x_max":0,"o":"m 367 -87 b 425 -78 388 -81 404 -78 b 531 -176 490 -78 531 -115 b 353 -306 531 -260 468 -306 b 160 -267 290 -306 244 -296 l 186 -194 b 331 -236 257 -226 292 -236 b 410 -179 375 -236 410 -211 b 340 -131 410 -150 382 -131 b 272 -147 313 -131 297 -135 l 332 -31 b 40 218 133 -7 47 67 l 231 218 b 268 147 239 178 247 163 b 383 121 293 129 332 121 b 528 194 474 121 528 149 b 463 256 528 225 511 240 l 231 328 b 108 390 158 351 135 364 b 67 513 82 419 67 463 b 375 763 67 667 185 763 b 701 508 576 763 699 667 l 514 508 b 374 610 513 576 467 610 b 261 540 306 610 261 582 b 329 482 261 510 275 499 l 575 411 b 722 222 674 382 722 319 b 418 -32 722 72 597 -32 l 393 -32 "},"ģ":{"ha":849,"x_min":0,"x_max":0,"o":"m 328 842 l 328 985 b 497 1185 324 1093 400 1182 l 497 1121 b 404 997 433 1108 403 1067 l 497 997 l 497 842 m 740 750 l 740 -25 b 393 -303 740 -199 610 -303 b 146 -231 288 -303 206 -279 b 72 -90 94 -189 74 -149 l 272 -90 b 400 -178 288 -147 331 -178 b 556 -25 492 -178 556 -115 l 556 76 b 358 -32 488 -6 439 -32 b 57 357 179 -32 57 126 b 171 675 57 489 96 597 b 363 763 222 729 296 763 b 556 635 442 763 501 722 l 556 750 m 399 600 b 251 360 311 600 251 501 b 396 131 251 224 311 131 b 558 360 493 131 558 224 b 399 600 558 499 490 600 "},"€":{"ha":772,"x_min":0,"x_max":0,"o":"m 97 442 b 94 490 94 461 94 474 b 96 536 94 507 94 519 l 8 536 l 42 631 l 108 631 b 506 1006 160 868 306 1006 b 758 911 603 1006 658 985 l 696 732 b 493 825 608 801 557 825 b 311 631 407 825 344 758 l 660 631 l 626 536 l 293 536 b 289 479 290 514 289 499 b 292 442 289 465 289 456 l 593 442 l 558 347 l 307 347 b 493 150 343 221 410 150 b 696 222 549 150 588 164 l 696 15 b 485 -32 586 -21 539 -32 b 197 122 375 -32 260 29 b 108 347 154 186 126 258 l 8 347 l 42 442 "},"₧":{"ha":1519,"x_min":0,"x_max":0,"o":"m 925 322 l 864 322 l 864 106 b 896 63 864 71 869 63 b 925 65 906 63 913 63 l 925 -8 b 860 -17 903 -14 885 -17 b 747 78 782 -17 747 14 l 747 322 l 693 322 l 693 397 l 747 397 l 747 506 l 864 506 l 864 397 l 925 397 m 1136 118 b 1221 65 1143 79 1164 65 b 1301 106 1274 65 1301 79 b 1267 138 1301 122 1293 131 l 1133 178 b 1038 278 1060 200 1038 224 b 1215 413 1038 361 1107 413 b 1406 275 1332 413 1404 360 l 1293 275 b 1215 331 1290 315 1268 331 b 1154 293 1178 331 1154 317 b 1190 261 1154 275 1161 269 l 1331 222 b 1418 121 1389 207 1418 172 b 1228 -17 1418 36 1346 -17 b 1022 118 1096 -17 1025 29 m 335 0 l 126 0 l 126 1013 l 365 1013 b 692 699 576 1013 692 901 b 386 361 692 493 572 361 l 335 361 m 363 535 b 483 686 444 535 483 583 b 363 839 483 790 444 839 l 335 839 l 335 535 "},"₤":{"ha":772,"x_min":0,"x_max":0,"o":"m 351 439 b 368 394 360 419 364 410 l 521 394 l 521 318 l 368 318 b 211 119 356 256 307 193 b 367 171 297 161 326 171 b 454 156 390 171 400 169 b 543 142 492 146 518 142 b 689 182 589 142 633 154 l 746 31 b 544 -32 668 -15 613 -32 b 407 -10 507 -32 475 -26 b 271 13 339 7 308 13 b 119 -29 218 13 181 3 l 43 111 b 194 318 158 190 193 238 l 43 318 l 43 394 l 182 394 b 167 439 179 404 172 422 l 43 439 l 43 515 l 126 515 l 121 525 b 53 717 64 625 53 657 b 156 925 53 796 92 874 b 383 993 214 971 290 993 b 686 840 528 993 635 939 b 724 672 707 800 718 754 l 542 672 l 540 688 b 492 801 532 751 521 776 b 385 839 464 826 426 839 b 249 714 306 839 249 786 b 286 606 249 685 253 674 b 328 515 310 557 322 529 l 521 515 l 521 439 "},"₣":{"ha":772,"x_min":0,"x_max":0,"o":"m 586 463 b 794 622 629 564 704 622 b 818 621 801 622 807 622 l 818 424 b 757 429 792 428 776 429 b 586 258 643 429 586 372 l 586 0 l 392 0 l 392 436 l 239 436 l 239 0 l 31 0 l 31 1013 l 742 1013 l 742 839 l 239 839 l 239 610 l 586 610 "},"·":{"ha":386,"x_min":0,"x_max":0,"o":"m 261 406 l 261 235 l 89 235 l 89 406 "},"∙":{"ha":386,"x_min":0,"x_max":0,"o":"m 261 406 l 261 235 l 89 235 l 89 406 "},"­":{"ha":463,"x_min":0,"x_max":0,"o":"m 414 288 l 36 288 l 36 475 l 414 475 "},"―":{"ha":1389,"x_min":0,"x_max":0,"o":"m 1393 288 l -10 288 l -10 432 l 1393 432 "},"℅":{"ha":1229,"x_min":0,"x_max":0,"o":"m 697 461 l 544 461 l 544 631 l 697 631 "},"‛":{"ha":386,"x_min":0,"x_max":0,"o":"m 300 839 l 189 839 b 300 715 186 769 222 729 l 300 651 b 113 861 178 663 107 740 l 113 1013 l 300 1013 "},"∕":{"ha":386,"x_min":0,"x_max":0,"o":"m 544 993 l -43 -28 l -164 -28 l 424 993 "},"ˉ":{"ha":463,"x_min":0,"x_max":0,"o":"m 438 889 l 22 889 l 22 999 l 438 999 "},"ǻ":{"ha":772,"x_min":0,"x_max":0,"o":"m 728 0 l 517 0 b 494 75 499 22 494 36 b 267 -32 425 3 350 -32 b 39 193 129 -32 39 58 b 260 429 39 328 111 404 l 338 443 b 460 472 433 458 433 458 b 493 531 481 485 493 506 b 381 606 493 581 456 606 b 243 503 285 606 253 581 l 56 503 b 376 763 68 676 174 763 b 683 532 579 763 683 685 l 683 115 b 728 24 683 78 694 56 m 493 354 b 411 331 471 343 463 340 l 344 318 b 233 215 264 301 233 274 b 339 125 233 160 274 125 b 493 301 438 125 493 189 m 369 1069 b 493 943 439 1069 493 1015 b 368 819 493 875 436 819 b 243 944 299 819 243 875 b 369 1069 243 1015 299 1069 m 369 1003 b 310 944 336 1003 310 978 b 369 886 310 913 336 886 b 426 944 400 886 426 913 b 369 1003 426 978 401 1003 m 246 1031 l 149 1031 l 246 1239 l 421 1239 "},"ĥ":{"ha":849,"x_min":0,"x_max":0,"o":"m 288 1013 l 288 642 b 507 763 342 725 411 763 b 675 706 569 763 632 742 b 751 503 726 663 751 596 l 751 0 l 557 0 l 557 458 b 535 551 557 506 553 526 b 438 597 513 582 481 597 b 288 450 350 597 288 536 l 288 0 l 93 0 l 93 1013 m 279 1300 l 422 1092 l 314 1092 l 200 1231 l 86 1092 l -19 1092 l 131 1300 "},"ĕ":{"ha":772,"x_min":0,"x_max":0,"o":"m 225 314 b 253 182 228 243 235 210 b 381 117 281 140 325 117 b 529 211 451 117 506 151 l 721 211 b 374 -32 678 63 542 -32 b 31 356 161 -32 31 115 b 378 763 31 607 163 763 b 700 544 529 763 650 681 b 729 347 718 492 729 422 b 728 314 729 338 729 331 m 526 443 b 375 614 517 554 464 614 b 228 443 289 614 240 558 m 572 1024 b 389 840 572 919 493 840 b 206 1025 283 840 206 919 l 206 1039 l 283 1039 b 390 947 292 976 326 947 b 494 1039 451 947 483 975 l 572 1039 "},"į":{"ha":386,"x_min":0,"x_max":0,"o":"m 288 0 b 172 -178 213 -54 172 -115 b 201 -237 172 -208 179 -224 b 260 -253 219 -247 239 -253 b 321 -246 274 -253 289 -251 l 321 -311 b 233 -324 278 -321 261 -324 b 47 -189 118 -324 47 -272 b 200 0 47 -121 96 -61 l 93 0 l 93 750 l 288 750 m 288 839 l 93 839 l 93 1013 l 288 1013 "},"ŀ":{"ha":665,"x_min":0,"x_max":0,"o":"m 304 0 l 110 0 l 110 1013 l 304 1013 m 611 590 l 611 419 l 439 419 l 439 590 "},"ŏ":{"ha":849,"x_min":0,"x_max":0,"o":"m 418 763 b 790 360 653 763 790 614 b 419 -32 790 118 649 -32 b 49 365 189 -32 49 118 b 418 763 49 611 189 763 m 419 606 b 243 365 314 606 243 510 b 419 125 243 221 314 125 b 596 363 524 125 596 222 b 419 606 596 510 526 606 m 599 1024 b 415 840 599 919 519 840 b 232 1025 310 840 232 919 l 232 1039 l 310 1039 b 417 947 318 976 353 947 b 521 1039 478 947 508 975 l 599 1039 "},"ǿ":{"ha":849,"x_min":0,"x_max":0,"o":"m 75 -53 l 15 3 l 119 110 b 50 365 72 178 50 261 b 424 763 50 613 190 763 b 676 676 525 763 606 735 l 771 774 l 831 717 l 731 615 b 796 365 775 546 796 465 b 425 -32 796 119 654 -32 b 175 49 325 -32 231 -1 m 306 183 b 425 125 339 144 379 125 b 601 361 528 125 601 222 b 585 467 601 399 596 433 m 544 542 b 421 607 507 588 469 607 b 244 369 317 607 244 510 b 264 256 244 326 251 288 m 406 843 l 308 843 l 406 1051 l 581 1051 "},"ĩ":{"ha":386,"x_min":0,"x_max":0,"o":"m 288 0 l 93 0 l 93 750 l 288 750 m 440 1040 b 308 864 435 922 390 864 b 232 881 288 864 261 869 l 133 917 b 92 925 118 922 104 925 b 36 863 58 925 43 907 l -51 863 b 79 1035 -46 971 3 1035 b 157 1017 106 1035 107 1035 l 256 982 b 303 974 265 978 293 974 b 353 1040 332 974 349 996 "},"ũ":{"ha":849,"x_min":0,"x_max":0,"o":"m 557 0 l 557 89 b 332 -32 501 4 433 -32 b 81 228 171 -32 81 61 l 81 750 l 275 750 l 275 268 b 400 133 275 178 317 133 b 557 281 496 133 557 192 l 557 750 l 751 750 l 751 0 m 672 1040 b 540 864 667 922 622 864 b 464 881 519 864 493 869 l 365 917 b 324 925 350 922 336 925 b 268 863 290 925 275 907 l 181 863 b 311 1035 186 971 235 1035 b 389 1017 338 1035 339 1035 l 488 982 b 535 974 497 978 525 974 b 585 1040 564 974 581 996 "},"Ŀ":{"ha":849,"x_min":0,"x_max":0,"o":"m 319 174 l 804 174 l 804 0 l 111 0 l 111 1013 l 319 1013 m 701 590 l 701 419 l 529 419 l 529 590 "},"Ŏ":{"ha":1081,"x_min":0,"x_max":0,"o":"m 542 1029 b 889 889 689 1029 800 985 b 1031 492 979 793 1031 650 b 889 108 1031 349 976 201 b 543 -32 801 14 688 -32 b 197 108 399 -32 285 14 b 56 499 107 204 56 347 b 197 889 56 650 107 792 b 542 1029 283 982 400 1029 m 543 851 b 264 499 374 851 264 713 b 543 146 264 285 374 146 b 822 493 710 146 822 285 b 543 851 822 713 714 851 m 724 1288 b 725 1272 725 1281 725 1275 b 542 1089 725 1168 646 1089 b 358 1288 431 1089 361 1164 l 435 1288 b 542 1196 444 1225 479 1196 b 647 1288 604 1196 635 1222 "},"Ș":{"ha":926,"x_min":0,"x_max":0,"o":"m 649 704 b 436 863 642 807 568 863 b 261 738 328 863 261 814 b 453 606 261 664 304 635 l 611 575 b 879 296 799 539 879 456 b 464 -32 879 89 725 -32 b 44 303 206 -32 57 86 l 247 303 b 475 135 254 194 333 135 b 679 271 601 135 679 186 b 489 418 679 353 628 392 l 347 446 b 63 718 142 485 63 561 b 446 1029 63 915 203 1029 b 843 704 701 1029 842 914 m 561 -83 l 561 -226 b 392 -426 565 -335 489 -424 l 392 -362 b 485 -239 456 -350 486 -308 l 392 -239 l 392 -83 "},"Ŭ":{"ha":1003,"x_min":0,"x_max":0,"o":"m 908 1013 l 908 326 b 810 71 908 213 878 132 b 507 -32 736 4 629 -32 b 204 71 385 -32 278 4 b 106 326 136 132 106 213 l 106 1013 l 314 1013 l 314 326 b 507 146 314 204 376 146 b 700 326 638 146 700 204 l 700 1013 m 685 1288 b 686 1272 686 1281 686 1275 b 503 1089 686 1168 607 1089 b 319 1288 392 1089 322 1164 l 396 1288 b 503 1196 406 1225 440 1196 b 608 1288 565 1196 596 1222 "},"Ǻ":{"ha":1003,"x_min":0,"x_max":0,"o":"m 317 204 l 249 0 l 36 0 l 396 1013 l 626 1013 l 976 0 l 763 0 l 696 204 m 507 774 l 375 378 l 639 378 m 504 1318 b 628 1192 574 1318 628 1264 b 503 1068 628 1124 571 1068 b 378 1193 433 1068 378 1124 b 504 1318 378 1264 433 1318 m 504 1251 b 444 1193 471 1251 444 1226 b 504 1135 444 1161 471 1135 b 561 1193 535 1135 561 1161 b 504 1251 561 1226 536 1251 m 371 1278 l 274 1278 l 371 1486 l 546 1486 "},"Ǿ":{"ha":1081,"x_min":0,"x_max":0,"o":"m 114 -54 l 43 10 l 163 142 b 49 499 86 244 49 363 b 192 889 49 650 100 793 b 539 1029 279 983 393 1029 b 861 913 671 1029 768 994 l 976 1040 l 1049 978 l 925 840 b 1026 496 988 756 1026 625 b 885 108 1026 347 974 203 b 539 -32 796 14 682 -32 b 229 72 413 -32 310 3 m 356 213 b 538 146 399 171 465 146 b 818 501 708 146 818 285 b 788 690 818 568 807 636 m 733 771 b 539 851 682 825 617 851 b 257 494 367 851 257 713 b 297 290 257 418 271 350 m 513 1092 l 415 1092 l 513 1300 l 688 1300 "},"Ǽ":{"ha":1389,"x_min":0,"x_max":0,"o":"m 288 211 l 214 0 l 1 0 l 367 1013 l 1314 1013 l 1314 839 l 806 839 l 806 610 l 1276 610 l 1276 436 l 806 436 l 806 174 l 1342 174 l 1342 0 l 597 0 l 597 211 m 597 839 l 504 839 l 346 385 l 597 385 m 789 1092 l 692 1092 l 789 1300 l 964 1300 "},"Ŋ":{"ha":1004,"x_min":0,"x_max":0,"o":"m 547 -206 b 622 -214 579 -211 597 -214 b 700 -115 685 -214 700 -196 l 700 644 b 519 824 700 776 651 824 b 367 779 449 824 404 810 b 300 625 324 743 300 689 l 300 0 l 92 0 l 92 1013 l 300 1013 l 300 865 b 592 1029 371 979 461 1029 b 811 951 678 1029 754 1003 b 910 679 882 889 910 811 l 910 -158 b 875 -337 910 -254 900 -300 b 700 -408 843 -385 783 -408 b 547 -399 658 -408 607 -406 "},"Ŧ":{"ha":849,"x_min":0,"x_max":0,"o":"m 739 631 l 739 519 l 535 519 l 535 0 l 326 0 l 326 519 l 124 519 l 124 631 l 326 631 l 326 839 l 19 839 l 19 1013 l 831 1013 l 831 839 l 535 839 l 535 631 "},"ŋ":{"ha":849,"x_min":0,"x_max":0,"o":"m 472 -139 b 511 -146 489 -144 497 -146 b 564 -78 550 -146 564 -128 l 564 464 b 438 597 564 556 525 597 b 282 450 343 597 282 539 l 282 0 l 88 0 l 88 750 l 282 750 l 282 642 b 507 763 338 726 406 763 b 682 706 578 763 639 742 b 758 503 735 661 758 599 l 758 -131 b 588 -303 758 -256 713 -303 b 472 -296 557 -303 510 -300 "},"ŧ":{"ha":463,"x_min":0,"x_max":0,"o":"m 408 468 l 408 375 l 310 375 l 310 197 b 372 115 310 131 322 115 b 418 119 388 115 399 117 l 418 -17 b 306 -32 381 -28 350 -32 b 115 144 178 -32 115 26 l 115 375 l 33 375 l 33 468 l 115 468 l 115 606 l 19 606 l 19 735 l 115 735 l 115 936 l 310 936 l 310 735 l 418 735 l 418 606 l 310 606 l 310 468 "},"ĸ":{"ha":772,"x_min":0,"x_max":0,"o":"m 221 0 l 75 0 l 75 708 l 221 708 l 221 397 l 497 708 l 671 708 l 388 404 l 700 0 l 525 0 l 293 313 l 221 236 "},"ŉ":{"ha":983,"x_min":0,"x_max":0,"o":"m 397 750 l 397 642 b 622 763 453 726 521 763 b 874 503 783 763 874 669 l 874 0 l 679 0 l 679 463 b 554 597 679 551 638 597 b 397 450 458 597 397 539 l 397 0 l 203 0 l 203 750 m 190 1013 l 190 869 b 21 669 194 761 118 672 l 21 733 b 114 857 85 746 115 788 l 21 857 l 21 1013 "},"Ũ":{"ha":1003,"x_min":0,"x_max":0,"o":"m 908 1013 l 908 326 b 810 71 908 213 878 132 b 507 -32 736 4 629 -32 b 204 71 385 -32 278 4 b 106 326 136 132 106 213 l 106 1013 l 314 1013 l 314 326 b 507 146 314 204 376 146 b 700 326 638 146 700 204 l 700 1013 m 750 1289 b 618 1113 743 1171 700 1113 b 542 1129 596 1113 571 1118 l 443 1165 b 400 1174 426 1171 414 1174 b 344 1111 368 1174 351 1156 l 258 1111 b 389 1283 263 1219 311 1283 b 465 1265 414 1283 421 1282 l 565 1231 b 613 1222 575 1226 603 1222 b 663 1289 640 1222 657 1244 "},"ǽ":{"ha":1235,"x_min":0,"x_max":0,"o":"m 1181 211 b 833 -32 1138 63 1003 -32 b 556 113 711 -32 614 18 b 271 -33 469 10 383 -33 b 38 196 128 -33 38 56 b 258 433 38 332 108 408 l 336 447 b 458 476 432 463 432 463 b 492 532 479 488 492 510 b 374 606 492 582 453 606 b 242 503 286 606 251 578 l 60 503 b 376 763 63 675 169 763 b 619 693 485 763 567 739 b 835 763 676 739 750 763 b 1161 544 990 763 1110 682 b 1190 347 1179 494 1190 422 b 1189 314 1190 340 1190 331 l 686 314 b 714 185 686 250 693 217 b 844 117 742 142 790 117 b 989 211 911 117 972 156 m 492 353 b 410 326 468 339 451 333 l 343 317 b 232 215 269 307 232 272 b 338 124 232 158 272 124 b 492 300 438 124 492 186 m 988 443 b 836 614 978 556 926 614 b 688 443 747 614 696 556 m 589 843 l 492 843 l 589 1051 l 764 1051 "},"Ĩ":{"ha":386,"x_min":0,"x_max":0,"o":"m 296 0 l 88 0 l 88 1013 l 296 1013 m 440 1289 b 308 1113 433 1171 390 1113 b 232 1129 288 1113 261 1118 l 133 1165 b 92 1174 118 1171 106 1174 b 36 1111 58 1174 43 1156 l -51 1111 b 79 1283 -46 1219 3 1283 b 157 1265 104 1283 111 1282 l 256 1231 b 303 1222 267 1226 293 1222 b 353 1289 332 1222 349 1244 "},"Ẁ":{"ha":1311,"x_min":0,"x_max":0,"o":"m 826 0 l 657 790 l 492 0 l 304 0 l 18 1013 l 239 1013 l 396 254 l 553 1013 l 758 1013 l 922 253 l 1074 1013 l 1294 1013 l 1014 0 m 665 1300 l 763 1092 l 665 1092 l 490 1300 "},"Ẃ":{"ha":1311,"x_min":0,"x_max":0,"o":"m 826 0 l 657 790 l 492 0 l 304 0 l 18 1013 l 239 1013 l 396 254 l 553 1013 l 758 1013 l 922 253 l 1074 1013 l 1294 1013 l 1014 0 m 699 1092 l 601 1092 l 699 1300 l 874 1300 "},"ẁ":{"ha":1081,"x_min":0,"x_max":0,"o":"m 650 0 l 538 529 l 418 0 l 218 0 l 7 750 l 208 750 l 328 225 l 442 750 l 636 750 l 749 225 l 863 750 l 1064 750 l 851 0 m 539 1051 l 636 843 l 539 843 l 364 1051 "},"ẃ":{"ha":1081,"x_min":0,"x_max":0,"o":"m 650 0 l 538 529 l 418 0 l 218 0 l 7 750 l 208 750 l 328 225 l 442 750 l 636 750 l 749 225 l 863 750 l 1064 750 l 851 0 m 507 843 l 410 843 l 507 1051 l 682 1051 "},"Ỳ":{"ha":926,"x_min":0,"x_max":0,"o":"m 582 0 l 374 0 l 374 375 l 38 1013 l 269 1013 l 476 565 l 669 1013 l 903 1013 l 582 375 m 507 1300 l 604 1092 l 507 1092 l 332 1300 "},"ỳ":{"ha":772,"x_min":0,"x_max":0,"o":"m 747 750 l 439 -137 b 329 -281 407 -228 383 -258 b 189 -304 294 -294 239 -304 b 119 -299 165 -304 149 -303 l 119 -153 b 171 -161 143 -158 156 -161 b 292 -31 243 -161 292 -108 l 13 750 l 226 750 l 392 204 l 547 750 m 354 1051 l 451 843 l 354 843 l 179 1051 "}," ":{"ha":694,"x_min":0,"x_max":0,"o":""}," ":{"ha":386,"x_min":0,"x_max":0,"o":""},"☺":{"ha":1418,"x_min":0,"x_max":0,"o":"m 710 1014 b 1217 507 990 1014 1217 788 b 706 0 1217 225 990 0 b 203 515 426 0 203 228 b 710 1014 203 786 433 1014 m 710 946 b 271 514 469 946 271 750 b 707 68 271 265 464 68 b 1149 507 953 68 1149 263 b 710 946 1149 750 953 946 m 558 719 b 628 650 596 719 628 688 b 558 581 628 613 596 581 b 489 651 521 581 489 613 b 558 719 489 688 521 719 m 381 569 b 447 428 396 500 411 469 b 710 315 514 351 597 315 b 972 428 822 315 906 351 b 1039 569 1008 469 1024 500 b 958 313 1029 440 1008 378 b 710 200 900 238 817 200 b 447 332 594 200 506 244 b 381 569 406 394 390 451 m 861 719 b 931 650 899 719 931 688 b 861 581 931 613 899 581 b 792 651 824 581 792 613 b 861 719 792 688 824 719 "},"☻":{"ha":1461,"x_min":0,"x_max":0,"o":"m 732 1014 b 1239 507 1013 1014 1239 788 b 728 0 1239 225 1013 0 b 225 515 449 0 225 228 b 732 1014 225 786 456 1014 m 581 726 b 504 651 540 726 504 692 b 581 574 504 608 539 574 b 657 650 622 574 657 608 b 581 726 657 692 622 726 m 403 569 b 483 313 413 440 433 378 b 732 200 542 238 625 200 b 994 332 847 200 936 244 b 1061 569 1036 394 1051 451 b 994 428 1046 500 1031 469 b 732 315 928 351 844 315 b 469 428 619 315 536 351 b 403 569 433 469 418 500 m 883 726 b 807 651 843 726 807 692 b 883 574 807 608 842 574 b 960 650 925 574 960 608 b 883 726 960 692 925 726 "},"♥":{"ha":825,"x_min":0,"x_max":0,"o":"m 411 -39 b 110 479 375 104 319 199 b -36 793 -7 638 -36 700 b 174 1011 -36 917 56 1011 b 367 901 250 1011 321 971 b 411 801 383 876 394 851 b 474 931 429 865 443 896 b 647 1013 519 983 581 1013 b 861 803 764 1013 861 918 b 683 431 861 693 817 600 b 411 -39 522 229 439 86 "},"♦":{"ha":708,"x_min":0,"x_max":0,"o":"m -11 507 b 372 1051 192 763 294 908 b 758 507 418 957 647 633 b 372 -39 613 333 456 111 b 7 485 319 65 147 311 "},"♣":{"ha":911,"x_min":0,"x_max":0,"o":"m 113 0 l 113 28 b 321 103 244 56 276 68 b 449 376 396 164 449 276 b 447 421 449 383 449 399 b 178 225 385 294 290 225 b -51 456 50 225 -51 326 b 144 682 -51 576 40 682 b 283 640 188 682 217 674 b 226 790 236 714 226 740 b 454 1013 226 915 325 1013 b 682 792 581 1013 682 914 b 628 640 682 740 667 697 b 760 683 710 681 719 683 b 963 458 872 683 963 583 b 738 225 963 328 864 225 b 524 332 664 225 578 268 b 467 421 507 351 496 369 b 557 142 468 288 492 214 b 804 28 621 75 661 56 l 804 0 "},"♠":{"ha":738,"x_min":0,"x_max":0,"o":"m 83 32 b 417 397 304 33 425 165 b 351 300 393 346 378 325 b 192 235 307 258 250 235 b 6 425 90 235 6 321 b 165 685 6 514 54 592 b 417 1051 313 804 394 924 b 649 711 471 889 497 851 b 833 425 797 576 833 519 b 656 236 833 322 753 236 b 429 397 554 236 490 282 b 754 32 425 161 531 43 l 754 0 l 83 0 "},"♂":{"ha":1042,"x_min":0,"x_max":0,"o":"m 746 899 b 663 926 728 903 719 906 b 571 990 608 947 571 972 b 590 1008 571 1001 579 1008 b 617 1004 597 1008 601 1007 b 729 992 657 996 690 992 b 856 1006 794 992 819 994 b 886 1013 868 1010 881 1013 b 900 999 894 1013 900 1007 b 893 968 900 993 900 992 b 879 839 883 933 879 892 b 892 724 879 799 882 768 b 896 696 894 708 896 703 b 879 678 896 686 889 678 b 843 714 865 678 858 686 b 788 858 822 756 794 824 l 579 650 b 653 479 628 601 653 543 b 400 219 653 339 536 219 b 143 467 261 219 143 333 b 399 724 143 606 261 724 b 533 686 446 724 479 714 m 401 658 b 213 474 296 658 213 576 b 399 286 213 369 296 286 b 585 472 501 286 585 369 b 401 658 585 574 501 658 "},"♀":{"ha":1042,"x_min":0,"x_max":0,"o":"m 489 506 b 268 751 363 524 268 631 b 519 1013 268 892 383 1013 b 774 760 657 1013 774 897 b 556 506 774 633 679 524 l 556 361 l 779 361 l 779 301 l 556 301 l 556 71 l 489 71 l 489 301 l 263 301 l 263 361 l 489 361 m 526 938 b 343 760 424 938 343 858 b 524 578 343 658 422 578 b 703 758 622 578 703 658 b 526 938 703 856 622 938 "},"♪":{"ha":694,"x_min":0,"x_max":0,"o":"m 326 1013 l 393 1013 l 393 924 b 414 897 404 908 413 899 l 492 804 b 624 476 581 699 624 590 b 540 239 624 388 594 306 l 500 239 b 547 457 535 321 547 381 b 393 710 547 583 478 697 l 393 265 b 172 25 393 125 301 25 b 71 113 110 25 71 58 b 247 282 71 203 154 282 b 326 265 274 282 304 275 "},"☼":{"ha":1274,"x_min":0,"x_max":0,"o":"m 233 853 l 292 910 l 413 789 b 596 867 467 832 529 858 l 596 1036 l 678 1036 l 678 865 b 864 789 747 857 813 831 l 985 910 l 1042 853 l 921 733 b 997 549 963 681 989 618 l 1168 549 l 1168 465 l 997 465 b 921 281 989 396 963 333 l 1042 160 l 985 103 l 864 224 b 678 147 808 181 743 154 l 678 -24 l 596 -24 l 596 147 b 413 224 532 154 471 179 l 292 103 l 233 160 l 354 281 b 279 465 314 331 286 399 l 107 465 l 107 549 l 279 549 b 356 732 288 619 311 675 m 640 771 b 379 514 494 771 379 657 b 638 253 379 368 493 253 b 897 513 781 253 897 369 b 640 771 897 653 781 771 "},"◦":{"ha":492,"x_min":0,"x_max":0,"o":"m 249 606 b 419 429 342 606 419 525 b 246 253 419 332 342 253 b 72 429 150 253 72 332 b 249 606 72 528 150 606 m 244 546 b 131 429 182 546 131 493 b 246 313 131 365 182 313 b 361 429 310 313 361 365 b 244 546 361 494 310 546 "},"◘":{"ha":839,"x_min":0,"x_max":0,"o":"m -11 861 l 850 861 l 850 0 l -11 0 m 418 608 b 242 425 324 608 242 524 b 411 253 242 333 321 253 b 597 433 510 253 597 338 b 418 608 597 528 515 608 "},"○":{"ha":839,"x_min":0,"x_max":0,"o":"m 419 894 b 807 507 631 894 807 719 b 417 119 807 294 631 119 b 32 513 206 119 32 297 b 419 894 32 718 211 894 m 419 826 b 100 513 246 826 100 683 b 417 188 100 332 242 188 b 739 507 596 188 739 331 b 419 826 739 683 596 826 "},"◙":{"ha":839,"x_min":0,"x_max":0,"o":"m 419 894 b 32 513 211 894 32 718 b 417 119 32 297 206 119 b 807 507 631 119 807 294 b 419 894 807 718 631 894 m -87 0 l -87 1013 l 925 1013 l 925 0 m 419 826 b 739 507 596 826 739 683 b 417 188 739 329 596 188 b 100 513 242 188 100 332 b 419 826 100 682 246 826 "},"▬":{"ha":1389,"x_min":0,"x_max":0,"o":"m 189 507 l 1201 507 l 1201 0 l 189 0 "},"■":{"ha":839,"x_min":0,"x_max":0,"o":"m 925 1013 l 925 0 l -87 0 l -87 1013 "},"□":{"ha":839,"x_min":0,"x_max":0,"o":"m 60 721 l 781 721 l 781 0 l 60 0 m 708 649 l 132 649 l 132 72 l 708 72 "},"▲":{"ha":1375,"x_min":0,"x_max":0,"o":"m 271 93 l 688 872 l 1104 93 "},"→":{"ha":1389,"x_min":0,"x_max":0,"o":"m 118 474 l 1038 474 b 979 567 1011 510 994 535 b 951 643 968 589 951 635 b 976 665 951 656 963 665 b 1003 650 986 665 992 663 b 1251 454 1074 567 1111 536 b 1268 429 1263 447 1268 440 b 1231 396 1268 419 1258 411 b 1013 226 1129 339 1068 292 b 976 199 992 203 988 199 b 951 221 963 199 951 208 b 1038 390 951 246 1004 350 l 118 390 "},"←":{"ha":1389,"x_min":0,"x_max":0,"o":"m 349 390 b 435 221 382 350 435 246 b 410 199 435 208 424 199 b 374 226 399 199 394 203 b 156 396 318 292 257 339 b 118 429 128 411 118 419 b 146 460 118 442 121 446 b 383 650 281 540 314 567 b 410 665 394 663 400 665 b 435 643 424 665 435 656 b 401 556 435 632 415 582 b 349 474 386 528 372 506 l 1268 474 l 1268 390 "},"↔":{"ha":1389,"x_min":0,"x_max":0,"o":"m 397 389 b 457 296 426 350 442 325 b 485 221 468 274 485 229 b 460 199 485 208 474 199 b 421 229 447 199 446 200 b 186 410 360 300 317 333 b 169 435 175 417 169 424 b 207 468 169 444 179 453 b 424 638 310 526 368 572 b 460 665 444 661 449 665 b 485 644 474 665 485 656 b 397 472 485 618 435 518 l 990 472 b 904 643 956 514 904 618 b 929 665 904 656 915 665 b 965 638 940 665 946 661 b 1182 468 1019 574 1081 526 b 1219 435 1211 451 1219 444 b 1193 404 1219 421 1217 417 b 956 214 1061 325 1024 296 b 929 199 944 201 939 199 b 904 222 915 199 904 208 b 990 389 904 249 944 326 "},"↑":{"ha":694,"x_min":0,"x_max":0,"o":"m 292 771 b 122 685 250 738 147 685 b 100 710 110 685 100 696 b 128 746 100 721 104 725 b 297 964 193 801 240 863 b 331 1001 313 992 321 1001 b 361 974 343 1001 347 999 b 551 736 442 839 468 806 b 567 710 564 725 567 719 b 544 685 567 696 557 685 b 457 718 533 685 483 704 b 375 771 429 733 407 747 l 375 -149 l 292 -149 "},"↓":{"ha":694,"x_min":0,"x_max":0,"o":"m 375 82 b 544 168 415 115 519 168 b 567 143 557 168 567 157 b 539 107 567 132 563 128 b 369 -111 474 51 426 -10 b 336 -149 354 -139 346 -149 b 306 -121 324 -149 319 -146 b 115 117 225 14 199 47 b 100 143 103 128 100 133 b 122 168 100 157 110 168 b 210 135 133 168 183 149 b 292 82 238 119 260 106 l 292 1001 l 375 1001 "},"↕":{"ha":694,"x_min":0,"x_max":0,"o":"m 292 771 b 122 685 250 738 147 685 b 100 710 110 685 100 696 b 128 746 100 721 104 725 b 297 964 193 801 240 863 b 331 1001 313 992 321 1001 b 361 974 343 1001 347 999 b 551 736 442 839 468 806 b 567 710 564 725 567 719 b 544 685 567 696 557 685 b 457 718 533 685 483 704 b 375 771 429 733 407 747 l 376 185 b 469 244 411 211 436 228 b 546 272 492 256 538 272 b 568 247 558 272 568 261 b 553 221 568 238 565 232 b 357 -28 469 151 439 113 b 332 -44 350 -39 343 -44 b 299 -7 322 -44 314 -35 b 129 211 242 94 194 156 b 101 247 106 232 101 236 b 124 272 101 261 111 272 b 293 185 149 272 250 221 "},"↨":{"ha":694,"x_min":0,"x_max":0,"o":"m 533 -94 l 533 -154 l 167 -154 l 167 -94 m 292 847 b 122 761 251 814 147 761 b 100 786 110 761 100 772 b 128 822 100 797 104 801 b 297 1040 193 878 240 939 b 331 1078 313 1068 321 1078 b 361 1050 343 1078 347 1075 b 551 813 442 915 468 882 b 567 786 564 801 567 796 b 544 761 567 772 557 761 b 457 794 533 761 483 781 b 375 847 429 810 408 824 l 376 261 b 469 319 413 288 438 304 b 546 347 492 331 538 347 b 568 322 558 347 568 336 b 553 296 568 313 565 307 b 357 47 469 226 439 188 b 332 31 350 36 343 31 b 299 68 322 31 314 40 b 129 286 242 169 194 231 b 101 322 106 307 101 311 b 124 347 101 336 111 347 b 293 261 149 347 251 296 "},"◊":{"ha":686,"x_min":0,"x_max":0,"o":"m 644 517 l 378 0 l 292 0 l 25 517 l 292 1033 l 378 1033 m 558 517 l 336 950 l 113 517 l 336 83 "},"▼":{"ha":1375,"x_min":0,"x_max":0,"o":"m 1104 833 l 688 54 l 271 833 "},"●":{"ha":839,"x_min":0,"x_max":0,"o":"m 426 721 b 781 361 619 721 781 557 b 421 0 781 161 619 0 b 60 364 219 0 60 161 b 426 721 60 563 222 721 "},"↵":{"ha":1389,"x_min":0,"x_max":0,"o":"m 1228 393 l 363 393 l 654 279 l 622 207 l 225 385 l 225 492 l 622 668 l 654 594 l 363 482 l 1139 482 l 1139 732 l 1228 732 "},"〈":{"ha":463,"x_min":0,"x_max":0,"o":"m 322 803 b 364 836 336 828 347 836 b 382 819 375 836 382 831 b 375 788 382 810 379 799 l 193 331 l 375 -126 b 382 -158 379 -137 382 -149 b 364 -174 382 -168 375 -174 b 322 -142 347 -174 333 -164 l 81 331 "},"〉":{"ha":463,"x_min":0,"x_max":0,"o":"m 140 -142 b 99 -174 126 -165 115 -174 b 81 -157 88 -174 81 -168 b 88 -126 81 -147 83 -136 l 269 331 l 88 788 b 81 819 83 800 81 811 b 99 836 81 831 88 836 b 140 803 115 836 128 826 l 382 331 "},"∀":{"ha":386,"x_min":0,"x_max":0,"o":"m 467 926 l 599 926 l 274 0 l 121 0 l -210 926 l -83 926 l 14 649 l 372 649 m 44 550 l 196 128 l 339 550 "},"ℵ":{"ha":694,"x_min":0,"x_max":0,"o":"m 508 625 l 453 625 b 376 644 410 625 390 629 b 346 733 357 661 346 696 b 406 876 346 788 365 833 l 406 854 b 478 794 406 810 425 794 l 572 794 b 657 696 633 794 657 767 b 639 576 657 656 651 619 b 589 625 633 611 619 625 l 558 625 l 497 478 b 476 389 481 433 476 414 b 542 249 476 343 490 314 l 596 181 b 642 82 631 136 642 111 b 621 0 642 54 635 29 l 206 522 b 174 431 179 474 174 457 b 238 288 174 389 190 351 b 326 103 314 185 326 158 b 174 0 326 21 296 0 l 60 0 l 60 85 l 85 85 b 133 124 115 85 133 99 b 97 199 133 139 133 139 b 57 307 69 247 57 279 b 96 419 57 333 71 374 l 174 565 l 76 686 b 39 769 49 721 39 743 b 60 857 39 799 46 826 l 415 406 "},"∃":{"ha":592,"x_min":0,"x_max":0,"o":"m -43 436 l -43 610 l 442 610 l 442 839 l -82 839 l -82 1013 l 650 1013 l 650 0 l -107 0 l -107 174 l 442 174 l 442 436 "},"ℑ":{"ha":1003,"x_min":0,"x_max":0,"o":"m 583 432 b 544 546 561 461 544 510 b 646 697 544 600 567 635 b 421 722 586 714 514 722 b 215 632 286 722 215 692 b 244 579 215 608 224 592 b 335 544 263 569 263 569 b 400 463 372 532 400 497 b 340 350 400 428 382 394 b 240 488 336 411 324 428 b 167 632 189 526 167 569 b 460 846 167 767 275 846 b 819 781 572 846 690 825 l 817 761 b 669 582 701 681 669 642 b 753 435 669 533 679 515 b 844 249 818 364 844 310 b 751 74 844 179 810 113 b 528 -14 681 26 578 -14 b 449 10 507 -14 483 -7 l 356 56 b 286 74 331 68 307 74 b 207 53 265 74 246 68 l 193 64 b 328 181 263 154 293 181 b 401 158 347 181 367 175 l 532 96 b 631 64 590 68 603 64 b 721 197 681 64 721 124 b 667 325 721 242 708 271 "},"ℜ":{"ha":1081,"x_min":0,"x_max":0,"o":"m 138 24 b 263 154 168 114 206 154 b 342 122 290 154 308 146 b 369 111 353 115 361 111 b 411 163 382 111 401 135 b 429 315 425 203 429 238 l 429 521 l 429 535 l 429 549 b 293 746 429 672 378 746 b 165 614 221 746 165 689 b 210 524 165 578 181 547 b 297 475 221 514 221 514 b 360 399 340 453 360 429 b 297 275 360 363 343 329 l 282 279 b 286 313 285 293 286 304 b 207 407 286 347 261 376 b 100 578 125 453 100 493 b 344 839 100 724 208 839 b 517 746 415 839 479 804 b 717 838 576 808 639 838 b 922 642 833 838 922 753 b 736 471 922 568 867 517 b 817 338 776 446 794 417 l 857 183 b 914 113 869 131 885 113 b 944 121 922 113 929 115 l 963 101 b 803 -8 908 33 849 -8 b 740 85 776 -8 756 24 l 682 318 b 643 407 665 385 661 396 b 581 421 629 417 611 421 b 558 419 576 421 568 421 l 558 340 b 497 103 558 244 538 164 b 340 -6 451 35 394 -6 b 238 38 303 -6 303 -6 b 201 49 228 44 215 49 b 161 17 186 49 175 39 m 558 471 b 710 521 644 492 669 500 b 778 632 751 543 778 586 b 647 751 778 701 724 751 b 539 714 604 751 579 743 b 558 522 556 654 558 638 "},"∇":{"ha":1029,"x_min":0,"x_max":0,"o":"m 935 875 l 575 0 l 453 0 l 96 875 m 768 774 l 261 774 l 514 142 "},"∆":{"ha":850,"x_min":0,"x_max":0,"o":"m 290 1013 l 558 1013 l 919 0 l -71 0 m 646 174 l 424 853 l 203 174 "},"⇓":{"ha":1003,"x_min":0,"x_max":0,"o":"m 600 213 l 600 900 l 658 900 l 658 281 l 731 364 l 810 364 l 501 0 l 193 364 l 272 364 l 344 281 l 344 900 l 403 900 l 403 213 l 501 99 "},"⇑":{"ha":1003,"x_min":0,"x_max":0,"o":"m 403 688 l 403 0 l 344 0 l 344 619 l 272 536 l 193 536 l 501 900 l 810 536 l 731 536 l 658 619 l 658 0 l 600 0 l 600 688 l 501 801 "},"≠":{"ha":763,"x_min":0,"x_max":0,"o":"m 69 72 l 69 238 l 260 238 l 354 406 l 69 406 l 69 571 l 447 571 l 538 733 l 674 656 l 625 571 l 742 571 l 742 406 l 533 406 l 439 238 l 742 238 l 742 72 l 346 72 l 251 -96 l 117 -18 l 171 72 "},"≡":{"ha":810,"x_min":0,"x_max":0,"o":"m 742 239 l 69 239 l 69 404 l 742 404 m 742 -94 l 69 -94 l 69 71 l 742 71 m 742 572 l 69 572 l 69 738 l 742 738 "},"√":{"ha":763,"x_min":0,"x_max":0,"o":"m 715 1261 l 504 -50 l 169 640 l 39 576 l 14 622 l 219 724 l 488 174 l 665 1268 "},"∫":{"ha":381,"x_min":0,"x_max":0,"o":"m 261 408 b 232 -22 261 168 254 67 b 108 -146 213 -103 169 -146 b 21 -69 60 -146 21 -112 b 88 -1 21 -32 51 -1 b 136 -21 107 -1 122 -8 b 163 -37 151 -36 154 -37 b 188 1 179 -37 188 -24 b 179 107 188 18 185 49 b 160 397 165 250 160 336 l 160 714 b 189 1144 160 960 167 1056 b 311 1268 208 1225 251 1268 b 399 1193 360 1268 399 1235 b 332 1124 399 1154 369 1124 b 283 1144 314 1124 297 1131 b 257 1161 268 1160 265 1161 b 232 1122 240 1161 232 1147 b 240 1017 232 1104 235 1075 b 261 726 253 888 261 778 "},"⌠":{"ha":839,"x_min":0,"x_max":0,"o":"m 389 -303 l 389 714 b 418 1144 389 960 396 1056 b 540 1268 438 1225 481 1268 b 628 1193 589 1268 628 1235 b 561 1124 628 1154 599 1124 b 513 1144 543 1124 526 1131 b 486 1161 497 1160 494 1161 b 461 1122 469 1161 461 1147 b 469 1017 461 1104 464 1075 b 490 725 482 888 490 778 l 490 -303 "},"⌡":{"ha":839,"x_min":0,"x_max":0,"o":"m 489 1268 l 489 251 b 460 -179 489 4 482 -90 b 338 -303 440 -260 397 -303 b 250 -228 289 -303 250 -269 b 317 -158 250 -189 279 -158 b 365 -179 335 -158 351 -165 b 392 -196 381 -194 383 -196 b 417 -157 408 -196 417 -182 b 408 -51 417 -140 414 -110 b 388 239 396 78 388 188 l 388 1268 "},"≈":{"ha":763,"x_min":0,"x_max":0,"o":"m 718 471 b 650 394 669 414 668 413 b 538 347 619 364 579 347 b 376 379 501 347 485 350 b 229 407 297 400 260 407 b 96 339 174 407 138 389 l 44 407 b 69 443 56 421 65 436 b 136 524 104 493 115 508 b 235 560 167 547 199 560 b 404 526 268 560 314 550 b 539 500 485 504 503 500 b 665 557 593 500 624 514 m 718 211 b 650 136 671 156 668 153 b 538 88 619 104 581 88 b 376 119 501 88 485 90 b 229 147 297 140 260 147 b 96 79 174 147 138 129 l 44 147 b 69 183 56 163 65 178 b 136 264 103 233 115 249 b 235 300 167 288 199 300 b 404 267 268 300 314 290 b 539 240 485 244 503 240 b 665 297 593 240 624 254 "},"≤":{"ha":763,"x_min":0,"x_max":0,"o":"m 718 -14 l 39 -14 l 39 113 l 718 113 m 718 736 l 188 551 l 718 369 l 718 215 l 39 468 l 39 635 l 718 888 "},"≥":{"ha":763,"x_min":0,"x_max":0,"o":"m 718 -14 l 39 -14 l 39 113 l 718 113 m 39 367 l 569 551 l 39 733 l 39 888 l 718 635 l 718 467 l 39 215 "},"⌐":{"ha":811,"x_min":0,"x_max":0,"o":"m 176 440 l 176 119 l 69 119 l 69 547 l 743 547 l 743 440 "},"∪":{"ha":1389,"x_min":0,"x_max":0,"o":"m 1000 435 b 946 121 1000 228 992 183 b 694 0 889 43 800 0 b 429 142 579 0 482 51 b 389 435 396 197 389 244 l 389 776 l 472 776 l 472 431 b 513 172 472 275 481 218 b 694 82 551 117 622 82 b 889 193 776 82 854 126 b 917 431 910 233 917 290 l 917 776 l 1000 776 "},"∩":{"ha":1003,"x_min":0,"x_max":0,"o":"m 740 0 l 740 375 b 701 653 740 542 732 606 b 501 754 660 715 585 754 b 293 636 411 754 329 708 b 263 375 271 593 263 521 l 263 0 l 156 0 l 156 371 b 215 714 156 593 165 646 b 501 849 279 803 379 849 b 804 690 635 849 744 792 b 847 371 839 629 847 574 l 847 0 "},"∈":{"ha":1389,"x_min":0,"x_max":0,"o":"m 424 300 b 661 86 432 153 510 83 l 1065 86 l 1065 0 l 676 0 b 496 25 581 0 543 6 b 324 349 386 72 324 188 b 461 642 324 481 371 582 b 676 686 513 676 561 686 l 1065 686 l 1065 600 l 661 600 b 424 385 510 603 432 533 l 1065 385 l 1065 300 "},"⊥":{"ha":1389,"x_min":0,"x_max":0,"o":"m 738 831 l 738 85 l 1110 85 l 1110 0 l 279 0 l 279 85 l 653 85 l 653 831 "},"∞":{"ha":990,"x_min":0,"x_max":0,"o":"m 494 413 b 596 497 563 472 569 478 b 761 561 646 536 711 561 b 956 367 868 561 956 474 b 761 172 956 260 868 172 b 596 236 710 172 646 197 b 494 321 569 256 563 261 b 394 236 428 261 421 256 b 229 172 343 197 281 172 b 35 367 122 172 35 260 b 229 561 35 474 122 561 b 394 497 279 561 344 536 b 494 413 421 478 428 472 m 544 367 b 760 243 624 288 701 243 b 883 367 828 243 883 299 b 760 489 883 433 828 489 b 544 367 701 489 625 446 m 446 367 b 231 489 367 446 289 489 b 107 367 163 489 107 433 b 231 244 107 300 163 244 b 446 367 289 244 367 289 "},"∝":{"ha":1389,"x_min":0,"x_max":0,"o":"m 947 146 b 697 289 864 142 775 193 b 657 244 675 263 668 256 b 456 147 601 182 528 147 b 274 335 347 147 274 224 b 460 526 274 447 351 526 b 697 385 542 526 622 479 b 931 526 767 476 847 526 l 947 526 l 947 442 l 939 442 b 764 338 879 442 828 411 b 947 232 838 257 879 233 m 629 338 b 603 363 617 350 617 350 b 457 442 536 425 504 442 b 356 338 394 442 356 401 b 449 232 356 274 393 232 b 615 322 506 232 551 257 b 629 338 624 331 624 331 "},"≅":{"ha":386,"x_min":0,"x_max":0,"o":"m 526 308 l -142 308 l -142 379 l 526 379 m 526 135 l -142 135 l -142 204 l 526 204 m 517 561 b 333 453 476 489 417 453 b 189 485 293 453 290 453 b 46 518 74 518 74 518 b -79 439 -3 518 -21 506 l -135 482 b 49 589 -85 554 -25 589 b 207 554 85 589 110 583 b 333 524 293 528 310 524 b 467 604 383 524 408 539 "},"∮":{"ha":1389,"x_min":0,"x_max":0,"o":"m 589 244 b 406 513 478 289 406 393 b 589 781 406 632 478 738 l 589 793 b 604 1047 590 996 590 996 b 857 1215 632 1150 729 1215 b 978 1200 896 1215 922 1213 l 944 1015 b 882 1031 918 1026 903 1031 b 806 981 844 1031 818 1013 b 799 892 800 967 799 946 l 799 781 b 981 513 907 739 981 631 b 799 244 981 394 908 288 l 799 207 b 783 -51 799 6 799 4 b 513 -217 754 -158 657 -217 b 410 -204 467 -217 439 -214 l 443 -19 b 503 -35 469 -31 483 -35 b 582 15 542 -35 571 -17 b 589 165 589 33 589 33 m 589 653 b 519 513 544 619 519 568 b 589 374 519 457 544 407 m 799 374 b 867 513 843 410 867 458 b 799 651 867 568 843 615 "},"∴":{"ha":1389,"x_min":0,"x_max":0,"o":"m 697 763 b 774 683 742 763 774 729 b 694 604 774 639 740 604 b 615 683 649 604 615 638 b 697 763 615 731 647 763 m 354 158 b 431 79 397 158 431 124 b 351 0 431 33 397 0 b 272 79 306 0 272 33 b 354 158 272 126 306 158 m 1040 158 b 1117 79 1083 158 1117 124 b 1038 0 1117 33 1083 0 b 958 79 992 0 958 33 b 1040 158 958 126 992 158 "},"∵":{"ha":1389,"x_min":0,"x_max":0,"o":"m 696 172 b 781 86 744 172 781 135 b 696 0 781 36 746 0 b 608 86 643 0 608 35 b 696 172 608 136 646 172 m 321 831 b 406 744 369 831 406 793 b 321 658 406 694 369 658 b 233 744 269 658 233 694 b 321 831 233 794 269 831 m 1071 831 b 1156 744 1119 831 1156 793 b 1071 658 1156 694 1119 658 b 983 744 1019 658 983 694 b 1071 831 983 794 1019 831 "},"∏":{"ha":1143,"x_min":0,"x_max":0,"o":"m 33 1056 l 1108 1056 l 1108 1021 b 976 882 1000 1017 975 992 l 976 53 b 1108 -86 975 -57 1000 -82 l 1108 -121 l 685 -121 l 685 -86 b 818 53 794 -82 818 -57 l 818 981 l 325 981 l 325 53 b 458 -86 324 -57 349 -82 l 458 -121 l 33 -121 l 33 -86 b 167 53 143 -82 168 -57 l 167 882 b 33 1021 168 992 143 1017 "},"∑":{"ha":833,"x_min":0,"x_max":0,"o":"m 743 825 l 717 825 b 536 982 689 950 654 979 l 215 982 l 546 490 l 190 24 l 608 24 b 800 181 731 22 753 40 l 831 181 b 797 13 813 104 801 47 b 782 -97 792 -25 788 -61 b 778 -122 782 -100 781 -108 l 1 -122 l 424 429 l 1 1046 l 735 1046 "},"ℓ":{"ha":679,"x_min":0,"x_max":0,"o":"m 236 403 b 188 85 214 296 188 119 b 213 50 188 60 194 50 b 286 132 238 50 256 69 b 318 161 297 153 306 161 b 342 138 332 161 342 151 b 314 63 342 121 332 93 b 186 -29 278 0 236 -29 b 81 100 121 -29 81 19 b 99 294 81 144 82 167 b 17 233 64 261 26 233 b -6 260 6 233 -6 247 b 28 304 -6 271 3 282 b 111 390 49 322 74 347 b 410 1032 196 835 288 1032 b 506 908 468 1032 506 983 b 414 622 506 828 471 719 b 236 403 378 561 324 496 m 251 496 b 444 913 369 626 444 788 b 410 967 444 944 431 967 b 251 496 351 967 308 839 "},"∂":{"ha":686,"x_min":0,"x_max":0,"o":"m 92 1003 b 275 1042 147 1028 213 1042 b 642 563 488 1042 642 840 b 550 143 642 418 603 238 b 300 -21 490 36 406 -21 b 36 249 151 -21 36 97 b 139 497 36 339 75 432 b 308 567 186 544 240 567 b 517 476 383 567 421 550 b 532 632 529 560 532 593 b 456 904 532 735 503 839 b 303 976 422 951 368 976 b 147 931 250 976 250 976 m 507 422 b 361 510 471 479 421 510 b 158 215 250 510 158 376 b 282 24 158 94 204 24 b 458 193 357 24 421 85 b 507 422 478 253 488 299 "},"⊗":{"ha":1389,"x_min":0,"x_max":0,"o":"m 703 874 b 1132 438 936 874 1132 675 b 696 0 1132 196 936 0 b 258 440 453 0 258 196 b 703 874 258 681 456 874 m 915 717 b 694 793 854 765 775 793 b 474 717 614 793 535 765 l 694 496 m 415 658 b 339 438 364 592 339 518 b 415 217 339 357 365 282 l 636 438 m 974 217 b 1049 438 1022 279 1049 357 b 974 658 1049 518 1024 593 l 753 438 m 474 158 b 694 82 532 110 613 82 b 915 158 776 82 857 110 l 694 379 "},"℘":{"ha":951,"x_min":0,"x_max":0,"o":"m 450 536 b 265 281 319 460 265 385 b 282 199 265 250 269 225 b 703 492 500 426 593 492 b 839 332 783 492 839 428 b 751 113 839 256 808 178 b 538 -10 686 36 607 -10 b 417 99 467 -10 417 35 b 490 194 417 151 450 194 b 531 156 514 194 531 178 b 479 106 531 129 510 108 b 450 76 460 104 450 94 b 532 15 450 44 489 15 b 665 103 578 15 631 49 b 746 354 713 172 746 279 b 668 457 746 415 715 457 b 481 357 618 457 567 431 b 294 171 403 293 349 239 b 372 -68 351 53 372 -12 b 238 -235 372 -161 313 -235 b 118 -104 169 -235 118 -179 b 210 103 118 -47 139 -1 b 178 236 188 161 178 200 b 435 558 178 349 265 458 m 222 75 b 143 -107 153 -31 143 -53 b 232 -210 143 -167 181 -210 b 303 -136 274 -210 303 -179 b 222 75 303 -90 279 -29 "},"⊄":{"ha":1389,"x_min":0,"x_max":0,"o":"m 538 -87 l 481 -51 l 519 17 b 324 349 394 57 324 176 b 460 642 324 481 371 582 b 676 686 513 676 561 686 l 913 686 l 972 788 l 1031 753 l 992 686 l 1065 686 l 1065 600 l 940 600 l 639 86 l 661 86 l 1065 86 l 1065 0 l 676 0 b 590 3 629 0 621 0 m 661 600 b 421 343 493 600 421 522 b 567 96 421 203 468 122 l 863 600 "},"∠":{"ha":1389,"x_min":0,"x_max":0,"o":"m 933 533 l 444 58 l 1096 58 l 1096 0 l 293 0 l 893 579 "},"⊃":{"ha":1389,"x_min":0,"x_max":0,"o":"m 728 86 b 968 343 896 86 968 163 b 728 600 968 524 896 600 l 324 600 l 324 686 l 713 686 b 893 661 808 686 846 681 b 1065 343 1001 615 1065 497 b 929 44 1065 206 1019 104 b 713 0 876 10 828 0 l 324 0 l 324 86 "},"⊂":{"ha":1389,"x_min":0,"x_max":0,"o":"m 1065 0 l 676 0 b 496 25 581 0 543 6 b 324 349 386 72 324 189 b 461 642 324 482 371 582 b 676 686 513 676 561 686 l 1065 686 l 1065 600 l 661 600 b 421 343 493 600 421 522 b 661 86 421 163 493 86 l 1065 86 "},"⊇":{"ha":1389,"x_min":0,"x_max":0,"o":"m 728 231 b 968 489 896 231 968 308 b 728 746 968 669 896 746 l 324 746 l 324 832 l 713 832 b 893 807 808 832 846 826 b 1065 488 1001 761 1065 643 b 929 189 1065 350 1019 249 b 713 144 876 154 828 144 l 324 144 l 324 231 m 1065 0 l 324 0 l 324 76 l 1065 76 "},"⊆":{"ha":1389,"x_min":0,"x_max":0,"o":"m 1065 144 l 676 144 b 444 201 551 144 500 157 b 324 493 363 265 324 358 b 461 788 324 626 371 728 b 676 832 513 822 561 832 l 1065 832 l 1065 746 l 661 746 b 421 489 493 746 421 668 b 661 231 421 308 493 231 l 1065 231 m 1065 0 l 324 0 l 324 76 l 1065 76 "},"∉":{"ha":1389,"x_min":0,"x_max":0,"o":"m 613 88 b 661 86 625 86 633 86 l 1065 86 l 1065 0 l 676 0 b 565 6 618 0 601 1 l 513 -87 l 453 -56 l 499 24 b 324 349 386 71 324 188 b 460 642 324 481 371 582 b 676 686 513 676 561 686 l 875 686 l 940 801 l 999 768 l 953 686 l 1065 686 l 1065 600 l 904 600 l 782 385 l 1065 385 l 1065 300 l 733 300 m 424 300 b 543 104 428 200 471 129 l 656 300 m 661 600 b 424 385 510 603 432 533 l 704 385 l 826 600 "},"⇐":{"ha":1003,"x_min":0,"x_max":0,"o":"m 224 311 l 990 311 l 990 253 l 292 253 l 375 181 l 375 101 l 11 410 l 375 718 l 375 639 l 292 567 l 990 567 l 990 508 l 224 508 l 110 410 "},"⇒":{"ha":1003,"x_min":0,"x_max":0,"o":"m 779 508 l 13 508 l 13 567 l 711 567 l 628 639 l 628 718 l 992 410 l 628 101 l 628 181 l 711 253 l 13 253 l 13 311 l 779 311 l 893 410 "},"⇔":{"ha":1003,"x_min":0,"x_max":0,"o":"m 719 567 l 636 639 l 636 718 l 1000 410 l 636 101 l 636 181 l 719 253 l 289 253 l 372 181 l 372 101 l 8 410 l 372 718 l 372 639 l 289 567 m 107 410 l 221 311 l 788 311 l 901 410 l 788 508 l 221 508 "},"‗":{"ha":767,"x_min":0,"x_max":0,"o":"m 800 -454 l -33 -454 l -33 -358 l 800 -358 m 800 -262 l -33 -262 l -33 -167 l 800 -167 "},"‾":{"ha":463,"x_min":0,"x_max":0,"o":"m 647 1179 l -186 1179 l -186 1275 l 647 1275 "},"∅":{"ha":1389,"x_min":0,"x_max":0,"o":"m 313 193 b 232 463 258 278 232 365 b 704 943 232 728 443 943 b 1040 800 832 943 946 894 l 1193 929 l 1238 876 l 1083 749 b 1175 463 1146 660 1175 568 b 704 -18 1175 197 964 -18 b 354 140 569 -18 450 36 l 188 1 l 144 53 m 989 758 b 703 882 911 839 813 882 b 301 463 481 882 301 694 b 365 238 301 382 321 313 m 406 182 b 704 43 486 90 589 43 b 1106 461 925 43 1106 231 b 1032 706 1106 549 1079 636 "},"‼":{"ha":839,"x_min":0,"x_max":0,"o":"m 342 717 l 283 288 l 190 288 l 133 717 l 133 1008 l 342 1008 m 342 0 l 133 0 l 133 203 l 342 203 m 764 717 l 706 288 l 613 288 l 556 717 l 556 1008 l 764 1008 m 764 0 l 556 0 l 556 203 l 764 203 "},"∥":{"ha":1003,"x_min":0,"x_max":0,"o":"m 561 0 l 561 928 l 654 928 l 654 0 m 442 0 l 349 0 l 349 928 l 442 928 "},"▪":{"ha":492,"x_min":0,"x_max":0,"o":"m 68 538 l 424 538 l 424 182 l 68 182 "},"▫":{"ha":492,"x_min":0,"x_max":0,"o":"m 68 539 l 424 539 l 424 182 l 68 182 m 351 467 l 140 467 l 140 254 l 351 254 "},"∟":{"ha":1360,"x_min":0,"x_max":0,"o":"m 69 1208 l 161 1208 l 161 92 l 1292 92 l 1292 0 l 69 0 "},"░":{"ha":983,"x_min":0,"x_max":0,"o":"m -64 1042 l -64 903 l -203 903 l -203 1042 m 214 1042 l 214 903 l 75 903 l 75 1042 m 1047 1042 l 1047 903 l 908 903 l 908 1042 m 492 1042 l 492 903 l 353 903 l 353 1042 m 769 1042 l 769 903 l 631 903 l 631 1042 m -64 764 l -64 625 l -203 625 l -203 764 m -64 486 l -64 347 l -203 347 l -203 486 m -64 208 l -64 69 l -203 69 l -203 208 m -64 -69 l -64 -208 l -203 -208 l -203 -69 m 214 764 l 214 625 l 75 625 l 75 764 m 214 486 l 214 347 l 75 347 l 75 486 m 214 208 l 214 69 l 75 69 l 75 208 m 214 -69 l 214 -208 l 75 -208 l 75 -69 m 492 764 l 492 625 l 353 625 l 353 764 m 492 486 l 492 347 l 353 347 l 353 486 m 492 208 l 492 69 l 353 69 l 353 208 m 492 -69 l 492 -208 l 353 -208 l 353 -69 m 769 764 l 769 625 l 631 625 l 631 764 m 769 486 l 769 347 l 631 347 l 631 486 m 769 208 l 769 69 l 631 69 l 631 208 m 769 -69 l 769 -208 l 631 -208 l 631 -69 m 1047 764 l 1047 625 l 908 625 l 908 764 m 1047 486 l 1047 347 l 908 347 l 908 486 m 1047 208 l 1047 69 l 908 69 l 908 208 m 1047 -69 l 1047 -208 l 908 -208 l 908 -69 "},"▒":{"ha":983,"x_min":0,"x_max":0,"o":"m -64 1042 l -64 903 l -203 903 l -203 1042 m 214 1042 l 214 903 l 75 903 l 75 1042 m 1047 1042 l 1047 903 l 908 903 l 908 1042 m 492 1042 l 492 903 l 353 903 l 353 1042 m 769 1042 l 769 903 l 631 903 l 631 1042 m 75 903 l 75 764 l -64 764 l -64 903 m 353 903 l 353 764 l 214 764 l 214 903 m 631 903 l 631 764 l 492 764 l 492 903 m 908 903 l 908 764 l 769 764 l 769 903 m 1186 903 l 1186 764 l 1047 764 l 1047 903 m -64 -69 l -64 -208 l -203 -208 l -203 -69 m 214 -69 l 214 -208 l 75 -208 l 75 -69 m 1047 -69 l 1047 -208 l 908 -208 l 908 -69 m 492 -69 l 492 -208 l 353 -208 l 353 -69 m 769 -69 l 769 -208 l 631 -208 l 631 -69 m 75 -208 l 75 -347 l -64 -347 l -64 -208 m 353 -208 l 353 -347 l 214 -347 l 214 -208 m 631 -208 l 631 -347 l 492 -347 l 492 -208 m 908 -208 l 908 -347 l 769 -347 l 769 -208 m 1186 -208 l 1186 -347 l 1047 -347 l 1047 -208 m -64 208 l -64 69 l -203 69 l -203 208 m 214 208 l 214 69 l 75 69 l 75 208 m 1047 208 l 1047 69 l 908 69 l 908 208 m 492 208 l 492 69 l 353 69 l 353 208 m 769 208 l 769 69 l 631 69 l 631 208 m 75 69 l 75 -69 l -64 -69 l -64 69 m 353 69 l 353 -69 l 214 -69 l 214 69 m 631 69 l 631 -69 l 492 -69 l 492 69 m 908 69 l 908 -69 l 769 -69 l 769 69 m 1186 69 l 1186 -69 l 1047 -69 l 1047 69 m -64 486 l -64 347 l -203 347 l -203 486 m 214 486 l 214 347 l 75 347 l 75 486 m 1047 486 l 1047 347 l 908 347 l 908 486 m 492 486 l 492 347 l 353 347 l 353 486 m 769 486 l 769 347 l 631 347 l 631 486 m 75 347 l 75 208 l -64 208 l -64 347 m 353 347 l 353 208 l 214 208 l 214 347 m 631 347 l 631 208 l 492 208 l 492 347 m 908 347 l 908 208 l 769 208 l 769 347 m 1186 347 l 1186 208 l 1047 208 l 1047 347 m -64 764 l -64 625 l -203 625 l -203 764 m 214 764 l 214 625 l 75 625 l 75 764 m 1047 764 l 1047 625 l 908 625 l 908 764 m 492 764 l 492 625 l 353 625 l 353 764 m 769 764 l 769 625 l 631 625 l 631 764 m 75 625 l 75 486 l -64 486 l -64 625 m 353 625 l 353 486 l 214 486 l 214 625 m 631 625 l 631 486 l 492 486 l 492 625 m 908 625 l 908 486 l 769 486 l 769 625 m 1186 625 l 1186 486 l 1047 486 l 1047 625 "},"▓":{"ha":1013,"x_min":0,"x_max":0,"o":"m -189 -347 l -189 -208 l -50 -208 l -50 -69 l -189 -69 l -189 69 l -50 69 l -50 208 l -189 208 l -189 347 l -50 347 l -50 486 l -189 486 l -189 625 l -50 625 l -50 764 l -189 764 l -189 903 l -50 903 l -50 1042 l 89 1042 l 89 903 l 228 903 l 228 1042 l 367 1042 l 367 903 l 506 903 l 506 1042 l 644 1042 l 644 903 l 783 903 l 783 1042 l 922 1042 l 922 903 l 1061 903 l 1061 1042 l 1200 1042 l 1200 -347 m 922 764 l 922 625 l 1061 625 l 1061 764 m 644 764 l 644 625 l 783 625 l 783 764 m 367 764 l 367 625 l 506 625 l 506 764 m 89 764 l 89 625 l 228 625 l 228 764 m 922 486 l 922 347 l 1061 347 l 1061 486 m 644 486 l 644 347 l 783 347 l 783 486 m 367 486 l 367 347 l 506 347 l 506 486 m 89 486 l 89 347 l 228 347 l 228 486 m 922 208 l 922 69 l 1061 69 l 1061 208 m 644 208 l 644 69 l 783 69 l 783 208 m 367 208 l 367 69 l 506 69 l 506 208 m 89 208 l 89 69 l 228 69 l 228 208 m 922 -69 l 922 -208 l 1061 -208 l 1061 -69 m 644 -69 l 644 -208 l 783 -208 l 783 -69 m 367 -69 l 367 -208 l 506 -208 l 506 -69 m 89 -69 l 89 -208 l 228 -208 l 228 -69 "},"│":{"ha":868,"x_min":0,"x_max":0,"o":"m 389 1042 l 481 1042 l 481 -347 l 389 -347 "},"┤":{"ha":983,"x_min":0,"x_max":0,"o":"m -203 301 l -203 393 l 446 393 l 446 1042 l 538 1042 l 538 -347 l 446 -347 l 446 301 "},"╡":{"ha":983,"x_min":0,"x_max":0,"o":"m 446 1042 l 538 1042 l 538 -347 l 446 -347 l 446 210 l -203 210 l -203 301 l 446 301 l 446 393 l -203 393 l -203 485 l 446 485 "},"╢":{"ha":983,"x_min":0,"x_max":0,"o":"m -203 301 l -203 393 l 354 393 l 354 1042 l 446 1042 l 446 -347 l 354 -347 l 354 301 m 538 1042 l 629 1042 l 629 -347 l 538 -347 "},"╖":{"ha":983,"x_min":0,"x_max":0,"o":"m 446 -347 l 354 -347 l 354 301 l -203 301 l -203 393 l 629 393 l 629 -347 l 538 -347 l 538 301 l 446 301 "},"╕":{"ha":983,"x_min":0,"x_max":0,"o":"m -203 210 l -203 301 l 446 301 l 446 393 l -203 393 l -203 485 l 538 485 l 538 -347 l 446 -347 l 446 210 "},"╣":{"ha":983,"x_min":0,"x_max":0,"o":"m 538 -347 l 538 1042 l 629 1042 l 629 -347 m 354 1042 l 446 1042 l 446 393 l -203 393 l -203 485 l 354 485 m -203 210 l -203 301 l 446 301 l 446 -347 l 354 -347 l 354 210 "},"║":{"ha":983,"x_min":0,"x_max":0,"o":"m 354 1042 l 446 1042 l 446 -347 l 354 -347 m 538 1042 l 629 1042 l 629 -347 l 538 -347 "},"╗":{"ha":983,"x_min":0,"x_max":0,"o":"m -203 393 l -203 485 l 629 485 l 629 -347 l 538 -347 l 538 393 m -203 210 l -203 301 l 446 301 l 446 -347 l 354 -347 l 354 210 "},"╝":{"ha":983,"x_min":0,"x_max":0,"o":"m 538 1042 l 629 1042 l 629 210 l -203 210 l -203 301 l 538 301 m 354 1042 l 446 1042 l 446 393 l -203 393 l -203 485 l 354 485 "},"╜":{"ha":983,"x_min":0,"x_max":0,"o":"m 538 393 l 538 1042 l 629 1042 l 629 301 l -203 301 l -203 393 l 354 393 l 354 1042 l 446 1042 l 446 393 "},"╛":{"ha":983,"x_min":0,"x_max":0,"o":"m 446 1042 l 538 1042 l 538 210 l -203 210 l -203 301 l 446 301 l 446 393 l -203 393 l -203 485 l 446 485 "},"┐":{"ha":983,"x_min":0,"x_max":0,"o":"m -203 301 l -203 393 l 538 393 l 538 -347 l 446 -347 l 446 301 "},"└":{"ha":983,"x_min":0,"x_max":0,"o":"m 1186 393 l 1186 301 l 446 301 l 446 1042 l 538 1042 l 538 393 "},"┴":{"ha":983,"x_min":0,"x_max":0,"o":"m 446 1042 l 538 1042 l 538 393 l 1186 393 l 1186 301 l -203 301 l -203 393 l 446 393 "},"┬":{"ha":983,"x_min":0,"x_max":0,"o":"m 538 -347 l 446 -347 l 446 301 l -203 301 l -203 393 l 1186 393 l 1186 301 l 538 301 "},"├":{"ha":983,"x_min":0,"x_max":0,"o":"m 1186 393 l 1186 301 l 538 301 l 538 -347 l 446 -347 l 446 1042 l 538 1042 l 538 393 "},"─":{"ha":983,"x_min":0,"x_max":0,"o":"m -203 393 l 1186 393 l 1186 301 l -203 301 "},"┼":{"ha":983,"x_min":0,"x_max":0,"o":"m -203 301 l -203 393 l 446 393 l 446 1042 l 538 1042 l 538 393 l 1186 393 l 1186 301 l 538 301 l 538 -347 l 446 -347 l 446 301 "},"╞":{"ha":983,"x_min":0,"x_max":0,"o":"m 538 1042 l 538 485 l 1186 485 l 1186 393 l 538 393 l 538 301 l 1186 301 l 1186 210 l 538 210 l 538 -347 l 446 -347 l 446 1042 "},"╟":{"ha":983,"x_min":0,"x_max":0,"o":"m 629 -347 l 538 -347 l 538 1042 l 629 1042 l 629 393 l 1186 393 l 1186 301 l 629 301 m 354 -347 l 354 1042 l 446 1042 l 446 -347 "},"╚":{"ha":983,"x_min":0,"x_max":0,"o":"m 1186 301 l 1186 210 l 354 210 l 354 1042 l 446 1042 l 446 301 m 1186 485 l 1186 393 l 538 393 l 538 1042 l 629 1042 l 629 485 "},"╔":{"ha":983,"x_min":0,"x_max":0,"o":"m 446 -347 l 354 -347 l 354 485 l 1186 485 l 1186 393 l 446 393 m 629 -347 l 538 -347 l 538 301 l 1186 301 l 1186 210 l 629 210 "},"╩":{"ha":983,"x_min":0,"x_max":0,"o":"m -203 301 l 1186 301 l 1186 210 l -203 210 m 1186 485 l 1186 393 l 538 393 l 538 1042 l 629 1042 l 629 485 m 354 1042 l 446 1042 l 446 393 l -203 393 l -203 485 l 354 485 "},"╦":{"ha":983,"x_min":0,"x_max":0,"o":"m 1186 485 l 1186 393 l -203 393 l -203 485 m 629 -347 l 538 -347 l 538 301 l 1186 301 l 1186 210 l 629 210 m -203 210 l -203 301 l 446 301 l 446 -347 l 354 -347 l 354 210 "},"╠":{"ha":983,"x_min":0,"x_max":0,"o":"m 354 1042 l 446 1042 l 446 -347 l 354 -347 m 1186 485 l 1186 393 l 538 393 l 538 1042 l 629 1042 l 629 485 m 629 -347 l 538 -347 l 538 301 l 1186 301 l 1186 210 l 629 210 "},"═":{"ha":983,"x_min":0,"x_max":0,"o":"m -203 301 l 1186 301 l 1186 210 l -203 210 m -203 485 l 1186 485 l 1186 393 l -203 393 "},"╬":{"ha":983,"x_min":0,"x_max":0,"o":"m 1186 485 l 1186 393 l 538 393 l 538 1042 l 629 1042 l 629 485 m 354 1042 l 446 1042 l 446 393 l -203 393 l -203 485 l 354 485 m 629 -347 l 538 -347 l 538 301 l 1186 301 l 1186 210 l 629 210 m -203 210 l -203 301 l 446 301 l 446 -347 l 354 -347 l 354 210 "},"╧":{"ha":983,"x_min":0,"x_max":0,"o":"m -203 301 l 1186 301 l 1186 210 l -203 210 m 446 1042 l 538 1042 l 538 485 l 1186 485 l 1186 393 l -203 393 l -203 485 l 446 485 "},"╨":{"ha":983,"x_min":0,"x_max":0,"o":"m -203 393 l 354 393 l 354 1042 l 446 1042 l 446 393 l 538 393 l 538 1042 l 629 1042 l 629 393 l 1186 393 l 1186 301 l -203 301 "},"╤":{"ha":983,"x_min":0,"x_max":0,"o":"m 1186 485 l 1186 393 l -203 393 l -203 485 m -203 210 l -203 301 l 1186 301 l 1186 210 l 538 210 l 538 -347 l 446 -347 l 446 210 "},"╥":{"ha":983,"x_min":0,"x_max":0,"o":"m -203 301 l -203 393 l 1186 393 l 1186 301 l 629 301 l 629 -347 l 538 -347 l 538 301 l 446 301 l 446 -347 l 354 -347 l 354 301 "},"╙":{"ha":983,"x_min":0,"x_max":0,"o":"m 538 1042 l 629 1042 l 629 393 l 1186 393 l 1186 301 l 354 301 l 354 1042 l 446 1042 l 446 393 l 538 393 "},"╘":{"ha":983,"x_min":0,"x_max":0,"o":"m 538 1042 l 538 485 l 1186 485 l 1186 393 l 538 393 l 538 301 l 1186 301 l 1186 210 l 446 210 l 446 1042 "},"╒":{"ha":983,"x_min":0,"x_max":0,"o":"m 446 485 l 1186 485 l 1186 393 l 538 393 l 538 301 l 1186 301 l 1186 210 l 538 210 l 538 -347 l 446 -347 "},"╓":{"ha":983,"x_min":0,"x_max":0,"o":"m 446 301 l 446 -347 l 354 -347 l 354 393 l 1186 393 l 1186 301 l 629 301 l 629 -347 l 538 -347 l 538 301 "},"╫":{"ha":983,"x_min":0,"x_max":0,"o":"m -203 301 l -203 393 l 354 393 l 354 1042 l 446 1042 l 446 393 l 538 393 l 538 1042 l 629 1042 l 629 393 l 1186 393 l 1186 301 l 629 301 l 629 -347 l 538 -347 l 538 301 l 446 301 l 446 -347 l 354 -347 l 354 301 "},"╪":{"ha":983,"x_min":0,"x_max":0,"o":"m 446 393 l -203 393 l -203 485 l 446 485 l 446 1042 l 538 1042 l 538 485 l 1186 485 l 1186 393 l 538 393 l 538 301 l 1186 301 l 1186 210 l 538 210 l 538 -347 l 446 -347 l 446 210 l -203 210 l -203 301 l 446 301 "},"┘":{"ha":983,"x_min":0,"x_max":0,"o":"m -203 393 l 446 393 l 446 1042 l 538 1042 l 538 301 l -203 301 "},"┌":{"ha":983,"x_min":0,"x_max":0,"o":"m 1186 301 l 538 301 l 538 -347 l 446 -347 l 446 393 l 1186 393 "},"█":{"ha":983,"x_min":0,"x_max":0,"o":"m -203 1042 l 1186 1042 l 1186 -347 l -203 -347 "},"▐":{"ha":983,"x_min":0,"x_max":0,"o":"m 492 1042 l 1186 1042 l 1186 -347 l 492 -347 "},"▌":{"ha":983,"x_min":0,"x_max":0,"o":"m -203 1042 l 492 1042 l 492 -347 l -203 -347 "},"▄":{"ha":983,"x_min":0,"x_max":0,"o":"m -203 347 l 1186 347 l 1186 -347 l -203 -347 "},"▀":{"ha":983,"x_min":0,"x_max":0,"o":"m -203 1042 l 1186 1042 l 1186 347 l -203 347 "},"′":{"ha":333,"x_min":0,"x_max":0,"o":"m 160 579 l 81 579 l 156 935 l 258 935 "},"″":{"ha":665,"x_min":0,"x_max":0,"o":"m 236 579 l 157 579 l 232 935 l 335 935 m 421 579 l 342 579 l 417 935 l 519 935 "},"⌂":{"ha":839,"x_min":0,"x_max":0,"o":"m 38 557 l 419 1013 l 801 557 l 801 0 l 38 0 m 731 71 l 731 526 l 419 901 l 108 526 l 108 71 "},"Ω":{"ha":1067,"x_min":0,"x_max":0,"o":"m 461 0 l 28 0 l 28 174 l 264 174 b 128 288 185 226 160 247 b 47 551 75 356 47 447 b 533 1029 47 828 251 1029 b 1018 553 814 1029 1018 828 b 925 272 1018 439 986 343 b 801 174 897 240 874 221 l 1038 174 l 1038 0 l 604 0 l 604 174 b 738 285 679 222 710 247 b 808 540 783 347 808 439 b 532 874 808 743 700 874 b 257 540 365 874 257 743 b 338 272 257 431 286 335 b 461 174 364 240 393 217 "},"⊅":{"ha":1389,"x_min":0,"x_max":0,"o":"m 289 0 l 289 93 l 485 93 l 813 651 b 731 657 789 656 768 657 l 289 657 l 289 750 l 713 750 b 864 739 792 750 821 747 l 935 860 l 999 824 l 933 713 b 1099 369 1042 651 1099 535 b 950 47 1099 224 1047 111 b 713 0 893 11 839 0 l 515 0 l 460 -96 l 397 -56 l 431 0 m 571 93 l 731 93 b 993 375 914 93 993 178 b 883 626 993 503 957 586 "},"∓":{"ha":1389,"x_min":0,"x_max":0,"o":"m 329 919 l 1057 919 l 1057 843 l 329 843 m 657 0 l 657 332 l 328 332 l 328 408 l 657 408 l 657 740 l 733 740 l 733 408 l 1063 408 l 1063 332 l 733 332 l 733 0 "},"↖":{"ha":1003,"x_min":0,"x_max":0,"o":"m 875 178 l 817 119 l 211 726 l 211 521 l 126 521 l 126 869 l 474 869 l 474 785 l 269 785 "},"↘":{"ha":1003,"x_min":0,"x_max":0,"o":"m 126 811 l 185 869 l 792 263 l 792 468 l 876 468 l 876 119 l 528 119 l 528 204 l 733 204 "},"↗":{"ha":1003,"x_min":0,"x_max":0,"o":"m 528 785 l 528 869 l 876 869 l 876 521 l 792 521 l 792 726 l 185 119 l 126 178 l 733 785 "},"↙":{"ha":1003,"x_min":0,"x_max":0,"o":"m 474 204 l 474 119 l 126 119 l 126 468 l 211 468 l 211 263 l 817 869 l 875 811 l 269 204 "},"∗":{"ha":1389,"x_min":0,"x_max":0,"o":"m 496 388 l 549 478 l 665 376 l 639 531 l 750 531 l 724 376 l 840 478 l 893 388 l 747 336 l 893 283 l 840 193 l 724 294 l 750 140 l 639 140 l 665 294 l 549 193 l 496 283 l 642 336 "},"∷":{"ha":1389,"x_min":0,"x_max":0,"o":"m 360 172 b 444 86 408 172 444 135 b 358 0 444 36 408 0 b 272 86 308 0 272 36 b 360 172 272 136 308 172 m 1031 172 b 1115 86 1079 172 1115 135 b 1029 0 1115 36 1079 0 b 943 86 979 0 943 36 b 1031 172 943 136 979 172 m 360 832 b 444 746 408 832 444 796 b 358 660 444 696 408 660 b 272 746 308 660 272 696 b 360 832 272 796 308 832 m 1031 832 b 1115 746 1079 832 1115 796 b 1029 660 1115 696 1079 660 b 943 746 979 660 943 696 b 1031 832 943 796 979 832 "},"∋":{"ha":1389,"x_min":0,"x_max":0,"o":"m 324 385 l 965 385 b 728 600 958 532 879 603 l 324 600 l 324 686 l 713 686 b 893 661 808 686 846 681 b 1065 347 1000 615 1065 497 b 929 44 1065 206 1021 106 b 713 0 876 10 828 0 l 324 0 l 324 86 l 728 86 b 965 300 879 82 958 153 l 324 300 "},"℮":{"ha":833,"x_min":0,"x_max":0,"o":"m 222 339 l 221 208 b 271 117 236 160 249 138 b 413 72 304 88 353 72 b 629 203 514 72 592 119 b 635 217 631 207 633 214 l 724 217 l 721 207 l 718 200 b 410 -15 675 60 568 -15 b 74 358 200 -15 74 125 b 413 742 74 592 206 742 b 710 557 550 742 663 672 b 740 361 731 503 738 463 l 740 349 l 740 339 m 611 526 b 582 576 603 550 597 560 b 411 653 536 631 486 653 b 225 525 318 653 269 619 l 225 414 l 611 414 "},"►":{"ha":1375,"x_min":0,"x_max":0,"o":"m 322 190 l 322 746 l 1108 468 "},"◄":{"ha":1375,"x_min":0,"x_max":0,"o":"m 1054 746 l 1054 190 l 268 468 "},"♫":{"ha":1042,"x_min":0,"x_max":0,"o":"m 886 818 l 886 199 b 846 49 886 131 875 89 b 678 -40 807 -7 743 -40 b 579 44 617 -40 579 -8 b 749 204 579 129 658 204 b 822 189 774 204 797 200 l 822 699 l 421 760 l 421 276 b 381 126 421 208 410 167 b 213 38 342 71 278 38 b 114 122 151 38 114 69 b 283 282 114 207 193 282 b 357 267 308 282 332 278 l 357 896 "},"Α":{"ha":1003,"x_min":0,"x_max":0,"o":"m 317 204 l 249 0 l 36 0 l 396 1013 l 626 1013 l 976 0 l 763 0 l 696 204 m 507 774 l 375 378 l 639 378 "},"Β":{"ha":1003,"x_min":0,"x_max":0,"o":"m 114 1013 l 565 1013 b 804 939 674 1013 744 990 b 896 746 861 889 896 817 b 757 538 896 660 857 601 b 925 292 872 471 925 392 b 825 74 925 210 886 125 b 569 0 764 22 686 0 l 114 0 m 322 610 l 549 610 b 696 725 646 610 696 649 b 549 839 696 800 646 839 l 322 839 m 322 174 l 571 174 b 725 304 672 174 725 218 b 571 436 725 392 672 436 l 322 436 "},"Γ":{"ha":835,"x_min":0,"x_max":0,"o":"m 103 1013 l 814 1013 l 814 839 l 311 839 l 311 0 l 103 0 "},"Δ":{"ha":999,"x_min":0,"x_max":0,"o":"m 365 1013 l 633 1013 l 994 0 l 4 0 m 721 174 l 499 813 l 278 174 "},"Ε":{"ha":926,"x_min":0,"x_max":0,"o":"m 318 174 l 867 174 l 867 0 l 110 0 l 110 1013 l 842 1013 l 842 839 l 318 839 l 318 610 l 803 610 l 803 436 l 318 436 "},"Ζ":{"ha":849,"x_min":0,"x_max":0,"o":"m 803 839 l 286 174 l 803 174 l 803 0 l 42 0 l 42 174 l 560 839 l 42 839 l 42 1013 l 803 1013 "},"Η":{"ha":1003,"x_min":0,"x_max":0,"o":"m 303 460 l 303 0 l 94 0 l 94 1013 l 303 1013 l 303 633 l 703 633 l 703 1013 l 913 1013 l 913 0 l 704 0 l 704 460 "},"Θ":{"ha":1081,"x_min":0,"x_max":0,"o":"m 729 429 l 358 429 l 358 565 l 729 565 m 542 1029 b 889 889 689 1029 800 985 b 1031 492 979 793 1031 650 b 889 108 1031 349 976 201 b 543 -32 801 14 688 -32 b 197 108 399 -32 285 14 b 56 499 107 204 56 347 b 197 889 56 650 107 792 b 542 1029 283 982 400 1029 m 543 851 b 264 499 374 851 264 713 b 543 146 264 285 374 146 b 822 493 710 146 822 285 b 543 851 822 713 714 851 "},"Ι":{"ha":386,"x_min":0,"x_max":0,"o":"m 296 0 l 88 0 l 88 1013 l 296 1013 "},"Κ":{"ha":1003,"x_min":0,"x_max":0,"o":"m 311 0 l 103 0 l 103 1013 l 311 1013 l 311 568 l 707 1013 l 953 1013 l 549 576 l 996 0 l 747 0 l 415 447 l 311 339 "},"Λ":{"ha":926,"x_min":0,"x_max":0,"o":"m 353 1013 l 574 1013 l 933 0 l 721 0 l 464 774 l 206 0 l -7 0 "},"Μ":{"ha":1157,"x_min":0,"x_max":0,"o":"m 300 0 l 92 0 l 92 1013 l 403 1013 l 586 207 l 764 1013 l 1078 1013 l 1078 0 l 869 0 l 869 789 l 690 0 l 482 0 l 300 789 "},"Ν":{"ha":1003,"x_min":0,"x_max":0,"o":"m 303 700 l 303 0 l 94 0 l 94 1013 l 308 1013 l 710 324 l 710 1013 l 918 1013 l 918 0 l 710 0 "},"Ξ":{"ha":894,"x_min":0,"x_max":0,"o":"m 38 174 l 856 174 l 856 0 l 38 0 m 86 610 l 796 610 l 796 436 l 86 436 m 44 1013 l 847 1013 l 847 839 l 44 839 "},"Ο":{"ha":1081,"x_min":0,"x_max":0,"o":"m 542 1029 b 889 889 689 1029 800 985 b 1031 492 979 793 1031 650 b 889 108 1031 349 976 201 b 543 -32 801 14 688 -32 b 197 108 399 -32 285 14 b 56 499 107 204 56 347 b 197 889 56 650 107 792 b 542 1029 283 982 400 1029 m 543 851 b 264 499 374 851 264 713 b 543 146 264 285 374 146 b 822 493 710 146 822 285 b 543 851 822 713 714 851 "},"Π":{"ha":1003,"x_min":0,"x_max":0,"o":"m 92 1013 l 910 1013 l 910 0 l 700 0 l 700 839 l 300 839 l 300 0 l 92 0 "},"Ρ":{"ha":926,"x_min":0,"x_max":0,"o":"m 314 0 l 106 0 l 106 1013 l 553 1013 b 879 699 764 1013 879 901 b 574 361 879 493 760 361 l 314 361 m 508 535 b 671 688 619 535 671 583 b 508 839 671 790 619 839 l 314 839 l 314 535 "},"Σ":{"ha":833,"x_min":0,"x_max":0,"o":"m 36 165 l 365 511 l 40 839 l 40 1013 l 782 1013 l 782 839 l 301 839 l 621 511 l 296 174 l 804 174 l 804 0 l 36 0 "},"Τ":{"ha":849,"x_min":0,"x_max":0,"o":"m 535 0 l 326 0 l 326 839 l 19 839 l 19 1013 l 831 1013 l 831 839 l 535 839 "},"Υ":{"ha":926,"x_min":0,"x_max":0,"o":"m 582 0 l 374 0 l 374 375 l 38 1013 l 269 1013 l 476 565 l 669 1013 l 903 1013 l 582 375 "},"Φ":{"ha":1140,"x_min":0,"x_max":0,"o":"m 485 104 b 282 158 394 113 340 128 b 83 507 160 221 83 356 b 282 854 83 657 160 792 b 485 908 340 885 394 900 l 485 1032 l 658 1032 l 658 908 b 871 851 753 900 810 885 b 1058 507 989 788 1058 660 b 871 161 1058 353 989 225 b 658 104 810 128 753 113 l 658 -19 l 485 -19 m 485 743 b 281 507 351 722 281 640 b 485 267 281 375 353 290 m 658 267 b 861 513 786 290 861 381 b 785 696 861 588 833 656 b 658 743 753 722 721 735 "},"Χ":{"ha":926,"x_min":0,"x_max":0,"o":"m 907 0 l 660 0 l 465 351 l 272 0 l 31 0 l 350 510 l 42 1013 l 289 1013 l 467 679 l 653 1013 l 894 1013 l 582 517 "},"Ψ":{"ha":1124,"x_min":0,"x_max":0,"o":"m 463 181 b 174 292 336 185 239 222 b 76 710 96 381 75 469 l 76 1013 l 285 1013 l 285 710 b 335 407 285 499 292 454 b 463 353 369 369 411 353 l 463 1013 l 667 1013 l 667 353 b 807 422 724 353 771 376 b 843 710 838 469 843 514 l 843 1013 l 1051 1013 l 1051 710 b 924 263 1053 449 1025 349 b 667 181 860 211 774 185 l 667 0 l 463 0 "},"Ω":{"ha":1114,"x_min":0,"x_max":0,"o":"m 485 0 l 51 0 l 51 174 l 278 174 b 160 272 218 211 190 235 b 71 551 101 343 71 439 b 556 1029 71 828 275 1029 b 1042 551 838 1029 1042 829 b 953 272 1042 439 1011 343 b 835 174 922 235 894 211 l 1061 174 l 1061 0 l 628 0 l 628 174 b 758 281 701 221 731 244 b 832 542 806 343 832 436 b 556 874 832 743 724 874 b 281 542 389 874 281 743 b 367 265 281 426 311 329 b 485 174 392 236 419 215 "},"α":{"ha":854,"x_min":0,"x_max":0,"o":"m 876 0 l 664 0 l 594 193 b 321 -33 521 38 436 -33 b 31 363 153 -33 31 135 b 324 763 31 592 156 763 b 515 675 392 763 463 731 b 590 565 544 646 561 621 l 646 750 l 849 750 l 701 381 m 521 381 b 346 607 472 538 418 607 b 217 367 268 607 217 511 b 344 124 217 224 269 124 b 451 199 381 124 421 151 b 521 381 472 231 485 265 "},"β":{"ha":847,"x_min":0,"x_max":0,"o":"m 92 665 b 147 915 92 799 106 860 b 419 1028 203 988 301 1028 b 732 765 604 1028 732 921 b 606 556 732 675 693 611 b 724 492 667 535 696 519 b 797 288 769 446 797 369 b 485 -32 797 106 664 -32 b 286 40 404 -32 346 -11 l 286 -303 l 92 -303 m 286 160 b 433 110 331 126 381 110 b 603 303 532 110 603 192 b 510 472 603 382 569 443 b 410 499 481 488 432 500 l 389 497 l 382 497 l 382 611 b 482 632 433 614 457 618 b 546 758 521 653 546 703 b 419 894 546 840 496 894 b 307 832 372 894 328 869 b 286 685 290 801 286 771 "},"γ":{"ha":772,"x_min":0,"x_max":0,"o":"m 294 14 l 19 750 l 228 750 l 386 207 l 544 750 l 753 750 l 478 14 l 478 -303 l 294 -303 "},"δ":{"ha":842,"x_min":0,"x_max":0,"o":"m 703 1040 l 703 886 l 406 886 l 608 732 b 792 365 742 631 792 531 b 421 -32 792 118 651 -32 b 50 363 192 -32 50 118 b 165 665 50 493 90 596 b 364 739 218 713 267 731 l 149 906 l 149 1040 m 421 606 b 244 365 315 606 244 510 b 421 125 244 221 315 125 b 597 363 525 125 597 222 b 421 606 597 510 528 606 "},"ε":{"ha":660,"x_min":0,"x_max":0,"o":"m 424 307 b 283 296 321 306 317 304 b 218 211 243 286 218 253 b 343 111 218 150 267 111 b 493 229 425 111 468 144 l 688 229 b 607 69 671 156 651 115 b 335 -32 540 -1 458 -32 b 24 206 146 -32 24 61 b 143 382 24 293 63 351 b 49 556 79 432 49 486 b 340 763 49 682 163 763 b 676 522 533 763 650 679 l 482 522 b 349 615 465 586 422 615 b 239 526 281 615 239 582 b 308 443 239 485 264 454 b 424 432 340 435 360 433 "},"ζ":{"ha":639,"x_min":0,"x_max":0,"o":"m 97 1013 l 626 1013 l 626 856 b 353 636 493 790 432 742 b 231 322 272 529 231 424 b 289 182 231 256 251 204 b 422 153 314 167 346 160 l 475 147 b 658 -22 610 135 658 90 b 590 -303 658 -106 646 -157 l 426 -303 b 500 -75 482 -179 500 -122 b 386 -3 500 -24 481 -11 l 335 1 b 160 43 261 8 200 24 b 33 304 81 83 33 182 b 154 650 33 425 72 535 b 369 856 217 738 264 783 l 97 856 "},"η":{"ha":849,"x_min":0,"x_max":0,"o":"m 286 750 l 286 642 b 511 763 342 726 410 763 b 763 503 672 763 763 669 l 763 -303 l 568 -303 l 568 463 b 443 597 568 551 526 597 b 286 450 347 597 286 539 l 286 0 l 92 0 l 92 750 "},"θ":{"ha":751,"x_min":0,"x_max":0,"o":"m 378 1025 b 656 861 500 1025 593 971 b 728 486 703 778 728 647 b 374 -32 728 146 606 -32 b 83 147 238 -32 142 28 b 24 510 47 224 24 364 b 118 903 24 692 54 818 b 378 1025 181 983 268 1025 m 533 581 b 518 735 532 658 528 689 b 374 868 499 824 450 868 b 238 758 308 868 263 831 b 218 581 226 722 221 676 m 218 451 b 229 279 218 361 219 331 b 378 125 246 179 299 125 b 510 231 442 125 483 160 b 533 451 528 281 533 339 "},"ι":{"ha":386,"x_min":0,"x_max":0,"o":"m 290 0 l 96 0 l 96 750 l 290 750 "},"κ":{"ha":775,"x_min":0,"x_max":0,"o":"m 524 750 l 744 750 l 489 467 l 763 0 l 538 0 l 358 333 l 278 246 l 278 0 l 83 0 l 83 750 l 278 750 l 278 458 "},"λ":{"ha":772,"x_min":0,"x_max":0,"o":"m 288 682 l 158 1013 l 354 1013 l 757 0 l 544 0 l 385 488 l 222 0 l 22 0 "},"μ":{"ha":850,"x_min":0,"x_max":0,"o":"m 285 750 l 285 282 b 425 133 285 185 333 133 b 567 281 513 133 567 189 l 567 750 l 761 750 l 761 0 l 567 0 l 567 94 b 403 -25 518 6 475 -25 b 275 63 344 -25 306 1 l 275 -303 l 90 -303 l 90 750 "},"ν":{"ha":772,"x_min":0,"x_max":0,"o":"m 286 0 l 24 750 l 229 750 l 392 201 l 543 750 l 749 750 l 490 0 "},"ξ":{"ha":618,"x_min":0,"x_max":0,"o":"m 417 -303 b 488 -82 478 -151 488 -122 b 465 -25 488 -57 479 -35 b 378 -4 449 -12 436 -10 l 314 1 b 124 58 222 11 168 26 b 19 279 60 104 19 188 b 103 471 19 360 49 426 b 229 535 136 500 165 514 b 88 711 133 569 88 626 b 161 856 88 769 110 813 l 47 856 l 47 1013 l 600 1013 l 600 856 l 476 856 b 336 833 404 856 371 850 b 272 733 297 814 272 775 b 346 626 272 688 303 644 b 476 606 379 613 421 606 l 563 606 l 563 449 l 474 449 b 306 428 388 449 347 443 b 214 292 250 407 214 353 b 261 186 214 249 232 207 b 379 154 286 168 303 164 l 475 143 b 603 99 544 135 576 124 b 649 -24 632 72 649 28 b 579 -303 649 -97 632 -164 "},"ο":{"ha":849,"x_min":0,"x_max":0,"o":"m 424 763 b 796 360 658 763 796 614 b 425 -32 796 118 654 -32 b 54 365 194 -32 54 118 b 424 763 54 611 194 763 m 425 606 b 249 365 319 606 249 510 b 425 125 249 221 319 125 b 601 363 529 125 601 222 b 425 606 601 510 532 606 "},"π":{"ha":1064,"x_min":0,"x_max":0,"o":"m 967 594 l 865 594 l 865 0 l 671 0 l 671 594 l 393 594 l 393 0 l 199 0 l 199 594 l 97 594 l 97 750 l 967 750 "},"ρ":{"ha":860,"x_min":0,"x_max":0,"o":"m 90 340 b 175 647 90 490 113 574 b 449 763 236 721 335 763 b 807 358 674 763 807 613 b 489 -32 807 128 678 -32 b 285 90 393 -32 333 4 l 285 -303 l 90 -303 m 453 606 b 285 365 346 606 285 518 b 450 125 285 214 346 125 b 613 358 551 125 613 213 b 453 606 613 514 553 606 "},"σ":{"ha":950,"x_min":0,"x_max":0,"o":"m 883 594 l 717 594 b 835 340 799 521 835 443 b 738 78 835 244 797 146 b 465 -32 674 7 578 -32 b 96 365 236 -32 96 118 b 193 651 96 485 129 582 b 453 763 256 719 356 763 b 586 750 490 763 519 760 l 883 750 m 467 606 b 290 365 361 606 290 510 b 467 125 290 221 361 125 b 643 363 571 125 643 222 b 467 606 643 510 574 606 "},"τ":{"ha":619,"x_min":0,"x_max":0,"o":"m 214 594 l 15 594 l 15 750 l 606 750 l 606 594 l 408 594 l 408 0 l 214 0 "},"υ":{"ha":808,"x_min":0,"x_max":0,"o":"m 264 303 b 299 165 264 224 272 193 b 406 125 322 140 363 125 b 513 167 449 125 488 140 b 546 303 538 194 546 226 l 546 750 l 740 750 l 740 294 b 681 64 740 176 724 114 b 407 -32 626 0 532 -32 b 142 51 288 -32 197 -4 b 69 294 92 101 69 175 l 69 750 l 264 750 "},"φ":{"ha":993,"x_min":0,"x_max":0,"o":"m 406 757 b 494 763 440 761 460 763 b 950 365 789 763 950 622 b 792 39 950 217 896 104 b 588 -18 732 3 682 -11 l 588 -303 l 406 -303 l 406 -18 b 203 39 311 -11 261 3 b 43 367 97 104 43 217 b 318 738 43 560 142 693 l 318 617 b 224 381 257 569 224 486 b 286 179 224 297 244 229 b 406 121 317 143 350 128 m 588 121 b 707 176 644 126 676 142 b 769 367 749 224 769 288 b 707 560 769 446 749 513 b 588 617 676 596 644 611 "},"χ":{"ha":800,"x_min":0,"x_max":0,"o":"m 558 750 l 763 750 l 500 246 l 786 -303 l 572 -303 l 399 76 l 222 -303 l 15 -303 l 300 240 l 36 750 l 246 750 l 401 410 "},"ψ":{"ha":1046,"x_min":0,"x_max":0,"o":"m 431 -19 b 142 100 301 -18 210 19 b 78 344 90 168 78 215 l 78 750 l 272 750 l 272 354 b 431 129 269 197 315 133 l 431 750 l 615 750 l 615 129 b 775 354 729 131 778 200 l 775 750 l 969 750 l 969 344 b 892 85 969 210 953 154 b 615 -19 822 14 738 -18 l 615 -303 l 431 -303 "},"ω":{"ha":1174,"x_min":0,"x_max":0,"o":"m 931 750 b 1075 336 1031 625 1075 497 b 990 60 1075 217 1047 128 b 794 -32 940 1 869 -32 b 588 108 703 -32 636 13 b 381 -32 540 14 472 -32 b 186 58 306 -32 236 0 b 100 338 128 126 100 215 b 244 750 100 497 144 625 l 456 750 b 294 339 346 624 294 493 b 406 128 294 207 336 128 b 482 181 439 128 465 146 b 500 325 496 210 500 244 l 500 561 l 675 561 l 675 325 b 699 169 675 236 681 200 b 769 128 717 142 739 128 b 881 339 839 128 881 207 b 719 750 881 492 829 624 "},"ς":{"ha":722,"x_min":0,"x_max":0,"o":"m 525 461 b 376 606 517 554 464 606 b 206 401 275 606 206 524 b 272 225 206 329 231 263 b 419 149 300 200 358 169 l 497 122 b 640 53 588 90 614 78 b 686 -60 671 22 686 -14 b 622 -303 686 -118 676 -158 l 460 -303 b 525 -103 504 -201 525 -136 b 440 -28 525 -64 504 -46 l 318 6 b 11 379 117 60 11 189 b 140 683 11 497 61 615 b 381 763 201 735 286 763 b 649 646 494 763 588 722 b 711 461 690 594 706 549 "},"ϑ":{"ha":808,"x_min":0,"x_max":0,"o":"m 235 417 b 253 235 239 311 243 271 b 386 125 272 165 321 125 b 526 269 458 125 506 174 b 540 443 535 310 540 376 l 540 465 b 242 532 403 474 313 494 b 89 769 143 586 89 669 b 381 1025 89 918 211 1025 b 671 838 507 1025 607 961 b 728 600 703 776 719 706 b 785 607 756 603 760 603 l 785 475 b 728 468 761 469 757 469 b 672 147 726 329 708 226 b 376 -32 619 33 511 -32 b 122 103 265 -32 175 15 b 68 288 93 149 79 199 l 10 288 l 10 417 m 540 594 b 510 771 540 656 528 722 b 368 872 486 833 432 872 b 261 767 307 872 261 826 b 540 594 261 668 364 604 "},"ϕ":{"ha":1042,"x_min":0,"x_max":0,"o":"m 429 -18 b 225 39 335 -11 285 3 b 67 367 121 104 67 217 b 213 681 67 504 118 614 b 429 749 274 724 332 742 l 429 921 l 611 921 l 611 749 b 828 681 708 742 767 724 b 974 367 922 614 974 504 b 815 39 974 217 919 104 b 611 -18 756 3 706 -11 l 611 -303 l 429 -303 m 611 121 b 731 176 668 128 700 142 b 793 367 772 224 793 289 b 731 556 793 444 772 510 b 611 611 700 592 668 606 m 429 611 b 310 556 372 606 340 592 b 247 367 268 510 247 444 b 310 176 247 289 268 224 b 429 121 340 142 372 128 "},"ϖ":{"ha":1174,"x_min":0,"x_max":0,"o":"m 106 604 l 106 750 l 507 750 b 853 672 654 750 767 725 b 1035 328 975 596 1035 482 b 753 -15 1035 133 913 -15 b 578 63 685 -15 629 10 b 403 -15 528 11 471 -15 b 236 49 343 -15 283 7 b 119 335 158 114 119 210 b 160 538 119 408 135 486 b 203 604 169 556 181 575 m 433 604 b 303 333 340 536 303 458 b 399 143 303 215 339 143 b 460 182 424 143 443 156 b 481 304 475 208 481 240 l 481 456 l 675 456 l 675 304 b 704 171 675 232 682 197 b 758 142 719 151 738 142 b 853 324 814 142 853 217 b 717 567 853 435 804 522 b 474 604 663 594 597 604 "},"ϊ":{"ha":386,"x_min":0,"x_max":0,"o":"m 290 0 l 96 0 l 96 750 l 290 750 m 140 863 l -12 863 l -12 1032 l 140 1032 m 399 863 l 246 863 l 246 1032 l 399 1032 "},"ϋ":{"ha":808,"x_min":0,"x_max":0,"o":"m 264 303 b 299 165 264 224 272 193 b 406 125 322 140 363 125 b 513 167 449 125 488 140 b 546 303 538 194 546 226 l 546 750 l 740 750 l 740 294 b 681 64 740 176 724 114 b 407 -32 626 0 532 -32 b 142 51 288 -32 197 -4 b 69 294 92 101 69 175 l 69 750 l 264 750 m 353 863 l 200 863 l 200 1032 l 353 1032 m 611 863 l 458 863 l 458 1032 l 611 1032 "},"΄":{"ha":463,"x_min":0,"x_max":0,"o":"m 303 957 l 258 819 l 203 819 l 161 957 l 161 1096 l 303 1096 "},"΅":{"ha":646,"x_min":0,"x_max":0,"o":"m 253 863 l 118 863 l 118 1032 l 253 1032 m 529 863 l 394 863 l 394 1032 l 529 1032 m 394 1110 l 350 972 l 294 972 l 253 1110 l 253 1235 l 394 1235 "},"Ά":{"ha":1003,"x_min":0,"x_max":0,"o":"m 317 204 l 249 0 l 36 0 l 396 1013 l 626 1013 l 976 0 l 763 0 l 696 204 m 507 774 l 375 378 l 639 378 m 224 874 l 179 736 l 124 736 l 82 874 l 82 1013 l 224 1013 "},"Έ":{"ha":1185,"x_min":0,"x_max":0,"o":"m 506 174 l 1054 174 l 1054 0 l 297 0 l 297 1013 l 1029 1013 l 1029 839 l 506 839 l 506 610 l 990 610 l 990 436 l 506 436 m 214 874 l 169 736 l 114 736 l 72 874 l 72 1013 l 214 1013 "},"Ή":{"ha":1258,"x_min":0,"x_max":0,"o":"m 496 460 l 496 0 l 288 0 l 288 1013 l 496 1013 l 496 633 l 896 633 l 896 1013 l 1106 1013 l 1106 0 l 897 0 l 897 460 m 204 874 l 160 736 l 104 736 l 63 874 l 63 1013 l 204 1013 "},"Ί":{"ha":658,"x_min":0,"x_max":0,"o":"m 501 0 l 293 0 l 293 1013 l 501 1013 m 210 874 l 165 736 l 110 736 l 68 874 l 68 1013 l 210 1013 "},"Ό":{"ha":1146,"x_min":0,"x_max":0,"o":"m 603 1029 b 950 889 750 1029 861 985 b 1092 492 1040 793 1092 650 b 950 108 1092 349 1038 201 b 604 -32 863 14 749 -32 b 258 108 460 -32 346 14 b 117 499 168 204 117 347 b 258 889 117 650 168 792 b 603 1029 344 982 461 1029 m 604 851 b 325 499 435 851 325 713 b 604 146 325 285 435 146 b 883 493 771 146 883 285 b 604 851 883 713 775 851 m 146 874 l 101 736 l 46 736 l 4 874 l 4 1013 l 146 1013 "},"Ώ":{"ha":1164,"x_min":0,"x_max":0,"o":"m 540 0 l 106 0 l 106 174 l 333 174 b 214 272 274 211 244 235 b 125 551 156 343 125 439 b 611 1029 125 828 329 1029 b 1097 551 893 1029 1097 828 b 1008 272 1097 439 1067 343 b 889 174 978 235 949 211 l 1117 174 l 1117 0 l 682 0 l 682 174 b 813 281 756 221 785 244 b 886 542 860 343 886 436 b 611 874 886 743 778 874 b 336 542 444 874 336 743 b 422 265 336 426 367 329 b 540 174 447 236 475 215 m 154 874 l 110 736 l 54 736 l 13 874 l 13 1013 l 154 1013 "},"Ύ":{"ha":1288,"x_min":0,"x_max":0,"o":"m 836 0 l 628 0 l 628 375 l 292 1013 l 524 1013 l 731 565 l 924 1013 l 1157 1013 l 836 375 m 250 874 l 206 736 l 150 736 l 108 874 l 108 1013 l 250 1013 "},"Ϊ":{"ha":386,"x_min":0,"x_max":0,"o":"m 296 0 l 88 0 l 88 1013 l 296 1013 m 140 1111 l -12 1111 l -12 1281 l 140 1281 m 399 1111 l 246 1111 l 246 1281 l 399 1281 "},"Ϋ":{"ha":926,"x_min":0,"x_max":0,"o":"m 582 0 l 374 0 l 374 375 l 38 1013 l 269 1013 l 476 565 l 669 1013 l 903 1013 l 582 375 m 411 1111 l 258 1111 l 258 1281 l 411 1281 m 669 1111 l 517 1111 l 517 1281 l 669 1281 "},"ά":{"ha":854,"x_min":0,"x_max":0,"o":"m 893 0 l 679 0 l 610 193 b 335 -32 536 38 451 -32 b 33 363 161 -32 33 136 b 338 763 33 590 164 763 b 532 675 407 763 478 731 b 606 565 560 646 578 621 l 663 750 l 865 750 l 717 381 m 538 381 b 360 607 488 539 433 607 b 219 369 276 607 219 510 b 358 125 219 226 276 125 b 468 200 397 125 436 151 b 538 381 488 232 501 265 m 443 957 l 399 819 l 343 819 l 301 957 l 301 1096 l 443 1096 "},"έ":{"ha":626,"x_min":0,"x_max":0,"o":"m 407 307 b 271 296 308 306 304 304 b 208 211 232 286 208 253 b 328 111 208 150 256 111 b 476 229 408 111 451 146 l 671 229 b 590 69 654 156 635 115 b 322 -32 524 0 440 -32 b 14 207 133 -32 14 60 b 126 382 14 293 51 351 b 39 554 67 432 39 488 b 325 763 39 682 150 763 b 660 522 517 763 633 679 l 465 522 b 333 615 449 586 406 615 b 229 526 268 615 229 582 b 297 443 229 485 254 454 b 407 432 326 435 344 433 m 383 957 l 339 819 l 283 819 l 242 957 l 242 1096 l 383 1096 "},"ή":{"ha":849,"x_min":0,"x_max":0,"o":"m 286 750 l 286 642 b 511 763 342 726 410 763 b 763 503 672 763 763 669 l 763 -303 l 568 -303 l 568 463 b 443 597 568 551 526 597 b 286 450 347 597 286 539 l 286 0 l 92 0 l 92 750 m 551 957 l 507 819 l 451 819 l 410 957 l 410 1096 l 551 1096 "},"ί":{"ha":386,"x_min":0,"x_max":0,"o":"m 290 0 l 96 0 l 96 750 l 290 750 m 264 957 l 219 819 l 164 819 l 122 957 l 122 1096 l 264 1096 "},"ό":{"ha":849,"x_min":0,"x_max":0,"o":"m 424 763 b 796 360 658 763 796 614 b 425 -32 796 118 654 -32 b 54 365 194 -32 54 118 b 424 763 54 611 194 763 m 425 606 b 249 365 319 606 249 510 b 425 125 249 221 319 125 b 601 363 529 125 601 222 b 425 606 601 510 532 606 m 496 957 l 451 819 l 396 819 l 354 957 l 354 1096 l 496 1096 "},"ώ":{"ha":1174,"x_min":0,"x_max":0,"o":"m 931 750 b 1075 336 1031 625 1075 497 b 990 60 1075 217 1047 128 b 794 -32 940 1 869 -32 b 588 108 703 -32 636 13 b 381 -32 540 14 472 -32 b 186 58 306 -32 236 0 b 100 338 128 126 100 215 b 244 750 100 497 144 625 l 456 750 b 294 339 346 624 294 493 b 406 128 294 207 336 128 b 482 181 439 128 465 146 b 500 325 496 210 500 244 l 500 561 l 675 561 l 675 325 b 699 169 675 236 681 200 b 769 128 717 142 739 128 b 881 339 839 128 881 207 b 719 750 881 492 829 624 m 658 957 l 614 819 l 558 819 l 517 957 l 517 1096 l 658 1096 "},"ύ":{"ha":808,"x_min":0,"x_max":0,"o":"m 264 303 b 299 165 264 224 272 193 b 406 125 322 140 363 125 b 513 167 449 125 488 140 b 546 303 538 194 546 226 l 546 750 l 740 750 l 740 294 b 681 64 740 176 724 114 b 407 -32 626 0 532 -32 b 142 51 288 -32 197 -4 b 69 294 92 101 69 175 l 69 750 l 264 750 m 476 957 l 432 819 l 376 819 l 335 957 l 335 1096 l 476 1096 "},"ΐ":{"ha":386,"x_min":0,"x_max":0,"o":"m 290 0 l 96 0 l 96 750 l 290 750 m 122 863 l -12 863 l -12 1032 l 122 1032 m 399 863 l 264 863 l 264 1032 l 399 1032 m 264 1110 l 219 972 l 164 972 l 122 1110 l 122 1235 l 264 1235 "},"ΰ":{"ha":808,"x_min":0,"x_max":0,"o":"m 264 303 b 299 165 264 224 272 193 b 406 125 322 140 363 125 b 513 167 449 125 488 140 b 546 303 538 194 546 226 l 546 750 l 740 750 l 740 294 b 681 64 740 176 724 114 b 407 -32 626 0 532 -32 b 142 51 288 -32 197 -4 b 69 294 92 101 69 175 l 69 750 l 264 750 m 335 863 l 200 863 l 200 1032 l 335 1032 m 611 863 l 476 863 l 476 1032 l 611 1032 m 476 1110 l 432 972 l 376 972 l 335 1110 l 335 1235 l 476 1235 "},"А":{"ha":1003,"x_min":0,"x_max":0,"o":"m 313 204 l 244 0 l 32 0 l 392 1013 l 635 1013 l 972 0 l 758 0 l 692 204 m 503 774 l 371 378 l 635 378 "},"Б":{"ha":999,"x_min":0,"x_max":0,"o":"m 103 1013 l 838 1013 l 838 839 l 311 839 l 311 610 l 590 610 b 929 304 779 610 929 474 b 590 0 929 131 785 0 l 103 0 m 610 174 b 721 303 675 174 721 226 b 610 436 721 379 672 436 l 311 436 l 311 174 "},"В":{"ha":1003,"x_min":0,"x_max":0,"o":"m 110 1013 l 567 1013 b 801 939 674 1013 743 990 b 892 746 858 889 892 817 b 753 538 892 660 854 601 b 921 292 868 471 921 392 b 821 74 921 210 882 125 b 567 0 760 22 683 0 l 110 0 m 318 610 l 544 610 b 692 725 642 610 692 649 b 544 839 692 800 642 839 l 318 839 m 318 174 l 567 174 b 721 304 668 174 721 218 b 567 436 721 392 668 436 l 318 436 "},"Г":{"ha":788,"x_min":0,"x_max":0,"o":"m 165 1013 l 719 1013 l 719 839 l 374 839 l 374 0 l 165 0 "},"Д":{"ha":989,"x_min":0,"x_max":0,"o":"m -18 174 l 17 174 b 228 389 136 175 229 269 l 228 1013 l 894 1013 l 894 174 l 986 174 l 986 -189 l 778 -189 l 778 0 l 190 0 l 190 -189 l -18 -189 m 686 839 l 436 839 l 436 381 b 321 174 436 300 392 221 l 686 174 "},"Е":{"ha":926,"x_min":0,"x_max":0,"o":"m 310 174 l 858 174 l 858 0 l 101 0 l 101 1013 l 833 1013 l 833 839 l 310 839 l 310 610 l 794 610 l 794 436 l 310 436 "},"Ж":{"ha":1256,"x_min":0,"x_max":0,"o":"m 524 460 l 389 460 l 203 0 l -17 0 l 203 544 l 43 1013 l 254 1013 l 381 633 l 524 633 l 524 1013 l 732 1013 l 732 633 l 863 633 l 989 1013 l 1199 1013 l 1039 544 l 1260 0 l 1039 0 l 853 460 l 732 460 l 732 0 l 524 0 "},"З":{"ha":869,"x_min":0,"x_max":0,"o":"m 290 336 b 322 194 290 263 300 224 b 440 146 346 164 389 146 b 582 293 528 146 582 201 b 528 408 582 347 565 383 b 436 436 500 426 468 436 l 358 436 l 358 610 l 421 610 b 558 735 501 610 558 661 b 428 851 558 804 506 851 b 301 726 349 851 301 804 l 301 692 l 93 692 l 93 726 b 169 939 93 825 115 888 b 435 1029 228 994 329 1029 b 767 756 626 1029 767 914 b 633 540 767 660 724 590 b 793 296 735 506 793 415 b 438 -32 793 111 639 -32 b 158 81 326 -32 224 10 b 82 297 107 136 82 207 l 82 336 "},"И":{"ha":999,"x_min":0,"x_max":0,"o":"m 90 1013 l 299 1013 l 299 386 l 700 886 l 700 1013 l 908 1013 l 908 0 l 700 0 l 700 621 l 299 124 l 299 0 l 90 0 "},"К":{"ha":847,"x_min":0,"x_max":0,"o":"m 81 1013 l 289 1013 l 289 633 l 408 633 l 549 1013 l 760 1013 l 600 544 l 819 0 l 600 0 l 414 460 l 289 460 l 289 0 l 81 0 "},"Л":{"ha":975,"x_min":0,"x_max":0,"o":"m 7 174 l 81 174 b 131 222 113 174 129 189 l 131 1013 l 868 1013 l 868 0 l 660 0 l 660 839 l 339 839 l 339 207 b 124 0 343 99 240 -1 l 7 0 "},"М":{"ha":1157,"x_min":0,"x_max":0,"o":"m 294 0 l 86 0 l 86 1013 l 397 1013 l 581 207 l 758 1013 l 1072 1013 l 1072 0 l 864 0 l 864 789 l 685 0 l 476 0 l 294 789 "},"Н":{"ha":1003,"x_min":0,"x_max":0,"o":"m 301 0 l 93 0 l 93 1013 l 301 1013 l 301 633 l 703 633 l 703 1013 l 911 1013 l 911 0 l 703 0 l 703 460 l 301 460 "},"О":{"ha":1081,"x_min":0,"x_max":0,"o":"m 539 1029 b 886 889 686 1029 797 985 b 1028 492 976 793 1028 650 b 886 108 1028 349 974 201 b 540 -32 799 14 685 -32 b 194 108 396 -32 282 14 b 53 499 104 204 53 347 b 194 889 53 650 104 792 b 539 1029 281 982 397 1029 m 540 851 b 261 499 371 851 261 713 b 540 146 261 285 371 146 b 819 493 707 146 819 285 b 540 851 819 713 711 851 "},"П":{"ha":999,"x_min":0,"x_max":0,"o":"m 100 1013 l 900 1013 l 900 0 l 692 0 l 692 842 l 308 842 l 308 0 l 100 0 "},"Р":{"ha":926,"x_min":0,"x_max":0,"o":"m 304 0 l 96 0 l 96 1013 l 543 1013 b 869 699 754 1013 869 901 b 564 361 869 493 750 361 l 304 361 m 499 535 b 661 688 610 535 661 583 b 499 839 661 790 610 839 l 304 839 l 304 535 "},"С":{"ha":1003,"x_min":0,"x_max":0,"o":"m 746 669 b 529 851 718 793 650 851 b 267 494 365 851 267 718 b 522 143 267 274 361 143 b 746 346 651 143 732 217 l 946 346 b 515 -32 933 114 767 -32 b 58 497 233 -32 58 171 b 522 1029 58 826 236 1029 b 878 869 674 1029 800 972 b 946 669 921 813 939 757 "},"Т":{"ha":849,"x_min":0,"x_max":0,"o":"m 533 0 l 325 0 l 325 839 l 18 839 l 18 1013 l 829 1013 l 829 839 l 533 839 "},"У":{"ha":864,"x_min":0,"x_max":0,"o":"m 71 174 l 250 174 b 306 232 283 179 286 182 l 332 288 l 8 1013 l 224 1013 l 439 500 l 653 1013 l 868 1013 l 474 129 b 269 0 432 46 363 1 l 71 0 "},"Ф":{"ha":1186,"x_min":0,"x_max":0,"o":"m 488 140 l 413 140 b 49 508 204 140 49 297 b 413 872 49 717 204 872 l 488 872 l 488 1013 l 696 1013 l 696 872 l 764 872 b 1128 508 972 872 1128 717 b 764 140 1128 297 972 140 l 696 140 l 696 0 l 488 0 m 449 699 b 257 508 335 699 257 621 b 449 314 257 394 336 314 l 483 314 l 483 699 m 699 314 l 726 314 b 919 508 840 314 919 394 b 726 699 919 621 840 699 l 699 699 "},"Х":{"ha":926,"x_min":0,"x_max":0,"o":"m 894 0 l 651 0 l 460 351 l 267 0 l 31 0 l 344 514 l 31 1013 l 283 1013 l 460 679 l 651 1013 l 894 1013 l 576 514 "},"Ц":{"ha":1014,"x_min":0,"x_max":0,"o":"m 94 1013 l 303 1013 l 303 174 l 672 174 l 672 1013 l 881 1013 l 881 174 l 972 174 l 972 -221 l 764 -221 l 764 0 l 94 0 "},"Ч":{"ha":976,"x_min":0,"x_max":0,"o":"m 685 346 b 432 306 554 311 515 306 b 46 611 189 306 46 418 l 46 1013 l 254 1013 l 254 611 b 436 483 254 529 321 483 b 685 524 503 483 589 497 l 685 1013 l 893 1013 l 893 0 l 685 0 "},"Ш":{"ha":1396,"x_min":0,"x_max":0,"o":"m 68 1013 l 276 1013 l 276 174 l 593 174 l 593 1013 l 801 1013 l 801 174 l 1118 174 l 1118 1013 l 1326 1013 l 1326 0 l 68 0 "},"Щ":{"ha":1415,"x_min":0,"x_max":0,"o":"m 72 1013 l 281 1013 l 281 174 l 585 174 l 585 1013 l 793 1013 l 793 174 l 1100 174 l 1100 1013 l 1308 1013 l 1308 174 l 1400 174 l 1400 -221 l 1192 -221 l 1192 0 l 72 0 "},"Ь":{"ha":999,"x_min":0,"x_max":0,"o":"m 139 1013 l 347 1013 l 347 628 l 569 628 b 901 314 763 628 901 496 b 569 0 901 132 761 0 l 139 0 m 569 174 b 693 315 644 174 693 229 b 569 454 693 401 646 454 l 347 454 l 347 174 "},"Ы":{"ha":1360,"x_min":0,"x_max":0,"o":"m 149 1013 l 357 1013 l 357 628 l 579 628 b 911 314 772 628 911 496 b 579 0 911 132 771 0 l 149 0 m 579 174 b 703 315 654 174 703 229 b 579 454 703 401 656 454 l 357 454 l 357 174 m 1003 1013 l 1211 1013 l 1211 0 l 1003 0 "},"Ъ":{"ha":1208,"x_min":0,"x_max":0,"o":"m 364 839 l 22 839 l 22 1013 l 572 1013 l 572 628 l 794 628 b 1126 314 988 628 1126 496 b 794 0 1126 132 986 0 l 364 0 m 794 174 b 918 315 869 174 918 229 b 794 454 918 401 871 454 l 572 454 l 572 174 "},"Э":{"ha":988,"x_min":0,"x_max":0,"o":"m 315 436 l 315 610 l 726 610 b 675 749 711 678 700 708 b 479 851 632 814 563 851 b 238 678 367 851 293 799 l 57 767 b 483 1029 144 940 289 1029 b 835 860 633 1029 753 972 b 946 499 906 765 946 635 b 817 114 946 350 899 210 b 485 -32 733 17 624 -32 b 26 308 260 -32 92 93 l 221 371 b 479 146 268 218 351 146 b 735 436 624 146 714 250 "},"Ю":{"ha":1432,"x_min":0,"x_max":0,"o":"m 442 633 b 901 1029 496 886 663 1029 b 1236 889 1042 1029 1153 982 b 1374 499 1324 792 1374 650 b 1236 108 1374 347 1324 206 b 901 -32 1153 15 1040 -32 b 497 207 718 -32 582 49 b 429 460 457 282 436 364 l 282 460 l 282 0 l 74 0 l 74 1013 l 282 1013 l 282 633 m 900 851 b 636 499 740 851 636 713 b 901 146 636 285 740 146 b 1165 493 1060 146 1165 285 b 900 851 1165 713 1063 851 "},"Я":{"ha":999,"x_min":0,"x_max":0,"o":"m 685 382 l 413 382 b 340 310 360 379 340 360 l 340 117 b 261 0 336 38 310 -1 l 69 0 b 132 132 110 14 126 49 l 132 300 b 254 456 131 394 176 453 b 164 519 208 475 186 490 b 101 708 124 571 101 640 b 206 938 101 794 139 879 b 419 1013 264 989 332 1013 l 893 1013 l 893 0 l 685 0 m 685 839 l 443 839 b 310 696 365 839 310 779 b 443 556 310 611 363 556 l 685 556 "},"Ґ":{"ha":676,"x_min":0,"x_max":0,"o":"m 603 1182 l 788 1182 l 664 1013 l 664 839 l 318 839 l 318 0 l 110 0 l 110 1013 l 510 1013 "},"Ђ":{"ha":1229,"x_min":0,"x_max":0,"o":"m 351 839 l 69 839 l 69 1013 l 829 1013 l 829 839 l 560 839 l 560 588 b 839 679 640 650 728 679 b 1047 597 935 679 1001 653 b 1097 451 1079 557 1097 506 l 1097 208 b 882 0 1093 90 994 -6 l 704 0 l 704 174 l 803 174 b 889 249 853 172 886 201 l 889 406 b 761 501 889 465 842 501 b 560 406 668 501 597 468 l 560 0 l 351 0 "},"Є":{"ha":988,"x_min":0,"x_max":0,"o":"m 253 436 b 508 146 274 250 364 146 b 767 371 636 146 719 218 l 961 308 b 503 -32 890 89 728 -32 b 150 140 351 -32 235 25 b 42 499 81 235 42 364 b 174 888 42 649 90 792 b 504 1029 256 981 367 1029 b 931 767 699 1029 843 940 l 750 678 b 508 851 694 799 621 851 b 313 749 425 851 356 814 b 261 610 288 708 276 678 l 672 610 l 672 436 "},"Ѕ":{"ha":926,"x_min":0,"x_max":0,"o":"m 649 704 b 436 863 642 807 568 863 b 261 738 328 863 261 815 b 453 606 261 664 303 635 l 611 575 b 879 297 797 539 879 456 b 464 -32 879 89 726 -32 b 44 303 206 -32 57 86 l 247 303 b 475 135 254 193 333 135 b 679 271 601 135 679 186 b 488 418 679 353 628 392 l 347 446 b 63 718 142 485 63 561 b 444 1029 63 915 203 1029 b 843 704 701 1029 842 914 "},"І":{"ha":386,"x_min":0,"x_max":0,"o":"m 297 0 l 89 0 l 89 1013 l 297 1013 "},"Ӏ":{"ha":386,"x_min":0,"x_max":0,"o":"m 297 0 l 89 0 l 89 1013 l 297 1013 "},"ӏ":{"ha":386,"x_min":0,"x_max":0,"o":"m 297 0 l 89 0 l 89 1013 l 297 1013 "},"Ј":{"ha":772,"x_min":0,"x_max":0,"o":"m 679 1013 l 679 269 b 353 -32 679 76 561 -32 b 122 47 258 -32 181 -6 b 38 269 63 101 38 165 l 38 375 l 246 375 l 246 269 b 357 146 246 182 279 146 b 471 269 431 146 471 189 l 471 1013 "},"Љ":{"ha":1519,"x_min":0,"x_max":0,"o":"m 22 174 l 96 174 b 146 222 128 174 144 189 l 146 1013 l 883 1013 l 883 628 l 1106 628 b 1438 314 1299 628 1438 496 b 1106 0 1438 132 1297 0 l 675 0 l 675 839 l 354 839 l 354 207 b 139 0 358 99 256 -1 l 22 0 m 1106 174 b 1229 315 1181 174 1229 229 b 1106 454 1229 401 1182 454 l 883 454 l 883 174 "},"Њ":{"ha":1476,"x_min":0,"x_max":0,"o":"m 281 0 l 72 0 l 72 1013 l 281 1013 l 281 633 l 682 633 l 682 1013 l 890 1013 l 890 628 l 1113 628 b 1444 314 1306 628 1444 497 b 1113 0 1444 132 1304 0 l 682 0 l 682 460 l 281 460 m 1113 174 b 1236 315 1188 174 1236 229 b 1113 454 1236 401 1189 454 l 890 454 l 890 174 "},"Ћ":{"ha":1215,"x_min":0,"x_max":0,"o":"m 343 839 l 88 839 l 88 1013 l 825 1013 l 825 839 l 551 839 l 551 588 b 824 679 638 660 693 679 b 1051 597 939 679 1004 656 b 1104 451 1085 558 1104 503 l 1104 0 l 896 0 l 896 406 b 871 472 896 429 886 453 b 747 501 851 493 819 501 b 586 454 675 501 615 483 b 551 406 574 442 565 429 l 551 0 l 343 0 "},"Џ":{"ha":999,"x_min":0,"x_max":0,"o":"m 107 1013 l 315 1013 l 315 174 l 685 174 l 685 1013 l 893 1013 l 893 0 l 604 0 l 604 -222 l 396 -222 l 396 0 l 107 0 "},"Ө":{"ha":1081,"x_min":0,"x_max":0,"o":"m 539 1029 b 886 889 686 1029 797 985 b 1028 492 976 793 1028 650 b 886 108 1028 349 974 201 b 540 -32 799 14 685 -32 b 194 108 396 -32 282 14 b 53 499 104 204 53 347 b 194 889 53 650 104 792 b 539 1029 281 982 397 1029 m 268 414 b 540 146 297 242 396 146 b 813 414 686 146 783 242 m 813 588 b 540 851 782 757 685 851 b 268 588 396 851 299 757 "},"Җ":{"ha":1561,"x_min":0,"x_max":0,"o":"m 642 460 l 499 460 l 311 0 l 92 0 l 311 544 l 151 1013 l 363 1013 l 489 633 l 642 633 l 642 1013 l 850 1013 l 850 633 l 999 633 l 1125 1013 l 1335 1013 l 1176 544 l 1326 174 l 1465 174 l 1465 -221 l 1257 -221 l 1257 0 l 1176 0 l 990 460 l 850 460 l 850 0 l 642 0 "},"Ү":{"ha":926,"x_min":0,"x_max":0,"o":"m 582 0 l 374 0 l 374 375 l 38 1013 l 269 1013 l 476 565 l 669 1013 l 903 1013 l 582 375 "},"Ә":{"ha":1081,"x_min":0,"x_max":0,"o":"m 813 588 b 546 851 779 764 690 851 b 293 678 426 851 351 800 l 113 767 b 549 1029 201 940 349 1029 b 854 924 669 1029 772 993 b 1028 499 963 829 1028 669 b 886 108 1028 347 975 204 b 540 -32 799 14 685 -32 b 194 108 396 -32 282 14 b 53 497 106 204 53 347 b 58 588 53 528 54 551 m 268 414 b 540 146 297 242 396 146 b 813 414 686 146 783 242 "},"Һ":{"ha":996,"x_min":0,"x_max":0,"o":"m 301 667 b 554 707 432 701 471 707 b 940 401 797 707 940 594 l 940 0 l 732 0 l 732 401 b 550 529 732 483 665 529 b 301 489 483 529 397 515 l 301 0 l 93 0 l 93 1013 l 301 1013 "},"№":{"ha":1549,"x_min":0,"x_max":0,"o":"m 267 700 l 267 0 l 99 0 l 99 1013 l 271 1013 l 594 324 l 594 1013 l 763 1013 l 763 0 l 594 0 m 899 132 l 1482 132 l 1482 0 l 899 0 m 1185 1029 b 1485 626 1374 1029 1485 881 b 1185 235 1485 385 1369 235 b 886 632 999 235 886 385 b 1185 1029 886 878 1000 1029 m 1185 872 b 1043 632 1100 872 1043 776 b 1186 392 1043 488 1100 392 b 1328 629 1269 392 1328 489 b 1185 872 1328 776 1271 872 "},"Ғ":{"ha":665,"x_min":0,"x_max":0,"o":"m 575 610 l 575 436 l 313 436 l 313 0 l 104 0 l 104 436 l 35 436 l 35 610 l 104 610 l 104 1013 l 658 1013 l 658 839 l 313 839 l 313 610 "},"Ұ":{"ha":926,"x_min":0,"x_max":0,"o":"m 764 332 l 764 158 l 582 158 l 582 0 l 374 0 l 374 158 l 192 158 l 192 332 l 374 332 l 374 376 l 38 1013 l 269 1013 l 476 567 l 669 1013 l 903 1013 l 582 376 l 582 332 "},"Ё":{"ha":929,"x_min":0,"x_max":0,"o":"m 311 174 l 860 174 l 860 0 l 103 0 l 103 1013 l 835 1013 l 835 839 l 311 839 l 311 610 l 796 610 l 796 436 l 311 436 m 428 1111 l 275 1111 l 275 1281 l 428 1281 m 686 1111 l 533 1111 l 533 1281 l 686 1281 "},"Й":{"ha":999,"x_min":0,"x_max":0,"o":"m 90 1013 l 299 1013 l 299 386 l 700 886 l 700 1013 l 908 1013 l 908 0 l 700 0 l 700 621 l 299 124 l 299 0 l 90 0 m 731 1296 b 700 1176 728 1236 722 1211 b 500 1078 658 1110 593 1078 b 289 1192 399 1078 328 1117 b 269 1296 275 1221 271 1243 l 392 1296 b 500 1193 401 1228 438 1193 b 607 1296 561 1193 599 1228 "},"Ѓ":{"ha":788,"x_min":0,"x_max":0,"o":"m 165 1013 l 719 1013 l 719 839 l 374 839 l 374 0 l 165 0 m 422 1274 l 607 1274 l 485 1104 l 329 1104 "},"Ї":{"ha":383,"x_min":0,"x_max":0,"o":"m 294 0 l 86 0 l 86 1013 l 294 1013 m 139 1111 l -14 1111 l -14 1281 l 139 1281 m 397 1111 l 244 1111 l 244 1281 l 397 1281 "},"Ќ":{"ha":847,"x_min":0,"x_max":0,"o":"m 46 1013 l 254 1013 l 254 633 l 375 633 l 508 1013 l 719 1013 l 560 544 l 781 0 l 560 0 l 374 460 l 254 460 l 254 0 l 46 0 m 433 1274 l 618 1274 l 494 1104 l 340 1104 "},"Ў":{"ha":864,"x_min":0,"x_max":0,"o":"m 71 174 l 250 174 b 306 232 283 179 286 182 l 332 288 l 8 1013 l 224 1013 l 439 500 l 653 1013 l 868 1013 l 474 129 b 269 0 432 46 363 1 l 71 0 m 661 1296 b 632 1176 660 1236 653 1211 b 431 1078 590 1110 525 1078 b 221 1192 331 1078 258 1117 b 200 1296 207 1221 201 1243 l 324 1296 b 431 1193 332 1228 369 1193 b 539 1296 493 1193 529 1228 "},"Ӣ":{"ha":1003,"x_min":0,"x_max":0,"o":"m 313 204 l 244 0 l 32 0 l 392 1013 l 635 1013 l 972 0 l 758 0 l 692 204 m 503 774 l 371 378 l 635 378 m 733 1296 b 703 1176 731 1236 725 1211 b 503 1078 661 1110 596 1078 b 292 1192 401 1078 331 1117 b 272 1296 278 1221 274 1243 l 394 1296 b 503 1193 404 1228 440 1193 b 610 1296 564 1193 601 1228 "},"Ӯ":{"ha":910,"x_min":0,"x_max":0,"o":"m 301 174 l 850 174 l 850 0 l 93 0 l 93 1013 l 825 1013 l 825 839 l 301 839 l 301 610 l 786 610 l 786 436 l 301 436 m 686 1296 b 656 1176 683 1236 678 1211 b 456 1078 614 1110 549 1078 b 246 1192 354 1078 283 1117 b 225 1296 231 1221 226 1243 l 347 1296 b 456 1193 357 1228 393 1193 b 563 1296 517 1193 554 1228 "}}}
